<svg width="265" height="71" viewBox="0 0 265 71" fill="none" xmlns="http://www.w3.org/2000/svg">
<path d="M57.744 34.088L56.8881 34.6051L56.892 34.6116L56.896 34.618L57.744 34.088ZM57.616 50.216L56.7478 49.7199L56.7478 49.7199L57.616 50.216ZM51.472 55.72L51.0476 54.8145L51.0421 54.8171L51.472 55.72ZM34.64 57L34.44 57.9798L34.4439 57.9806L34.64 57ZM29.136 55.144H28.136V55.7546L28.6792 56.0336L29.136 55.144ZM29.136 46.824L29.5928 45.9344L28.136 45.1863V46.824H29.136ZM34.832 48.936L34.572 49.9016L34.5807 49.904L34.5895 49.9061L34.832 48.936ZM45.904 49L45.543 48.0674L45.5326 48.0715L45.904 49ZM48.912 46.632L49.7543 47.1711L49.7543 47.1711L48.912 46.632ZM47.696 37.416L47.0713 38.1969L47.0782 38.2024L47.0852 38.2078L47.696 37.416ZM37.072 36.008L37.2364 36.9944L37.2523 36.9917L37.2681 36.9886L37.072 36.008ZM33.872 36.648L33.4014 37.5304L33.7411 37.7115L34.1145 37.6181L33.872 36.648ZM30.032 34.6L29.0347 34.526L28.9865 35.1758L29.5614 35.4824L30.032 34.6ZM31.76 11.304V10.304H30.8314L30.7627 11.23L31.76 11.304ZM56.528 11.304H57.528V10.304H56.528V11.304ZM56.528 19.496V20.496H57.528V19.496H56.528ZM40.208 19.496V18.496H39.2966L39.2123 19.4035L40.208 19.496ZM39.376 28.456L38.3803 28.3635L38.2591 29.6686L39.5498 29.4408L39.376 28.456ZM41.68 28.072L41.836 29.0598L41.8561 29.0566L41.8761 29.0526L41.68 28.072ZM45.2 28.816C47.8428 28.816 50.1634 29.3235 52.1838 30.3139L53.0642 28.5181C50.7326 27.3752 48.1038 26.816 45.2 26.816V28.816ZM52.1838 30.3139C54.1899 31.2973 55.7513 32.7235 56.8881 34.6051L58.5999 33.5709C57.2621 31.3565 55.4101 29.668 53.0642 28.5181L52.1838 30.3139ZM56.896 34.618C58.0542 36.4712 58.664 38.8147 58.664 41.704H60.664C60.664 38.5346 59.9938 35.8008 58.592 33.558L56.896 34.618ZM58.664 41.704C58.664 44.8491 58.0114 47.5085 56.7478 49.7199L58.4842 50.7121C59.9513 48.1449 60.664 45.1296 60.664 41.704H58.664ZM56.7478 49.7199C55.4945 51.9131 53.6104 53.6132 51.0476 54.8145L51.8964 56.6255C54.7949 55.2668 57.0069 53.2976 58.4842 50.7121L56.7478 49.7199ZM51.0421 54.8171C48.5265 56.015 45.3349 56.64 41.424 56.64V58.64C45.5344 58.64 49.0415 57.985 51.9019 56.6229L51.0421 54.8171ZM41.424 56.64C39.0942 56.64 36.8989 56.432 34.8361 56.0194L34.4439 57.9806C36.6477 58.4214 38.9752 58.64 41.424 58.64V56.64ZM34.84 56.0202C32.8212 55.6082 31.076 55.016 29.5928 54.2544L28.6792 56.0336C30.3534 56.8933 32.2775 57.5385 34.44 57.9798L34.84 56.0202ZM30.136 55.144V46.824H28.136V55.144H30.136ZM28.6792 47.7136C30.3358 48.5643 32.304 49.291 34.572 49.9016L35.092 47.9704C32.9226 47.3863 31.0935 46.7051 29.5928 45.9344L28.6792 47.7136ZM34.5895 49.9061C36.8747 50.4775 39.0474 50.768 41.104 50.768V48.768C39.2352 48.768 37.2266 48.5039 35.0745 47.9659L34.5895 49.9061ZM41.104 50.768C43.1048 50.768 44.8407 50.5023 46.2754 49.9285L45.5326 48.0715C44.4073 48.5217 42.9432 48.768 41.104 48.768V50.768ZM46.265 49.9326C47.7609 49.3535 48.9435 48.4379 49.7543 47.1711L48.0697 46.0929C47.5152 46.9594 46.6924 47.6225 45.543 48.0674L46.265 49.9326ZM49.7543 47.1711C50.5676 45.9002 50.936 44.3322 50.936 42.536H48.936C48.936 44.0678 48.6217 45.2305 48.0697 46.0929L49.7543 47.1711ZM50.936 42.536C50.936 40.0337 50.0955 38.0041 48.3068 36.6242L47.0852 38.2078C48.2832 39.1319 48.936 40.5156 48.936 42.536H50.936ZM48.3207 36.6351C46.5688 35.2336 43.9935 34.624 40.784 34.624V36.624C43.8038 36.624 45.8365 37.209 47.0713 38.1969L48.3207 36.6351ZM40.784 34.624C39.5177 34.624 38.2146 34.7597 36.8759 35.0274L37.2681 36.9886C38.4894 36.7443 39.6609 36.624 40.784 36.624V34.624ZM36.9076 35.0216C35.6124 35.2375 34.5176 35.4558 33.6295 35.6779L34.1145 37.6181C34.9331 37.4135 35.9716 37.2052 37.2364 36.9944L36.9076 35.0216ZM34.3426 35.7656L30.5026 33.7176L29.5614 35.4824L33.4014 37.5304L34.3426 35.7656ZM31.0293 34.674L32.7573 11.378L30.7627 11.23L29.0347 34.526L31.0293 34.674ZM31.76 12.304H56.528V10.304H31.76V12.304ZM55.528 11.304V19.496H57.528V11.304H55.528ZM56.528 18.496H40.208V20.496H56.528V18.496ZM39.2123 19.4035L38.3803 28.3635L40.3717 28.5485L41.2037 19.5885L39.2123 19.4035ZM39.5498 29.4408C40.2686 29.3139 41.0306 29.1869 41.836 29.0598L41.524 27.0842C40.7081 27.2131 39.9341 27.3421 39.2022 27.4712L39.5498 29.4408ZM41.8761 29.0526C42.6351 28.9008 43.7329 28.816 45.2 28.816V26.816C43.6804 26.816 42.4316 26.9019 41.4839 27.0914L41.8761 29.0526ZM102.29 22.056V21.056H101.805L101.505 21.4367L102.29 22.056ZM112.786 22.056L113.558 22.6921L114.906 21.056H112.786V22.056ZM98.962 38.824L98.1904 38.1879L97.665 38.8252L98.1916 39.4615L98.962 38.824ZM114.002 57V58H116.127L114.772 56.3625L114.002 57ZM103.186 57L102.407 57.6271L102.707 58H103.186V57ZM88.914 39.272L89.6929 38.6449L87.914 36.4352V39.272H88.914ZM88.914 57V58H89.914V57H88.914ZM79.378 57H78.378V58H79.378V57ZM79.378 22.056V21.056H78.378V22.056H79.378ZM88.914 22.056H89.914V21.056H88.914V22.056ZM88.914 39.016H87.914V41.8988L89.6992 39.6353L88.914 39.016ZM102.29 23.056H112.786V21.056H102.29V23.056ZM112.014 21.4199L98.1904 38.1879L99.7336 39.4601L113.558 22.6921L112.014 21.4199ZM98.1916 39.4615L113.232 57.6375L114.772 56.3625L99.7324 38.1865L98.1916 39.4615ZM114.002 56H103.186V58H114.002V56ZM103.965 56.3729L89.6929 38.6449L88.1351 39.8991L102.407 57.6271L103.965 56.3729ZM87.914 39.272V57H89.914V39.272H87.914ZM88.914 56H79.378V58H88.914V56ZM80.378 57V22.056H78.378V57H80.378ZM79.378 23.056H88.914V21.056H79.378V23.056ZM87.914 22.056V39.016H89.914V22.056H87.914ZM89.6992 39.6353L103.075 22.6753L101.505 21.4367L88.1288 38.3967L89.6992 39.6353ZM125.659 38.568L124.662 38.4883L124.661 38.5081L124.66 38.528L125.659 38.568ZM125.467 41.832L124.47 41.7553L124.468 41.7744L124.468 41.7936L125.467 41.832ZM125.275 44.776L126.27 44.8755L126.27 44.8755L125.275 44.776ZM125.083 46.568L124.091 46.444L125.918 47.1177L125.083 46.568ZM141.211 22.056V21.056H140.672L140.376 21.5063L141.211 22.056ZM152.667 22.056H153.667V21.056H152.667V22.056ZM152.667 57V58H153.667V57H152.667ZM143.451 57H142.451V58H143.451V57ZM143.579 39.272L144.577 39.3344L144.577 39.3325L143.579 39.272ZM143.835 35.368L142.84 35.2651L142.839 35.2809L142.838 35.2968L143.835 35.368ZM144.091 32.552L145.089 32.6185L145.341 28.8278L143.255 32.0029L144.091 32.552ZM128.027 57V58H128.566L128.863 57.5491L128.027 57ZM116.571 57H115.571V58H116.571V57ZM116.571 22.056V21.056H115.571V22.056H116.571ZM125.787 22.056H126.787V21.056H125.787V22.056ZM124.787 35.88C124.787 36.5695 124.746 37.4369 124.662 38.4883L126.656 38.6477C126.742 37.5657 126.787 36.6412 126.787 35.88H124.787ZM124.66 38.528C124.618 39.5819 124.554 40.6577 124.47 41.7553L126.464 41.9087C126.55 40.7876 126.615 39.6874 126.658 38.608L124.66 38.528ZM124.468 41.7936C124.426 42.8881 124.363 43.8484 124.28 44.6765L126.27 44.8755C126.358 43.997 126.423 42.9946 126.466 41.8704L124.468 41.7936ZM124.28 44.6765C124.195 45.5301 124.132 46.1163 124.091 46.444L126.075 46.692C126.12 46.337 126.185 45.7285 126.27 44.8755L124.28 44.6765ZM125.918 47.1177L142.046 22.6057L140.376 21.5063L124.248 46.0183L125.918 47.1177ZM141.211 23.056H152.667V21.056H141.211V23.056ZM151.667 22.056V57H153.667V22.056H151.667ZM152.667 56H143.451V58H152.667V56ZM144.451 57V43.048H142.451V57H144.451ZM144.451 43.048C144.451 41.9202 144.493 40.6827 144.577 39.3344L142.581 39.2096C142.495 40.592 142.451 41.8718 142.451 43.048H144.451ZM144.577 39.3325C144.662 37.9275 144.747 36.6298 144.832 35.4392L142.838 35.2968C142.752 36.4956 142.666 37.8005 142.581 39.2115L144.577 39.3325ZM144.83 35.4709C144.958 34.2304 145.045 33.2772 145.089 32.6185L143.093 32.4855C143.052 33.1068 142.968 34.0309 142.84 35.2651L144.83 35.4709ZM143.255 32.0029L127.191 56.4509L128.863 57.5491L144.927 33.1011L143.255 32.0029ZM128.027 56H116.571V58H128.027V56ZM117.571 57V22.056H115.571V57H117.571ZM116.571 23.056H125.787V21.056H116.571V23.056ZM124.787 22.056V35.88H126.787V22.056H124.787ZM189.13 29.224V30.224H190.13V29.224H189.13ZM177.674 29.224V28.224H176.674V29.224H177.674ZM177.674 57V58H178.674V57H177.674ZM168.138 57H167.138V58H168.138V57ZM168.138 29.224H169.138V28.224H168.138V29.224ZM156.682 29.224H155.682V30.224H156.682V29.224ZM156.682 22.056V21.056H155.682V22.056H156.682ZM189.13 22.056H190.13V21.056H189.13V22.056ZM189.13 28.224H177.674V30.224H189.13V28.224ZM176.674 29.224V57H178.674V29.224H176.674ZM177.674 56H168.138V58H177.674V56ZM169.138 57V29.224H167.138V57H169.138ZM168.138 28.224H156.682V30.224H168.138V28.224ZM157.682 29.224V22.056H155.682V29.224H157.682ZM156.682 23.056H189.13V21.056H156.682V23.056ZM188.13 22.056V29.224H190.13V22.056H188.13ZM223.047 47.208L222.106 46.8705L222.103 46.8785L222.101 46.8864L223.047 47.208ZM219.655 52.968L218.929 52.2808L218.928 52.2814L219.655 52.968ZM214.343 56.488L214.688 57.4267L214.697 57.4236L214.705 57.4204L214.343 56.488ZM200.455 56.488L200.087 57.4178L200.099 57.4224L200.111 57.4267L200.455 56.488ZM195.143 52.968L194.417 53.6553L194.427 53.6651L195.143 52.968ZM191.623 47.208L190.682 47.5455L190.685 47.5533L190.688 47.5611L191.623 47.208ZM192.455 29.672L193.344 30.1307L193.347 30.1249L192.455 29.672ZM198.343 23.528L198.825 24.4042L198.825 24.4042L198.343 23.528ZM216.135 23.528L215.647 24.4008L215.647 24.4008L216.135 23.528ZM222.087 29.672L221.207 30.1469L221.211 30.1528L222.087 29.672ZM200.839 45.288L199.881 45.573L199.886 45.5887L199.891 45.6042L200.839 45.288ZM203.207 48.808L202.602 49.6042L202.613 49.612L202.623 49.6195L203.207 48.808ZM211.463 48.808L212.064 49.608L212.069 49.6042L211.463 48.808ZM213.767 45.288L212.816 44.9795L212.814 44.9876L212.811 44.9958L213.767 45.288ZM213.767 33.704L212.811 33.9962L212.815 34.0083L212.819 34.0202L213.767 33.704ZM201.799 31.72L200.964 31.17L200.961 31.175L201.799 31.72ZM223.263 39.464C223.263 42.2735 222.871 44.7373 222.106 46.8705L223.989 47.5455C224.845 45.156 225.263 42.4572 225.263 39.464H223.263ZM222.101 46.8864C221.374 49.0251 220.314 50.8167 218.929 52.2808L220.382 53.6552C221.984 51.962 223.185 49.9136 223.994 47.5296L222.101 46.8864ZM218.928 52.2814C217.586 53.7027 215.943 54.7953 213.982 55.5556L214.705 57.4204C216.926 56.5593 218.824 55.3053 220.383 53.6546L218.928 52.2814ZM213.999 55.5493C212.037 56.2699 209.789 56.64 207.239 56.64V58.64C209.981 58.64 212.469 58.2421 214.688 57.4267L213.999 55.5493ZM207.239 56.64C204.914 56.64 202.771 56.2732 200.8 55.5493L200.111 57.4267C202.321 58.2388 204.701 58.64 207.239 58.64V56.64ZM200.824 55.5582C198.903 54.7981 197.252 53.7027 195.86 52.2709L194.427 53.6651C196.021 55.3053 197.912 56.5566 200.087 57.4178L200.824 55.5582ZM195.87 52.2808C194.478 50.8088 193.371 49.0061 192.559 46.8549L190.688 47.5611C191.583 49.9326 192.823 51.9699 194.417 53.6552L195.87 52.2808ZM192.565 46.8705C191.8 44.7373 191.407 42.2735 191.407 39.464H189.407C189.407 42.4572 189.826 45.156 190.682 47.5455L192.565 46.8705ZM191.407 39.464C191.407 35.694 192.071 32.5977 193.344 30.1306L191.567 29.2134C190.11 32.037 189.407 35.4686 189.407 39.464H191.407ZM193.347 30.1249C194.625 27.6098 196.447 25.7122 198.825 24.4042L197.862 22.6518C195.12 24.1598 193.017 26.3582 191.564 29.2191L193.347 30.1249ZM198.825 24.4042C201.211 23.092 204.068 22.416 207.431 22.416V20.416C203.798 20.416 200.596 21.148 197.862 22.6518L198.825 24.4042ZM207.431 22.416C210.57 22.416 213.299 23.0872 215.647 24.4008L216.624 22.6552C213.937 21.1528 210.864 20.416 207.431 20.416V22.416ZM215.647 24.4008C217.989 25.7105 219.841 27.6157 221.207 30.1469L222.968 29.1971C221.432 26.3523 219.317 24.1615 216.624 22.6552L215.647 24.4008ZM221.211 30.1528C222.561 32.6144 223.263 35.7024 223.263 39.464H225.263C225.263 35.4602 224.516 32.0202 222.964 29.1912L221.211 30.1528ZM199.135 39.464C199.135 41.8292 199.376 43.8732 199.881 45.573L201.798 45.003C201.365 43.5455 201.135 41.7068 201.135 39.464H199.135ZM199.891 45.6042C200.453 47.2907 201.345 48.6483 202.602 49.6042L203.813 48.0118C202.937 47.3464 202.25 46.3573 201.788 44.9718L199.891 45.6042ZM202.623 49.6195C203.905 50.5421 205.514 50.96 207.367 50.96V48.96C205.808 48.96 204.644 48.6099 203.792 47.9965L202.623 49.6195ZM207.367 50.96C209.219 50.96 210.817 50.5431 212.063 49.608L210.863 48.008C210.062 48.6089 208.929 48.96 207.367 48.96V50.96ZM212.069 49.6042C213.333 48.6429 214.206 47.276 214.724 45.5802L212.811 44.9958C212.391 46.372 211.727 47.3517 210.858 48.0118L212.069 49.6042ZM214.719 45.5965C215.273 43.8879 215.535 41.8352 215.535 39.464H213.535C213.535 41.7007 213.286 43.5308 212.816 44.9795L214.719 45.5965ZM215.535 39.464C215.535 37.0941 215.273 35.0589 214.716 33.3878L212.819 34.0202C213.286 35.4211 213.535 37.2259 213.535 39.464H215.535ZM214.724 33.4118C214.205 31.7142 213.328 30.3585 212.048 29.4365L210.879 31.0595C211.732 31.6735 212.391 32.6218 212.811 33.9962L214.724 33.4118ZM212.048 29.4365C210.766 28.5139 209.157 28.096 207.303 28.096V30.096C208.863 30.096 210.027 30.4461 210.879 31.0595L212.048 29.4365ZM207.303 28.096C204.528 28.096 202.341 29.0802 200.964 31.17L202.635 32.27C203.562 30.8611 205.044 30.096 207.303 30.096V28.096ZM200.961 31.175C199.696 33.1215 199.135 35.9346 199.135 39.464H201.135C201.135 36.0814 201.685 33.7318 202.638 32.265L200.961 31.175ZM258.897 36.008L258.154 35.3377L258.148 35.3444L258.142 35.3512L258.897 36.008ZM253.713 38.568L253.548 37.5816L252.713 37.7209V38.568H253.713ZM253.713 38.824H252.713V39.7087L253.591 39.8165L253.713 38.824ZM259.537 41.32L258.851 42.0482L258.856 42.0532L258.862 42.058L259.537 41.32ZM260.881 50.728L259.974 50.3051L259.968 50.3177L259.963 50.3304L260.881 50.728ZM258.193 54.056L257.588 53.2593L257.588 53.2593L258.193 54.056ZM253.393 56.232L253.14 55.2644L253.135 55.2658L253.393 56.232ZM229.713 57H228.713V58H229.713V57ZM229.713 22.056V21.056H228.713V22.056H229.713ZM253.649 22.952L253.379 23.915L253.39 23.9181L253.402 23.921L253.649 22.952ZM258.769 25.768L258.038 26.4512L258.044 26.4573L258.05 26.4634L258.769 25.768ZM250.321 43.112L249.806 43.9695L249.819 43.9772L249.832 43.9845L250.321 43.112ZM239.249 42.152V41.152H238.249V42.152H239.249ZM239.249 50.408H238.249V51.408H239.249V50.408ZM250.129 49.448L250.614 50.3222L250.625 50.3162L250.129 49.448ZM249.745 29.544L250.259 28.6865L250.259 28.6865L249.745 29.544ZM239.249 28.776V27.776H238.249V28.776H239.249ZM239.249 35.688H238.249V36.688H239.249V35.688ZM249.425 34.856L249.901 35.7354L249.913 35.7285L249.425 34.856ZM259.689 31.208C259.689 32.8521 259.174 34.2093 258.154 35.3377L259.639 36.6783C261.009 35.1614 261.689 33.3185 261.689 31.208H259.689ZM258.142 35.3512C257.187 36.4483 255.7 37.223 253.548 37.5816L253.877 39.5544C256.333 39.145 258.302 38.213 259.651 36.6648L258.142 35.3512ZM252.713 38.568V38.824H254.713V38.568H252.713ZM253.591 39.8165C255.861 40.0953 257.588 40.8595 258.851 42.0482L260.222 40.5918C258.584 39.0499 256.428 38.15 253.834 37.8315L253.591 39.8165ZM258.862 42.058C260.135 43.2226 260.777 44.6982 260.777 46.568H262.777C262.777 44.1711 261.924 42.1481 260.211 40.582L258.862 42.058ZM260.777 46.568C260.777 47.9238 260.506 49.1651 259.974 50.3051L261.787 51.1509C262.449 49.7309 262.777 48.1989 262.777 46.568H260.777ZM259.963 50.3304C259.484 51.4354 258.704 52.4125 257.588 53.2593L258.797 54.8527C260.155 53.8222 261.168 52.5806 261.798 51.1256L259.963 50.3304ZM257.588 53.2593C256.482 54.0981 255.012 54.7759 253.14 55.2644L253.645 57.1996C255.698 56.6641 257.428 55.8913 258.797 54.8527L257.588 53.2593ZM253.135 55.2658C251.325 55.7485 249.07 56 246.353 56V58C249.181 58 251.62 57.7395 253.65 57.1982L253.135 55.2658ZM246.353 56H229.713V58H246.353V56ZM230.713 57V22.056H228.713V57H230.713ZM229.713 23.056H246.353V21.056H229.713V23.056ZM246.353 23.056C249.012 23.056 251.351 23.3471 253.379 23.915L253.918 21.989C251.679 21.3622 249.154 21.056 246.353 21.056V23.056ZM253.402 23.921C255.437 24.4398 256.96 25.298 258.038 26.4512L259.499 25.0848C258.103 23.5926 256.212 22.5735 253.896 21.983L253.402 23.921ZM258.05 26.4634C259.107 27.5555 259.689 29.0949 259.689 31.208H261.689C261.689 28.7131 260.99 26.6259 259.487 25.0726L258.05 26.4634ZM252.921 46.056C252.921 44.38 252.234 43.0374 250.809 42.2395L249.832 43.9845C250.54 44.3813 250.921 45.0013 250.921 46.056H252.921ZM250.835 42.2545C249.538 41.4763 247.721 41.152 245.521 41.152V43.152C247.586 43.152 248.97 43.4677 249.806 43.9695L250.835 42.2545ZM245.521 41.152H239.249V43.152H245.521V41.152ZM238.249 42.152V50.408H240.249V42.152H238.249ZM239.249 51.408H245.713V49.408H239.249V51.408ZM245.713 51.408C247.616 51.408 249.27 51.0691 250.614 50.3222L249.643 48.5738C248.683 49.1069 247.393 49.408 245.713 49.408V51.408ZM250.625 50.3162C252.182 49.4261 252.921 47.9301 252.921 46.056H250.921C250.921 47.3392 250.464 48.1045 249.632 48.5798L250.625 50.3162ZM252.025 31.976C252.025 30.5637 251.453 29.4028 250.259 28.6865L249.23 30.4015C249.743 30.7092 250.025 31.1696 250.025 31.976H252.025ZM250.259 28.6865C249.178 28.038 247.706 27.776 245.969 27.776V29.776C247.559 29.776 248.604 30.026 249.23 30.4015L250.259 28.6865ZM245.969 27.776H239.249V29.776H245.969V27.776ZM238.249 28.776V35.688H240.249V28.776H238.249ZM239.249 36.688H244.881V34.688H239.249V36.688ZM244.881 36.688C246.948 36.688 248.66 36.4073 249.901 35.7353L248.948 33.9767C248.141 34.414 246.824 34.688 244.881 34.688V36.688ZM249.913 35.7285C251.326 34.9373 252.025 33.6243 252.025 31.976H250.025C250.025 32.973 249.656 33.5801 248.936 33.9835L249.913 35.7285Z" fill="#E06529"/>
<path d="M29.8279 34.816C32.6013 34.816 35.0759 35.3493 37.2519 36.416C39.4279 37.4827 41.1346 39.04 42.3719 41.088C43.6519 43.136 44.2919 45.6747 44.2919 48.704C44.2919 51.9893 43.6093 54.8267 42.2439 57.216C40.8786 59.6053 38.8306 61.44 36.0999 62.72C33.4119 64 30.0626 64.64 26.0519 64.64C23.6626 64.64 21.4013 64.4267 19.2679 64C17.1773 63.5733 15.3426 62.9547 13.7639 62.144V53.824C15.3426 54.6347 17.2413 55.3387 19.4599 55.936C21.6786 56.4907 23.7693 56.768 25.7319 56.768C27.6519 56.768 29.2519 56.512 30.5319 56C31.8546 55.488 32.8573 54.6987 33.5399 53.632C34.2226 52.5653 34.5639 51.2 34.5639 49.536C34.5639 47.2747 33.8173 45.568 32.3239 44.416C30.8306 43.2213 28.5266 42.624 25.4119 42.624C24.2173 42.624 22.9799 42.752 21.6999 43.008C20.4199 43.2213 19.3533 43.4347 18.4999 43.648L14.6599 41.6L16.3879 18.304H41.1559V26.496H24.8359L24.0039 35.456C24.7293 35.328 25.4973 35.2 26.3079 35.072C27.1613 34.9013 28.3346 34.816 29.8279 34.816ZM86.9179 29.056H97.4139L83.5899 45.824L98.6299 64H87.8139L73.5419 46.272V64H64.0059V29.056H73.5419V46.016L86.9179 29.056ZM110.415 42.88C110.415 43.6053 110.372 44.5013 110.287 45.568C110.244 46.6347 110.18 47.7227 110.095 48.832C110.052 49.9413 109.988 50.9227 109.903 51.776C109.818 52.6293 109.754 53.2267 109.711 53.568L125.839 29.056H137.295V64H128.079V50.048C128.079 48.896 128.122 47.6373 128.207 46.272C128.292 44.864 128.378 43.5627 128.463 42.368C128.591 41.1307 128.676 40.192 128.719 39.552L112.655 64H101.199V29.056H110.415V42.88ZM173.757 36.224H162.301V64H152.765V36.224H141.309V29.056H173.757V36.224ZM208.891 46.464C208.891 49.3653 208.486 51.9467 207.675 54.208C206.907 56.4693 205.777 58.3893 204.283 59.968C202.833 61.504 201.062 62.6773 198.971 63.488C196.881 64.256 194.513 64.64 191.867 64.64C189.435 64.64 187.174 64.256 185.083 63.488C183.035 62.6773 181.265 61.504 179.771 59.968C178.278 58.3893 177.105 56.4693 176.251 54.208C175.441 51.9467 175.035 49.3653 175.035 46.464C175.035 42.5813 175.718 39.3173 177.083 36.672C178.449 33.984 180.411 31.936 182.971 30.528C185.531 29.12 188.561 28.416 192.059 28.416C195.345 28.416 198.246 29.12 200.763 30.528C203.281 31.936 205.265 33.984 206.715 36.672C208.166 39.3173 208.891 42.5813 208.891 46.464ZM184.763 46.464C184.763 48.768 184.998 50.7093 185.467 52.288C185.979 53.824 186.769 54.9973 187.835 55.808C188.902 56.576 190.289 56.96 191.995 56.96C193.702 56.96 195.067 56.576 196.091 55.808C197.158 54.9973 197.926 53.824 198.395 52.288C198.907 50.7093 199.163 48.768 199.163 46.464C199.163 44.16 198.907 42.24 198.395 40.704C197.926 39.168 197.158 38.016 196.091 37.248C195.025 36.48 193.638 36.096 191.931 36.096C189.414 36.096 187.579 36.9707 186.427 38.72C185.318 40.4267 184.763 43.008 184.763 46.464ZM245.316 38.208C245.316 40.0853 244.719 41.6853 243.524 43.008C242.372 44.3307 240.644 45.184 238.34 45.568V45.824C240.772 46.1227 242.714 46.9547 244.164 48.32C245.658 49.6853 246.404 51.4347 246.404 53.568C246.404 55.0613 246.106 56.448 245.508 57.728C244.954 59.008 244.058 60.1173 242.82 61.056C241.583 61.9947 239.983 62.72 238.02 63.232C236.1 63.744 233.754 64 230.98 64H214.34V29.056H230.98C233.711 29.056 236.143 29.3547 238.276 29.952C240.452 30.5067 242.159 31.4453 243.396 32.768C244.676 34.0907 245.316 35.904 245.316 38.208ZM236.548 53.056C236.548 51.6907 236.015 50.7093 234.948 50.112C233.882 49.472 232.282 49.152 230.148 49.152H223.876V57.408H230.34C232.132 57.408 233.604 57.088 234.756 56.448C235.951 55.7653 236.548 54.6347 236.548 53.056ZM235.652 38.976C235.652 37.8667 235.226 37.056 234.372 36.544C233.519 36.032 232.26 35.776 230.596 35.776H223.876V42.688H229.508C231.514 42.688 233.028 42.4107 234.052 41.856C235.119 41.2587 235.652 40.2987 235.652 38.976Z" fill="white"/>
</svg>
