<svg width="337" height="582" viewBox="0 0 337 582" fill="none" xmlns="http://www.w3.org/2000/svg">
<rect x="23.5" y="66.5" width="296" height="208" rx="9.5" fill="#2E3190" stroke="#8080FF"/>
<rect x="39.5" y="242.5" width="263" height="166" rx="16.5" fill="#2E3190" stroke="white"/>
<path d="M63.96 268.328V277H61.944V269.896H58.312V277H56.296V268.328H63.96ZM71.106 268.168C72.1193 268.168 72.9353 268.547 73.554 269.304C74.1727 270.051 74.482 271.165 74.482 272.648C74.482 273.629 74.338 274.456 74.05 275.128C73.762 275.8 73.362 276.307 72.85 276.648C72.338 276.989 71.7407 277.16 71.058 277.16C70.642 277.16 70.274 277.107 69.954 277C69.634 276.883 69.362 276.739 69.138 276.568C68.914 276.387 68.722 276.195 68.562 275.992H68.434C68.4767 276.184 68.5087 276.403 68.53 276.648C68.5513 276.883 68.562 277.107 68.562 277.32V280.84H66.546V268.328H68.178L68.466 269.48H68.562C68.722 269.235 68.914 269.016 69.138 268.824C69.3727 268.621 69.65 268.461 69.97 268.344C70.3007 268.227 70.6793 268.168 71.106 268.168ZM70.53 269.8C70.0607 269.8 69.682 269.896 69.394 270.088C69.106 270.269 68.898 270.552 68.77 270.936C68.642 271.32 68.5727 271.8 68.562 272.376V272.632C68.562 273.251 68.6207 273.773 68.738 274.2C68.866 274.627 69.074 274.952 69.362 275.176C69.6607 275.4 70.0607 275.512 70.562 275.512C70.9887 275.512 71.3353 275.395 71.602 275.16C71.8793 274.925 72.082 274.595 72.21 274.168C72.3487 273.731 72.418 273.213 72.418 272.616C72.418 271.72 72.2633 271.027 71.954 270.536C71.6553 270.045 71.1807 269.8 70.53 269.8ZM80.0176 268.168C81.1376 268.168 81.9856 268.413 82.5616 268.904C83.1483 269.384 83.4416 270.141 83.4416 271.176V277H82.0176L81.6176 275.8H81.5536C81.3083 276.109 81.0523 276.371 80.7856 276.584C80.5296 276.787 80.231 276.931 79.8896 277.016C79.559 277.112 79.1536 277.16 78.6736 277.16C78.1616 277.16 77.6976 277.064 77.2816 276.872C76.8763 276.68 76.5563 276.387 76.3216 275.992C76.087 275.587 75.9696 275.08 75.9696 274.472C75.9696 273.576 76.295 272.904 76.9456 272.456C77.607 271.997 78.6043 271.747 79.9376 271.704L81.4416 271.656V271.224C81.4416 270.669 81.3083 270.275 81.0416 270.04C80.775 269.805 80.4016 269.688 79.9216 269.688C79.4843 269.688 79.063 269.752 78.6576 269.88C78.2523 270.008 77.8576 270.157 77.4736 270.328L76.8336 268.92C77.2603 268.696 77.7456 268.515 78.2896 268.376C78.8443 268.237 79.4203 268.168 80.0176 268.168ZM80.3856 272.936C79.5003 272.968 78.887 273.123 78.5456 273.4C78.2043 273.667 78.0336 274.029 78.0336 274.488C78.0336 274.893 78.1563 275.187 78.4016 275.368C78.647 275.549 78.9616 275.64 79.3456 275.64C79.9323 275.64 80.4283 275.475 80.8336 275.144C81.239 274.803 81.4416 274.301 81.4416 273.64V272.904L80.3856 272.936ZM93.3919 270.568C93.3919 271.059 93.2372 271.464 92.9279 271.784C92.6292 272.104 92.2025 272.312 91.6479 272.408V272.472C92.2345 272.547 92.7145 272.749 93.0879 273.08C93.4719 273.4 93.6639 273.848 93.6639 274.424C93.6639 274.797 93.5892 275.144 93.4399 275.464C93.3012 275.773 93.0825 276.045 92.7839 276.28C92.4959 276.504 92.1172 276.68 91.6479 276.808C91.1785 276.936 90.6132 277 89.9519 277H85.9679V268.328H89.9359C90.5972 268.328 91.1839 268.397 91.6959 268.536C92.2185 268.675 92.6292 268.909 92.9279 269.24C93.2372 269.56 93.3919 270.003 93.3919 270.568ZM91.5679 274.344C91.5679 273.949 91.4132 273.667 91.1039 273.496C90.8052 273.315 90.3519 273.224 89.7439 273.224H87.9839V275.544H89.7919C90.3359 275.544 90.7679 275.453 91.0879 275.272C91.4079 275.091 91.5679 274.781 91.5679 274.344ZM91.3439 270.744C91.3439 270.424 91.2212 270.189 90.9759 270.04C90.7305 269.891 90.3572 269.816 89.8559 269.816H87.9839V271.768H89.5839C90.1599 271.768 90.5972 271.688 90.8959 271.528C91.1945 271.368 91.3439 271.107 91.3439 270.744ZM103.462 272.648C103.462 273.373 103.366 274.013 103.174 274.568C102.982 275.123 102.705 275.597 102.342 275.992C101.99 276.376 101.553 276.669 101.03 276.872C100.518 277.064 99.9472 277.16 99.3179 277.16C98.7205 277.16 98.1712 277.064 97.6699 276.872C97.1685 276.669 96.7312 276.376 96.3579 275.992C95.9952 275.597 95.7125 275.123 95.5099 274.568C95.3072 274.013 95.2059 273.373 95.2059 272.648C95.2059 271.688 95.3712 270.877 95.7019 270.216C96.0325 269.544 96.5072 269.037 97.1259 268.696C97.7552 268.344 98.4965 268.168 99.3499 268.168C100.161 268.168 100.87 268.344 101.478 268.696C102.097 269.037 102.582 269.544 102.934 270.216C103.286 270.877 103.462 271.688 103.462 272.648ZM97.2699 272.648C97.2699 273.256 97.3392 273.779 97.4779 274.216C97.6272 274.643 97.8512 274.968 98.1499 275.192C98.4592 275.416 98.8539 275.528 99.3339 275.528C99.8245 275.528 100.219 275.416 100.518 275.192C100.827 274.968 101.051 274.643 101.19 274.216C101.329 273.779 101.398 273.256 101.398 272.648C101.398 272.029 101.323 271.512 101.174 271.096C101.035 270.669 100.811 270.349 100.502 270.136C100.203 269.912 99.8139 269.8 99.3339 269.8C98.6085 269.8 98.0805 270.045 97.7499 270.536C97.4299 271.027 97.2699 271.731 97.2699 272.648ZM112.97 270.568C112.97 271.059 112.815 271.464 112.506 271.784C112.207 272.104 111.781 272.312 111.226 272.408V272.472C111.813 272.547 112.293 272.749 112.666 273.08C113.05 273.4 113.242 273.848 113.242 274.424C113.242 274.797 113.167 275.144 113.018 275.464C112.879 275.773 112.661 276.045 112.362 276.28C112.074 276.504 111.695 276.68 111.226 276.808C110.757 276.936 110.191 277 109.53 277H105.546V268.328H109.514C110.175 268.328 110.762 268.397 111.274 268.536C111.797 268.675 112.207 268.909 112.506 269.24C112.815 269.56 112.97 270.003 112.97 270.568ZM111.146 274.344C111.146 273.949 110.991 273.667 110.682 273.496C110.383 273.315 109.93 273.224 109.322 273.224H107.562V275.544H109.37C109.914 275.544 110.346 275.453 110.666 275.272C110.986 275.091 111.146 274.781 111.146 274.344ZM110.922 270.744C110.922 270.424 110.799 270.189 110.554 270.04C110.309 269.891 109.935 269.816 109.434 269.816H107.562V271.768H109.162C109.738 271.768 110.175 271.688 110.474 271.528C110.773 271.368 110.922 271.107 110.922 270.744ZM123.04 272.648C123.04 273.373 122.944 274.013 122.752 274.568C122.56 275.123 122.283 275.597 121.92 275.992C121.568 276.376 121.131 276.669 120.608 276.872C120.096 277.064 119.525 277.16 118.896 277.16C118.299 277.16 117.749 277.064 117.248 276.872C116.747 276.669 116.309 276.376 115.936 275.992C115.573 275.597 115.291 275.123 115.088 274.568C114.885 274.013 114.784 273.373 114.784 272.648C114.784 271.688 114.949 270.877 115.28 270.216C115.611 269.544 116.085 269.037 116.704 268.696C117.333 268.344 118.075 268.168 118.928 268.168C119.739 268.168 120.448 268.344 121.056 268.696C121.675 269.037 122.16 269.544 122.512 270.216C122.864 270.877 123.04 271.688 123.04 272.648ZM116.848 272.648C116.848 273.256 116.917 273.779 117.056 274.216C117.205 274.643 117.429 274.968 117.728 275.192C118.037 275.416 118.432 275.528 118.912 275.528C119.403 275.528 119.797 275.416 120.096 275.192C120.405 274.968 120.629 274.643 120.768 274.216C120.907 273.779 120.976 273.256 120.976 272.648C120.976 272.029 120.901 271.512 120.752 271.096C120.613 270.669 120.389 270.349 120.08 270.136C119.781 269.912 119.392 269.8 118.912 269.8C118.187 269.8 117.659 270.045 117.328 270.536C117.008 271.027 116.848 271.731 116.848 272.648ZM132.948 264.648C132.895 265.192 132.745 265.667 132.5 266.072C132.265 266.467 131.897 266.771 131.396 266.984C130.895 267.197 130.233 267.304 129.412 267.304C128.559 267.304 127.887 267.197 127.396 266.984C126.916 266.771 126.569 266.472 126.356 266.088C126.143 265.693 126.015 265.213 125.972 264.648H127.796C127.849 265.224 127.999 265.613 128.244 265.816C128.489 266.008 128.889 266.104 129.444 266.104C129.913 266.104 130.292 266.003 130.58 265.8C130.879 265.587 131.055 265.203 131.108 264.648H132.948ZM127.06 272.456C127.06 272.605 127.049 272.797 127.028 273.032C127.017 273.256 127.007 273.496 126.996 273.752C126.985 273.997 126.969 274.221 126.948 274.424C126.937 274.616 126.927 274.76 126.916 274.856L131.156 268.328H133.588V277H131.652V272.92C131.652 272.675 131.657 272.392 131.668 272.072C131.689 271.752 131.711 271.448 131.732 271.16C131.753 270.861 131.769 270.637 131.78 270.488L127.556 277H125.124V268.328H127.06V272.456ZM143.799 268.168C144.919 268.168 145.767 268.413 146.343 268.904C146.93 269.384 147.223 270.141 147.223 271.176V277H145.799L145.399 275.8H145.335C145.09 276.109 144.834 276.371 144.567 276.584C144.311 276.787 144.012 276.931 143.671 277.016C143.34 277.112 142.935 277.16 142.455 277.16C141.943 277.16 141.479 277.064 141.063 276.872C140.658 276.68 140.338 276.387 140.103 275.992C139.868 275.587 139.751 275.08 139.751 274.472C139.751 273.576 140.076 272.904 140.727 272.456C141.388 271.997 142.386 271.747 143.719 271.704L145.223 271.656V271.224C145.223 270.669 145.09 270.275 144.823 270.04C144.556 269.805 144.183 269.688 143.703 269.688C143.266 269.688 142.844 269.752 142.439 269.88C142.034 270.008 141.639 270.157 141.255 270.328L140.615 268.92C141.042 268.696 141.527 268.515 142.071 268.376C142.626 268.237 143.202 268.168 143.799 268.168ZM144.167 272.936C143.282 272.968 142.668 273.123 142.327 273.4C141.986 273.667 141.815 274.029 141.815 274.488C141.815 274.893 141.938 275.187 142.183 275.368C142.428 275.549 142.743 275.64 143.127 275.64C143.714 275.64 144.21 275.475 144.615 275.144C145.02 274.803 145.223 274.301 145.223 273.64V272.904L144.167 272.936ZM155.221 268.328H157.445L153.909 272.488L157.749 277H155.445L151.765 272.6V277H149.749V268.328H151.765V272.536L155.221 268.328ZM165.845 269.88H162.997V277H160.997V269.88H158.165V268.328H165.845V269.88ZM168.798 275.32C168.702 275.693 168.58 276.099 168.43 276.536C168.281 276.963 168.121 277.389 167.95 277.816C167.78 278.253 167.604 278.669 167.422 279.064H165.966C166.073 278.648 166.174 278.205 166.27 277.736C166.366 277.277 166.457 276.824 166.542 276.376C166.628 275.928 166.697 275.517 166.75 275.144H168.686L168.798 275.32ZM180.799 268.328H183.023L179.487 272.488L183.327 277H181.023L177.343 272.6V277H175.327V268.328H177.343V272.536L180.799 268.328ZM192.118 272.648C192.118 273.373 192.022 274.013 191.83 274.568C191.638 275.123 191.361 275.597 190.998 275.992C190.646 276.376 190.209 276.669 189.686 276.872C189.174 277.064 188.603 277.16 187.974 277.16C187.377 277.16 186.827 277.064 186.326 276.872C185.825 276.669 185.387 276.376 185.014 275.992C184.651 275.597 184.369 275.123 184.166 274.568C183.963 274.013 183.862 273.373 183.862 272.648C183.862 271.688 184.027 270.877 184.358 270.216C184.689 269.544 185.163 269.037 185.782 268.696C186.411 268.344 187.153 268.168 188.006 268.168C188.817 268.168 189.526 268.344 190.134 268.696C190.753 269.037 191.238 269.544 191.59 270.216C191.942 270.877 192.118 271.688 192.118 272.648ZM185.926 272.648C185.926 273.256 185.995 273.779 186.134 274.216C186.283 274.643 186.507 274.968 186.806 275.192C187.115 275.416 187.51 275.528 187.99 275.528C188.481 275.528 188.875 275.416 189.174 275.192C189.483 274.968 189.707 274.643 189.846 274.216C189.985 273.779 190.054 273.256 190.054 272.648C190.054 272.029 189.979 271.512 189.83 271.096C189.691 270.669 189.467 270.349 189.158 270.136C188.859 269.912 188.47 269.8 187.99 269.8C187.265 269.8 186.737 270.045 186.406 270.536C186.086 271.027 185.926 271.731 185.926 272.648ZM200.782 269.88H197.934V277H195.934V269.88H193.102V268.328H200.782V269.88ZM210.024 272.648C210.024 273.373 209.928 274.013 209.736 274.568C209.544 275.123 209.267 275.597 208.904 275.992C208.552 276.376 208.115 276.669 207.592 276.872C207.08 277.064 206.51 277.16 205.88 277.16C205.283 277.16 204.734 277.064 204.232 276.872C203.731 276.669 203.294 276.376 202.92 275.992C202.558 275.597 202.275 275.123 202.072 274.568C201.87 274.013 201.768 273.373 201.768 272.648C201.768 271.688 201.934 270.877 202.264 270.216C202.595 269.544 203.07 269.037 203.688 268.696C204.318 268.344 205.059 268.168 205.912 268.168C206.723 268.168 207.432 268.344 208.04 268.696C208.659 269.037 209.144 269.544 209.496 270.216C209.848 270.877 210.024 271.688 210.024 272.648ZM203.832 272.648C203.832 273.256 203.902 273.779 204.04 274.216C204.19 274.643 204.414 274.968 204.712 275.192C205.022 275.416 205.416 275.528 205.896 275.528C206.387 275.528 206.782 275.416 207.08 275.192C207.39 274.968 207.614 274.643 207.752 274.216C207.891 273.779 207.96 273.256 207.96 272.648C207.96 272.029 207.886 271.512 207.736 271.096C207.598 270.669 207.374 270.349 207.064 270.136C206.766 269.912 206.376 269.8 205.896 269.8C205.171 269.8 204.643 270.045 204.312 270.536C203.992 271.027 203.832 271.731 203.832 272.648ZM216.669 268.168C217.682 268.168 218.498 268.547 219.117 269.304C219.735 270.051 220.045 271.165 220.045 272.648C220.045 273.629 219.901 274.456 219.613 275.128C219.325 275.8 218.925 276.307 218.413 276.648C217.901 276.989 217.303 277.16 216.621 277.16C216.205 277.16 215.837 277.107 215.516 277C215.196 276.883 214.925 276.739 214.701 276.568C214.477 276.387 214.285 276.195 214.125 275.992H213.997C214.039 276.184 214.071 276.403 214.093 276.648C214.114 276.883 214.125 277.107 214.125 277.32V280.84H212.109V268.328H213.741L214.029 269.48H214.125C214.285 269.235 214.477 269.016 214.701 268.824C214.935 268.621 215.213 268.461 215.533 268.344C215.863 268.227 216.242 268.168 216.669 268.168ZM216.093 269.8C215.623 269.8 215.245 269.896 214.957 270.088C214.669 270.269 214.461 270.552 214.333 270.936C214.205 271.32 214.135 271.8 214.125 272.376V272.632C214.125 273.251 214.183 273.773 214.301 274.2C214.429 274.627 214.637 274.952 214.924 275.176C215.223 275.4 215.623 275.512 216.125 275.512C216.551 275.512 216.898 275.395 217.165 275.16C217.442 274.925 217.645 274.595 217.773 274.168C217.911 273.731 217.981 273.213 217.981 272.616C217.981 271.72 217.826 271.027 217.517 270.536C217.218 270.045 216.743 269.8 216.093 269.8ZM222.124 277V268.328H224.14V271.752H225.692C226.535 271.752 227.223 271.848 227.756 272.04C228.3 272.221 228.7 272.499 228.956 272.872C229.223 273.245 229.356 273.715 229.356 274.28C229.356 274.835 229.233 275.315 228.988 275.72C228.743 276.125 228.353 276.44 227.82 276.664C227.287 276.888 226.588 277 225.724 277H222.124ZM225.596 275.544C226.108 275.544 226.529 275.453 226.86 275.272C227.191 275.08 227.356 274.765 227.356 274.328C227.356 273.912 227.201 273.624 226.892 273.464C226.593 273.304 226.156 273.224 225.58 273.224H224.14V275.544H225.596ZM230.684 277V268.328H232.7V277H230.684ZM243.12 264.648C243.067 265.192 242.917 265.667 242.672 266.072C242.437 266.467 242.069 266.771 241.568 266.984C241.067 267.197 240.405 267.304 239.584 267.304C238.731 267.304 238.059 267.197 237.568 266.984C237.088 266.771 236.741 266.472 236.528 266.088C236.315 265.693 236.187 265.213 236.144 264.648H237.968C238.021 265.224 238.171 265.613 238.416 265.816C238.661 266.008 239.061 266.104 239.616 266.104C240.085 266.104 240.464 266.003 240.752 265.8C241.051 265.587 241.227 265.203 241.28 264.648H243.12ZM237.232 272.456C237.232 272.605 237.221 272.797 237.2 273.032C237.189 273.256 237.179 273.496 237.168 273.752C237.157 273.997 237.141 274.221 237.12 274.424C237.109 274.616 237.099 274.76 237.088 274.856L241.328 268.328H243.76V277H241.824V272.92C241.824 272.675 241.829 272.392 241.84 272.072C241.861 271.752 241.883 271.448 241.904 271.16C241.925 270.861 241.941 270.637 241.952 270.488L237.728 277H235.296V268.328H237.232V272.456ZM58.232 294.456C58.232 294.605 58.2213 294.797 58.2 295.032C58.1893 295.256 58.1787 295.496 58.168 295.752C58.1573 295.997 58.1413 296.221 58.12 296.424C58.1093 296.616 58.0987 296.76 58.088 296.856L62.328 290.328H64.76V299H62.824V294.92C62.824 294.675 62.8293 294.392 62.84 294.072C62.8613 293.752 62.8827 293.448 62.904 293.16C62.9253 292.861 62.9413 292.637 62.952 292.488L58.728 299H56.296V290.328H58.232V294.456ZM70.1905 290.168C70.8305 290.168 71.4118 290.253 71.9345 290.424C72.4572 290.595 72.8732 290.851 73.1825 291.192C73.4918 291.523 73.6465 291.944 73.6465 292.456C73.6465 292.979 73.4918 293.395 73.1825 293.704C72.8838 294.013 72.4732 294.237 71.9505 294.376V294.456C72.3132 294.541 72.6385 294.664 72.9265 294.824C73.2252 294.984 73.4598 295.197 73.6305 295.464C73.8118 295.731 73.9025 296.083 73.9025 296.52C73.9025 297 73.7585 297.443 73.4705 297.848C73.1825 298.243 72.7398 298.563 72.1425 298.808C71.5452 299.043 70.7772 299.16 69.8385 299.16C69.3905 299.16 68.9692 299.139 68.5745 299.096C68.1798 299.053 67.8172 298.995 67.4865 298.92C67.1665 298.835 66.8838 298.733 66.6385 298.616V296.904C67.0012 297.075 67.4385 297.229 67.9505 297.368C68.4732 297.507 69.0278 297.576 69.6145 297.576C70.0518 297.576 70.4412 297.539 70.7825 297.464C71.1345 297.389 71.4118 297.267 71.6145 297.096C71.8278 296.925 71.9345 296.696 71.9345 296.408C71.9345 296.131 71.8438 295.907 71.6625 295.736C71.4812 295.555 71.2092 295.421 70.8465 295.336C70.4838 295.251 70.0198 295.208 69.4545 295.208H68.4465V293.752H69.3425C70.1105 293.752 70.7132 293.677 71.1505 293.528C71.5878 293.368 71.8065 293.085 71.8065 292.68C71.8065 292.36 71.6572 292.12 71.3585 291.96C71.0598 291.789 70.5958 291.704 69.9665 291.704C69.5292 291.704 69.0918 291.752 68.6545 291.848C68.2172 291.933 67.7798 292.067 67.3425 292.248L66.7185 290.792C67.1985 290.6 67.7212 290.451 68.2865 290.344C68.8518 290.227 69.4865 290.168 70.1905 290.168ZM83.1389 290.328V297.464H84.4029V302.072H82.5469V299H76.6429V302.072H74.8029V297.464H75.5229C75.9495 296.845 76.3069 296.152 76.5949 295.384C76.8829 294.605 77.1069 293.784 77.2669 292.92C77.4269 292.056 77.5335 291.192 77.5869 290.328H83.1389ZM79.2989 291.864C79.2349 292.536 79.1282 293.208 78.9789 293.88C78.8295 294.541 78.6429 295.176 78.4189 295.784C78.1949 296.392 77.9282 296.952 77.6189 297.464H81.1389V291.864H79.2989ZM89.4239 290.168C90.5439 290.168 91.3919 290.413 91.9679 290.904C92.5545 291.384 92.8479 292.141 92.8479 293.176V299H91.4239L91.0239 297.8H90.9599C90.7145 298.109 90.4585 298.371 90.1919 298.584C89.9359 298.787 89.6372 298.931 89.2959 299.016C88.9652 299.112 88.5599 299.16 88.0799 299.16C87.5679 299.16 87.1039 299.064 86.6879 298.872C86.2825 298.68 85.9625 298.387 85.7279 297.992C85.4932 297.587 85.3759 297.08 85.3759 296.472C85.3759 295.576 85.7012 294.904 86.3519 294.456C87.0132 293.997 88.0105 293.747 89.3439 293.704L90.8479 293.656V293.224C90.8479 292.669 90.7145 292.275 90.4479 292.04C90.1812 291.805 89.8079 291.688 89.3279 291.688C88.8905 291.688 88.4692 291.752 88.0639 291.88C87.6585 292.008 87.2639 292.157 86.8799 292.328L86.2399 290.92C86.6665 290.696 87.1519 290.515 87.6959 290.376C88.2505 290.237 88.8265 290.168 89.4239 290.168ZM89.7919 294.936C88.9065 294.968 88.2932 295.123 87.9519 295.4C87.6105 295.667 87.4399 296.029 87.4399 296.488C87.4399 296.893 87.5625 297.187 87.8079 297.368C88.0532 297.549 88.3679 297.64 88.7519 297.64C89.3385 297.64 89.8345 297.475 90.2399 297.144C90.6452 296.803 90.8479 296.301 90.8479 295.64V294.904L89.7919 294.936ZM98.8621 290.168C99.6408 290.168 100.307 290.328 100.862 290.648C101.427 290.957 101.865 291.405 102.174 291.992C102.483 292.568 102.638 293.272 102.638 294.104V295.128H96.9101C96.9315 295.917 97.1501 296.531 97.5661 296.968C97.9821 297.395 98.5581 297.608 99.2941 297.608C99.8595 297.608 100.361 297.555 100.798 297.448C101.246 297.331 101.705 297.165 102.174 296.952V298.568C101.747 298.771 101.305 298.92 100.846 299.016C100.387 299.112 99.8381 299.16 99.1981 299.16C98.3555 299.16 97.6035 299 96.9421 298.68C96.2915 298.349 95.7795 297.853 95.4061 297.192C95.0435 296.531 94.8621 295.709 94.8621 294.728C94.8621 293.736 95.0275 292.904 95.3581 292.232C95.6995 291.549 96.1688 291.037 96.7661 290.696C97.3635 290.344 98.0621 290.168 98.8621 290.168ZM98.8621 291.656C98.3288 291.656 97.8915 291.832 97.5501 292.184C97.2195 292.525 97.0221 293.037 96.9581 293.72H100.686C100.686 293.315 100.617 292.957 100.478 292.648C100.35 292.339 100.153 292.099 99.8861 291.928C99.6195 291.747 99.2781 291.656 98.8621 291.656ZM111.407 291.88H108.559V299H106.559V291.88H103.727V290.328H111.407V291.88ZM121.778 290.168C122.791 290.168 123.607 290.547 124.226 291.304C124.845 292.051 125.154 293.165 125.154 294.648C125.154 295.629 125.01 296.456 124.722 297.128C124.434 297.8 124.034 298.307 123.522 298.648C123.01 298.989 122.413 299.16 121.73 299.16C121.314 299.16 120.946 299.107 120.626 299C120.306 298.883 120.034 298.739 119.81 298.568C119.586 298.387 119.394 298.195 119.234 297.992H119.106C119.149 298.184 119.181 298.403 119.202 298.648C119.223 298.883 119.234 299.107 119.234 299.32V302.84H117.218V290.328H118.85L119.138 291.48H119.234C119.394 291.235 119.586 291.016 119.81 290.824C120.045 290.621 120.322 290.461 120.642 290.344C120.973 290.227 121.351 290.168 121.778 290.168ZM121.202 291.8C120.733 291.8 120.354 291.896 120.066 292.088C119.778 292.269 119.57 292.552 119.442 292.936C119.314 293.32 119.245 293.8 119.234 294.376V294.632C119.234 295.251 119.293 295.773 119.41 296.2C119.538 296.627 119.746 296.952 120.034 297.176C120.333 297.4 120.733 297.512 121.234 297.512C121.661 297.512 122.007 297.395 122.274 297.16C122.551 296.925 122.754 296.595 122.882 296.168C123.021 295.731 123.09 295.213 123.09 294.616C123.09 293.72 122.935 293.027 122.626 292.536C122.327 292.045 121.853 291.8 121.202 291.8ZM125.781 290.328H127.973L129.701 295.224C129.776 295.437 129.84 295.645 129.893 295.848C129.957 296.04 130.011 296.237 130.053 296.44C130.096 296.643 130.128 296.845 130.149 297.048H130.213C130.256 296.781 130.32 296.488 130.405 296.168C130.501 295.848 130.597 295.533 130.693 295.224L132.357 290.328H134.533L130.837 300.152C130.624 300.717 130.352 301.203 130.021 301.608C129.701 302.013 129.317 302.317 128.869 302.52C128.432 302.733 127.936 302.84 127.381 302.84C127.125 302.84 126.896 302.824 126.693 302.792C126.501 302.771 126.331 302.744 126.181 302.712V301.112C126.299 301.133 126.437 301.155 126.597 301.176C126.768 301.197 126.944 301.208 127.125 301.208C127.456 301.208 127.739 301.139 127.973 301C128.219 300.872 128.421 300.691 128.581 300.456C128.752 300.221 128.891 299.96 128.997 299.672L129.253 298.968L125.781 290.328ZM141.299 290.328H143.523L139.987 294.488L143.827 299H141.523L137.843 294.6V299H135.827V290.328H137.843V294.536L141.299 290.328ZM152.618 294.648C152.618 295.373 152.522 296.013 152.33 296.568C152.138 297.123 151.861 297.597 151.498 297.992C151.146 298.376 150.709 298.669 150.186 298.872C149.674 299.064 149.103 299.16 148.474 299.16C147.877 299.16 147.327 299.064 146.826 298.872C146.325 298.669 145.887 298.376 145.514 297.992C145.151 297.597 144.869 297.123 144.666 296.568C144.463 296.013 144.362 295.373 144.362 294.648C144.362 293.688 144.527 292.877 144.858 292.216C145.189 291.544 145.663 291.037 146.282 290.696C146.911 290.344 147.653 290.168 148.506 290.168C149.317 290.168 150.026 290.344 150.634 290.696C151.253 291.037 151.738 291.544 152.09 292.216C152.442 292.877 152.618 293.688 152.618 294.648ZM146.426 294.648C146.426 295.256 146.495 295.779 146.634 296.216C146.783 296.643 147.007 296.968 147.306 297.192C147.615 297.416 148.01 297.528 148.49 297.528C148.981 297.528 149.375 297.416 149.674 297.192C149.983 296.968 150.207 296.643 150.346 296.216C150.485 295.779 150.554 295.256 150.554 294.648C150.554 294.029 150.479 293.512 150.33 293.096C150.191 292.669 149.967 292.349 149.658 292.136C149.359 291.912 148.97 291.8 148.49 291.8C147.765 291.8 147.237 292.045 146.906 292.536C146.586 293.027 146.426 293.731 146.426 294.648ZM162.126 292.568C162.126 293.059 161.972 293.464 161.662 293.784C161.364 294.104 160.937 294.312 160.382 294.408V294.472C160.969 294.547 161.449 294.749 161.822 295.08C162.206 295.4 162.398 295.848 162.398 296.424C162.398 296.797 162.324 297.144 162.174 297.464C162.036 297.773 161.817 298.045 161.518 298.28C161.23 298.504 160.852 298.68 160.382 298.808C159.913 298.936 159.348 299 158.686 299H154.702V290.328H158.67C159.332 290.328 159.918 290.397 160.43 290.536C160.953 290.675 161.364 290.909 161.662 291.24C161.972 291.56 162.126 292.003 162.126 292.568ZM160.302 296.344C160.302 295.949 160.148 295.667 159.838 295.496C159.54 295.315 159.086 295.224 158.478 295.224H156.718V297.544H158.526C159.07 297.544 159.502 297.453 159.822 297.272C160.142 297.091 160.302 296.781 160.302 296.344ZM160.078 292.744C160.078 292.424 159.956 292.189 159.71 292.04C159.465 291.891 159.092 291.816 158.59 291.816H156.718V293.768H158.318C158.894 293.768 159.332 293.688 159.63 293.528C159.929 293.368 160.078 293.107 160.078 292.744ZM172.196 294.648C172.196 295.373 172.1 296.013 171.908 296.568C171.716 297.123 171.439 297.597 171.076 297.992C170.724 298.376 170.287 298.669 169.764 298.872C169.252 299.064 168.682 299.16 168.052 299.16C167.455 299.16 166.906 299.064 166.404 298.872C165.903 298.669 165.466 298.376 165.092 297.992C164.73 297.597 164.447 297.123 164.244 296.568C164.042 296.013 163.94 295.373 163.94 294.648C163.94 293.688 164.106 292.877 164.436 292.216C164.767 291.544 165.242 291.037 165.86 290.696C166.49 290.344 167.231 290.168 168.084 290.168C168.895 290.168 169.604 290.344 170.212 290.696C170.831 291.037 171.316 291.544 171.668 292.216C172.02 292.877 172.196 293.688 172.196 294.648ZM166.004 294.648C166.004 295.256 166.074 295.779 166.212 296.216C166.362 296.643 166.586 296.968 166.884 297.192C167.194 297.416 167.588 297.528 168.068 297.528C168.559 297.528 168.954 297.416 169.252 297.192C169.562 296.968 169.786 296.643 169.924 296.216C170.063 295.779 170.132 295.256 170.132 294.648C170.132 294.029 170.058 293.512 169.908 293.096C169.77 292.669 169.546 292.349 169.236 292.136C168.938 291.912 168.548 291.8 168.068 291.8C167.343 291.8 166.815 292.045 166.484 292.536C166.164 293.027 166.004 293.731 166.004 294.648ZM181.576 290.328V297.464H182.84V302.072H180.984V299H175.08V302.072H173.24V297.464H173.96C174.387 296.845 174.744 296.152 175.032 295.384C175.32 294.605 175.544 293.784 175.704 292.92C175.864 292.056 175.971 291.192 176.024 290.328H181.576ZM177.736 291.864C177.672 292.536 177.566 293.208 177.416 293.88C177.267 294.541 177.08 295.176 176.856 295.784C176.632 296.392 176.366 296.952 176.056 297.464H179.576V291.864H177.736ZM186.341 294.456C186.341 294.605 186.331 294.797 186.309 295.032C186.299 295.256 186.288 295.496 186.277 295.752C186.267 295.997 186.251 296.221 186.229 296.424C186.219 296.616 186.208 296.76 186.197 296.856L190.437 290.328H192.869V299H190.933V294.92C190.933 294.675 190.939 294.392 190.949 294.072C190.971 293.752 190.992 293.448 191.013 293.16C191.035 292.861 191.051 292.637 191.061 292.488L186.837 299H184.405V290.328H186.341V294.456ZM202.204 291.88H199.356V299H197.356V291.88H194.524V290.328H202.204V291.88ZM207.19 290.168C207.969 290.168 208.636 290.328 209.19 290.648C209.756 290.957 210.193 291.405 210.502 291.992C210.812 292.568 210.966 293.272 210.966 294.104V295.128H205.238C205.26 295.917 205.478 296.531 205.894 296.968C206.31 297.395 206.886 297.608 207.622 297.608C208.188 297.608 208.689 297.555 209.126 297.448C209.574 297.331 210.033 297.165 210.502 296.952V298.568C210.076 298.771 209.633 298.92 209.174 299.016C208.716 299.112 208.166 299.16 207.526 299.16C206.684 299.16 205.932 299 205.27 298.68C204.62 298.349 204.108 297.853 203.734 297.192C203.372 296.531 203.19 295.709 203.19 294.728C203.19 293.736 203.356 292.904 203.686 292.232C204.028 291.549 204.497 291.037 205.094 290.696C205.692 290.344 206.39 290.168 207.19 290.168ZM207.19 291.656C206.657 291.656 206.22 291.832 205.878 292.184C205.548 292.525 205.35 293.037 205.286 293.72H209.014C209.014 293.315 208.945 292.957 208.806 292.648C208.678 292.339 208.481 292.099 208.214 291.928C207.948 291.747 207.606 291.656 207.19 291.656ZM220.327 299H218.311V291.88H215.991C215.884 293.192 215.751 294.307 215.591 295.224C215.431 296.141 215.234 296.893 214.999 297.48C214.764 298.056 214.471 298.477 214.119 298.744C213.778 299.011 213.362 299.144 212.871 299.144C212.647 299.144 212.439 299.128 212.247 299.096C212.055 299.064 211.89 299.011 211.751 298.936V297.352C211.847 297.384 211.948 297.416 212.055 297.448C212.162 297.469 212.274 297.48 212.391 297.48C212.572 297.48 212.738 297.411 212.887 297.272C213.047 297.123 213.191 296.883 213.319 296.552C213.458 296.211 213.586 295.763 213.703 295.208C213.82 294.653 213.922 293.976 214.007 293.176C214.103 292.365 214.188 291.416 214.263 290.328H220.327V299ZM226.937 293.752C227.78 293.752 228.473 293.848 229.017 294.04C229.572 294.221 229.982 294.499 230.249 294.872C230.526 295.245 230.665 295.715 230.665 296.28C230.665 296.835 230.537 297.315 230.281 297.72C230.025 298.125 229.625 298.44 229.081 298.664C228.548 298.888 227.844 299 226.969 299H222.921V290.328H224.937V293.752H226.937ZM228.649 296.328C228.649 295.912 228.494 295.624 228.185 295.464C227.876 295.304 227.428 295.224 226.841 295.224H224.937V297.544H226.873C227.396 297.544 227.822 297.453 228.153 297.272C228.484 297.08 228.649 296.765 228.649 296.328ZM61.768 312.328H63.992L60.456 316.488L64.296 321H61.992L58.312 316.6V321H56.296V312.328H58.312V316.536L61.768 312.328ZM73.0869 316.648C73.0869 317.373 72.9909 318.013 72.7989 318.568C72.6069 319.123 72.3295 319.597 71.9669 319.992C71.6149 320.376 71.1775 320.669 70.6549 320.872C70.1429 321.064 69.5722 321.16 68.9429 321.16C68.3455 321.16 67.7962 321.064 67.2949 320.872C66.7935 320.669 66.3562 320.376 65.9829 319.992C65.6202 319.597 65.3375 319.123 65.1349 318.568C64.9322 318.013 64.8309 317.373 64.8309 316.648C64.8309 315.688 64.9962 314.877 65.3269 314.216C65.6575 313.544 66.1322 313.037 66.7509 312.696C67.3802 312.344 68.1215 312.168 68.9749 312.168C69.7855 312.168 70.4949 312.344 71.1029 312.696C71.7215 313.037 72.2069 313.544 72.5589 314.216C72.9109 314.877 73.0869 315.688 73.0869 316.648ZM66.8949 316.648C66.8949 317.256 66.9642 317.779 67.1029 318.216C67.2522 318.643 67.4762 318.968 67.7749 319.192C68.0842 319.416 68.4789 319.528 68.9589 319.528C69.4495 319.528 69.8442 319.416 70.1429 319.192C70.4522 318.968 70.6762 318.643 70.8149 318.216C70.9535 317.779 71.0229 317.256 71.0229 316.648C71.0229 316.029 70.9482 315.512 70.7989 315.096C70.6602 314.669 70.4362 314.349 70.1269 314.136C69.8282 313.912 69.4389 313.8 68.9589 313.8C68.2335 313.8 67.7055 314.045 67.3749 314.536C67.0549 315.027 66.8949 315.731 66.8949 316.648ZM82.499 321H80.483V313.88H78.163C78.0563 315.192 77.923 316.307 77.763 317.224C77.603 318.141 77.4057 318.893 77.171 319.48C76.9363 320.056 76.643 320.477 76.291 320.744C75.9497 321.011 75.5337 321.144 75.043 321.144C74.819 321.144 74.611 321.128 74.419 321.096C74.227 321.064 74.0617 321.011 73.923 320.936V319.352C74.019 319.384 74.1203 319.416 74.227 319.448C74.3337 319.469 74.4457 319.48 74.563 319.48C74.7443 319.48 74.9097 319.411 75.059 319.272C75.219 319.123 75.363 318.883 75.491 318.552C75.6297 318.211 75.7577 317.763 75.875 317.208C75.9923 316.653 76.0937 315.976 76.179 315.176C76.275 314.365 76.3603 313.416 76.435 312.328H82.499V321ZM92.4209 321H90.4049V313.88H88.0849C87.9782 315.192 87.8449 316.307 87.6849 317.224C87.5249 318.141 87.3275 318.893 87.0929 319.48C86.8582 320.056 86.5649 320.477 86.2129 320.744C85.8715 321.011 85.4555 321.144 84.9649 321.144C84.7409 321.144 84.5329 321.128 84.3409 321.096C84.1489 321.064 83.9835 321.011 83.8449 320.936V319.352C83.9409 319.384 84.0422 319.416 84.1489 319.448C84.2555 319.469 84.3675 319.48 84.4849 319.48C84.6662 319.48 84.8315 319.411 84.9809 319.272C85.1409 319.123 85.2849 318.883 85.4129 318.552C85.5515 318.211 85.6795 317.763 85.7969 317.208C85.9142 316.653 86.0155 315.976 86.1009 315.176C86.1969 314.365 86.2822 313.416 86.3569 312.328H92.4209V321ZM98.5028 312.168C99.2814 312.168 99.9481 312.328 100.503 312.648C101.068 312.957 101.505 313.405 101.815 313.992C102.124 314.568 102.279 315.272 102.279 316.104V317.128H96.5508C96.5721 317.917 96.7908 318.531 97.2068 318.968C97.6228 319.395 98.1988 319.608 98.9348 319.608C99.5001 319.608 100.001 319.555 100.439 319.448C100.887 319.331 101.345 319.165 101.815 318.952V320.568C101.388 320.771 100.945 320.92 100.487 321.016C100.028 321.112 99.4788 321.16 98.8388 321.16C97.9961 321.16 97.2441 321 96.5828 320.68C95.9321 320.349 95.4201 319.853 95.0468 319.192C94.6841 318.531 94.5028 317.709 94.5028 316.728C94.5028 315.736 94.6681 314.904 94.9988 314.232C95.3401 313.549 95.8094 313.037 96.4068 312.696C97.0041 312.344 97.7028 312.168 98.5028 312.168ZM98.5028 313.656C97.9694 313.656 97.5321 313.832 97.1908 314.184C96.8601 314.525 96.6628 315.037 96.5988 315.72H100.327C100.327 315.315 100.257 314.957 100.119 314.648C99.9908 314.339 99.7934 314.099 99.5268 313.928C99.2601 313.747 98.9188 313.656 98.5028 313.656ZM110.04 312.328V313.88H106.328V321H104.312V312.328H110.04ZM113.623 316.456C113.623 316.605 113.612 316.797 113.591 317.032C113.58 317.256 113.569 317.496 113.559 317.752C113.548 317.997 113.532 318.221 113.511 318.424C113.5 318.616 113.489 318.76 113.479 318.856L117.719 312.328H120.151V321H118.215V316.92C118.215 316.675 118.22 316.392 118.231 316.072C118.252 315.752 118.273 315.448 118.295 315.16C118.316 314.861 118.332 314.637 118.343 314.488L114.119 321H111.687V312.328H113.623V316.456ZM126.205 312.168C127.325 312.168 128.173 312.413 128.749 312.904C129.336 313.384 129.629 314.141 129.629 315.176V321H128.205L127.805 319.8H127.741C127.496 320.109 127.24 320.371 126.973 320.584C126.717 320.787 126.418 320.931 126.077 321.016C125.746 321.112 125.341 321.16 124.861 321.16C124.349 321.16 123.885 321.064 123.469 320.872C123.064 320.68 122.744 320.387 122.509 319.992C122.274 319.587 122.157 319.08 122.157 318.472C122.157 317.576 122.482 316.904 123.133 316.456C123.794 315.997 124.792 315.747 126.125 315.704L127.629 315.656V315.224C127.629 314.669 127.496 314.275 127.229 314.04C126.962 313.805 126.589 313.688 126.109 313.688C125.672 313.688 125.25 313.752 124.845 313.88C124.44 314.008 124.045 314.157 123.661 314.328L123.021 312.92C123.448 312.696 123.933 312.515 124.477 312.376C125.032 312.237 125.608 312.168 126.205 312.168ZM126.573 316.936C125.688 316.968 125.074 317.123 124.733 317.4C124.392 317.667 124.221 318.029 124.221 318.488C124.221 318.893 124.344 319.187 124.589 319.368C124.834 319.549 125.149 319.64 125.533 319.64C126.12 319.64 126.616 319.475 127.021 319.144C127.426 318.803 127.629 318.301 127.629 317.64V316.904L126.573 316.936ZM139.483 321H137.467V313.88H135.147C135.041 315.192 134.907 316.307 134.747 317.224C134.587 318.141 134.39 318.893 134.155 319.48C133.921 320.056 133.627 320.477 133.275 320.744C132.934 321.011 132.518 321.144 132.027 321.144C131.803 321.144 131.595 321.128 131.403 321.096C131.211 321.064 131.046 321.011 130.907 320.936V319.352C131.003 319.384 131.105 319.416 131.211 319.448C131.318 319.469 131.43 319.48 131.547 319.48C131.729 319.48 131.894 319.411 132.043 319.272C132.203 319.123 132.347 318.883 132.475 318.552C132.614 318.211 132.742 317.763 132.859 317.208C132.977 316.653 133.078 315.976 133.163 315.176C133.259 314.365 133.345 313.416 133.419 312.328H139.483V321ZM146.093 315.752C146.936 315.752 147.629 315.848 148.173 316.04C148.728 316.221 149.139 316.499 149.405 316.872C149.683 317.245 149.821 317.715 149.821 318.28C149.821 318.835 149.693 319.315 149.437 319.72C149.181 320.125 148.781 320.44 148.237 320.664C147.704 320.888 147 321 146.125 321H142.077V312.328H144.093V315.752H146.093ZM147.805 318.328C147.805 317.912 147.651 317.624 147.341 317.464C147.032 317.304 146.584 317.224 145.997 317.224H144.093V319.544H146.029C146.552 319.544 146.979 319.453 147.309 319.272C147.64 319.08 147.805 318.765 147.805 318.328ZM153.796 312.328V315.768H157.62V312.328H159.636V321H157.62V317.32H153.796V321H151.78V312.328H153.796ZM169.977 316.648C169.977 317.373 169.882 318.013 169.69 318.568C169.498 319.123 169.22 319.597 168.858 319.992C168.506 320.376 168.068 320.669 167.546 320.872C167.034 321.064 166.463 321.16 165.834 321.16C165.236 321.16 164.687 321.064 164.186 320.872C163.684 320.669 163.247 320.376 162.874 319.992C162.511 319.597 162.228 319.123 162.026 318.568C161.823 318.013 161.722 317.373 161.722 316.648C161.722 315.688 161.887 314.877 162.218 314.216C162.548 313.544 163.023 313.037 163.642 312.696C164.271 312.344 165.012 312.168 165.866 312.168C166.676 312.168 167.386 312.344 167.994 312.696C168.612 313.037 169.098 313.544 169.45 314.216C169.802 314.877 169.977 315.688 169.977 316.648ZM163.786 316.648C163.786 317.256 163.855 317.779 163.994 318.216C164.143 318.643 164.367 318.968 164.666 319.192C164.975 319.416 165.37 319.528 165.85 319.528C166.34 319.528 166.735 319.416 167.034 319.192C167.343 318.968 167.567 318.643 167.706 318.216C167.844 317.779 167.914 317.256 167.914 316.648C167.914 316.029 167.839 315.512 167.69 315.096C167.551 314.669 167.327 314.349 167.018 314.136C166.719 313.912 166.33 313.8 165.85 313.8C165.124 313.8 164.596 314.045 164.266 314.536C163.946 315.027 163.786 315.731 163.786 316.648ZM177.79 312.328V313.88H174.078V321H172.062V312.328H177.79ZM187.024 316.648C187.024 317.373 186.928 318.013 186.736 318.568C186.544 319.123 186.267 319.597 185.904 319.992C185.552 320.376 185.115 320.669 184.592 320.872C184.08 321.064 183.51 321.16 182.88 321.16C182.283 321.16 181.734 321.064 181.232 320.872C180.731 320.669 180.294 320.376 179.92 319.992C179.558 319.597 179.275 319.123 179.072 318.568C178.87 318.013 178.768 317.373 178.768 316.648C178.768 315.688 178.934 314.877 179.264 314.216C179.595 313.544 180.07 313.037 180.688 312.696C181.318 312.344 182.059 312.168 182.912 312.168C183.723 312.168 184.432 312.344 185.04 312.696C185.659 313.037 186.144 313.544 186.496 314.216C186.848 314.877 187.024 315.688 187.024 316.648ZM180.832 316.648C180.832 317.256 180.902 317.779 181.04 318.216C181.19 318.643 181.414 318.968 181.712 319.192C182.022 319.416 182.416 319.528 182.896 319.528C183.387 319.528 183.782 319.416 184.08 319.192C184.39 318.968 184.614 318.643 184.752 318.216C184.891 317.779 184.96 317.256 184.96 316.648C184.96 316.029 184.886 315.512 184.736 315.096C184.598 314.669 184.374 314.349 184.064 314.136C183.766 313.912 183.376 313.8 182.896 313.8C182.171 313.8 181.643 314.045 181.312 314.536C180.992 315.027 180.832 315.731 180.832 316.648ZM201.009 316.648C201.009 317.373 200.913 318.013 200.721 318.568C200.529 319.123 200.251 319.597 199.889 319.992C199.537 320.376 199.099 320.669 198.577 320.872C198.065 321.064 197.494 321.16 196.865 321.16C196.267 321.16 195.718 321.064 195.217 320.872C194.715 320.669 194.278 320.376 193.905 319.992C193.542 319.597 193.259 319.123 193.057 318.568C192.854 318.013 192.753 317.373 192.753 316.648C192.753 315.688 192.918 314.877 193.249 314.216C193.579 313.544 194.054 313.037 194.673 312.696C195.302 312.344 196.043 312.168 196.897 312.168C197.707 312.168 198.417 312.344 199.025 312.696C199.643 313.037 200.129 313.544 200.481 314.216C200.833 314.877 201.009 315.688 201.009 316.648ZM194.817 316.648C194.817 317.256 194.886 317.779 195.025 318.216C195.174 318.643 195.398 318.968 195.697 319.192C196.006 319.416 196.401 319.528 196.881 319.528C197.371 319.528 197.766 319.416 198.065 319.192C198.374 318.968 198.598 318.643 198.737 318.216C198.875 317.779 198.945 317.256 198.945 316.648C198.945 316.029 198.87 315.512 198.721 315.096C198.582 314.669 198.358 314.349 198.049 314.136C197.75 313.912 197.361 313.8 196.881 313.8C196.155 313.8 195.627 314.045 195.297 314.536C194.977 315.027 194.817 315.731 194.817 316.648ZM207.653 312.168C208.666 312.168 209.482 312.547 210.101 313.304C210.72 314.051 211.029 315.165 211.029 316.648C211.029 317.629 210.885 318.456 210.597 319.128C210.309 319.8 209.909 320.307 209.397 320.648C208.885 320.989 208.288 321.16 207.605 321.16C207.189 321.16 206.821 321.107 206.501 321C206.181 320.883 205.909 320.739 205.685 320.568C205.461 320.387 205.269 320.195 205.109 319.992H204.981C205.024 320.184 205.056 320.403 205.077 320.648C205.098 320.883 205.109 321.107 205.109 321.32V324.84H203.093V312.328H204.725L205.013 313.48H205.109C205.269 313.235 205.461 313.016 205.685 312.824C205.92 312.621 206.197 312.461 206.517 312.344C206.848 312.227 207.226 312.168 207.653 312.168ZM207.077 313.8C206.608 313.8 206.229 313.896 205.941 314.088C205.653 314.269 205.445 314.552 205.317 314.936C205.189 315.32 205.12 315.8 205.109 316.376V316.632C205.109 317.251 205.168 317.773 205.285 318.2C205.413 318.627 205.621 318.952 205.909 319.176C206.208 319.4 206.608 319.512 207.109 319.512C207.536 319.512 207.882 319.395 208.149 319.16C208.426 318.925 208.629 318.595 208.757 318.168C208.896 317.731 208.965 317.213 208.965 316.616C208.965 315.72 208.81 315.027 208.501 314.536C208.202 314.045 207.728 313.8 207.077 313.8ZM218.837 312.328V313.88H215.125V321H213.109V312.328H218.837ZM223.94 312.168C225.06 312.168 225.908 312.413 226.484 312.904C227.07 313.384 227.364 314.141 227.364 315.176V321H225.94L225.54 319.8H225.476C225.23 320.109 224.974 320.371 224.708 320.584C224.452 320.787 224.153 320.931 223.812 321.016C223.481 321.112 223.076 321.16 222.596 321.16C222.084 321.16 221.62 321.064 221.204 320.872C220.798 320.68 220.478 320.387 220.243 319.992C220.009 319.587 219.892 319.08 219.892 318.472C219.892 317.576 220.217 316.904 220.868 316.456C221.529 315.997 222.526 315.747 223.86 315.704L225.364 315.656V315.224C225.364 314.669 225.23 314.275 224.964 314.04C224.697 313.805 224.324 313.688 223.844 313.688C223.406 313.688 222.985 313.752 222.58 313.88C222.174 314.008 221.78 314.157 221.396 314.328L220.756 312.92C221.182 312.696 221.668 312.515 222.212 312.376C222.766 312.237 223.342 312.168 223.94 312.168ZM224.308 316.936C223.422 316.968 222.809 317.123 222.468 317.4C222.126 317.667 221.956 318.029 221.956 318.488C221.956 318.893 222.078 319.187 222.324 319.368C222.569 319.549 222.884 319.64 223.268 319.64C223.854 319.64 224.35 319.475 224.756 319.144C225.161 318.803 225.364 318.301 225.364 317.64V316.904L224.308 316.936ZM231.906 312.328V315.768H235.73V312.328H237.746V321H235.73V317.32H231.906V321H229.89V312.328H231.906ZM243.799 312.168C244.919 312.168 245.767 312.413 246.343 312.904C246.93 313.384 247.223 314.141 247.223 315.176V321H245.799L245.399 319.8H245.335C245.09 320.109 244.834 320.371 244.567 320.584C244.311 320.787 244.012 320.931 243.671 321.016C243.34 321.112 242.935 321.16 242.455 321.16C241.943 321.16 241.479 321.064 241.063 320.872C240.658 320.68 240.338 320.387 240.103 319.992C239.868 319.587 239.751 319.08 239.751 318.472C239.751 317.576 240.076 316.904 240.727 316.456C241.388 315.997 242.386 315.747 243.719 315.704L245.223 315.656V315.224C245.223 314.669 245.09 314.275 244.823 314.04C244.556 313.805 244.183 313.688 243.703 313.688C243.266 313.688 242.844 313.752 242.439 313.88C242.034 314.008 241.639 314.157 241.255 314.328L240.615 312.92C241.042 312.696 241.527 312.515 242.071 312.376C242.626 312.237 243.202 312.168 243.799 312.168ZM244.167 316.936C243.282 316.968 242.668 317.123 242.327 317.4C241.986 317.667 241.815 318.029 241.815 318.488C241.815 318.893 241.938 319.187 242.183 319.368C242.428 319.549 242.743 319.64 243.127 319.64C243.714 319.64 244.21 319.475 244.615 319.144C245.02 318.803 245.223 318.301 245.223 317.64V316.904L244.167 316.936ZM62.024 334.328V335.88H58.312V343H56.296V334.328H62.024ZM71.2587 338.648C71.2587 339.373 71.1628 340.013 70.9708 340.568C70.7788 341.123 70.5014 341.597 70.1388 341.992C69.7868 342.376 69.3494 342.669 68.8268 342.872C68.3148 343.064 67.7441 343.16 67.1148 343.16C66.5174 343.16 65.9681 343.064 65.4668 342.872C64.9654 342.669 64.5281 342.376 64.1548 341.992C63.7921 341.597 63.5094 341.123 63.3068 340.568C63.1041 340.013 63.0028 339.373 63.0028 338.648C63.0028 337.688 63.1681 336.877 63.4988 336.216C63.8294 335.544 64.3041 335.037 64.9228 334.696C65.5521 334.344 66.2934 334.168 67.1468 334.168C67.9574 334.168 68.6668 334.344 69.2748 334.696C69.8934 335.037 70.3788 335.544 70.7308 336.216C71.0828 336.877 71.2587 337.688 71.2587 338.648ZM65.0668 338.648C65.0668 339.256 65.1361 339.779 65.2748 340.216C65.4241 340.643 65.6481 340.968 65.9468 341.192C66.2561 341.416 66.6508 341.528 67.1308 341.528C67.6214 341.528 68.0161 341.416 68.3148 341.192C68.6241 340.968 68.8481 340.643 68.9868 340.216C69.1254 339.779 69.1948 339.256 69.1948 338.648C69.1948 338.029 69.1201 337.512 68.9708 337.096C68.8321 336.669 68.6081 336.349 68.2988 336.136C68.0001 335.912 67.6108 335.8 67.1308 335.8C66.4054 335.8 65.8774 336.045 65.5468 336.536C65.2268 337.027 65.0668 337.731 65.0668 338.648ZM76.8469 343.16C76.0255 343.16 75.3109 343.005 74.7029 342.696C74.1055 342.376 73.6415 341.891 73.3109 341.24C72.9909 340.579 72.8309 339.736 72.8309 338.712C72.8309 337.645 73.0069 336.781 73.3589 336.12C73.7215 335.448 74.2175 334.957 74.8469 334.648C75.4762 334.328 76.1962 334.168 77.0069 334.168C77.5509 334.168 78.0362 334.221 78.4629 334.328C78.8895 334.435 79.2522 334.563 79.5509 334.712L78.9589 336.296C78.6282 336.168 78.2975 336.061 77.9669 335.976C77.6362 335.88 77.3162 335.832 77.0069 335.832C76.5269 335.832 76.1269 335.939 75.8069 336.152C75.4975 336.365 75.2682 336.685 75.1189 337.112C74.9695 337.528 74.8949 338.056 74.8949 338.696C74.8949 339.315 74.9695 339.832 75.1189 340.248C75.2789 340.664 75.5135 340.979 75.8229 341.192C76.1322 341.395 76.5162 341.496 76.9749 341.496C77.4655 341.496 77.8975 341.437 78.2709 341.32C78.6442 341.203 78.9962 341.043 79.3269 340.84V342.584C78.9962 342.787 78.6389 342.931 78.2549 343.016C77.8815 343.112 77.4122 343.16 76.8469 343.16ZM80.0625 334.328H82.2545L83.9825 339.224C84.0572 339.437 84.1212 339.645 84.1745 339.848C84.2385 340.04 84.2918 340.237 84.3345 340.44C84.3772 340.643 84.4092 340.845 84.4305 341.048H84.4945C84.5372 340.781 84.6012 340.488 84.6865 340.168C84.7825 339.848 84.8785 339.533 84.9745 339.224L86.6385 334.328H88.8145L85.1185 344.152C84.9052 344.717 84.6332 345.203 84.3025 345.608C83.9825 346.013 83.5985 346.317 83.1505 346.52C82.7132 346.733 82.2172 346.84 81.6625 346.84C81.4065 346.84 81.1772 346.824 80.9745 346.792C80.7825 346.771 80.6118 346.744 80.4625 346.712V345.112C80.5798 345.133 80.7185 345.155 80.8785 345.176C81.0492 345.197 81.2252 345.208 81.4065 345.208C81.7372 345.208 82.0198 345.139 82.2545 345C82.4998 344.872 82.7025 344.691 82.8625 344.456C83.0332 344.221 83.1718 343.96 83.2785 343.672L83.5345 342.968L80.0625 334.328ZM97.092 334.328V341.464H98.356V346.072H96.5V343H90.596V346.072H88.756V341.464H89.476C89.9027 340.845 90.26 340.152 90.548 339.384C90.836 338.605 91.06 337.784 91.22 336.92C91.38 336.056 91.4867 335.192 91.54 334.328H97.092ZM93.252 335.864C93.188 336.536 93.0813 337.208 92.932 337.88C92.7827 338.541 92.596 339.176 92.372 339.784C92.148 340.392 91.8813 340.952 91.572 341.464H95.092V335.864H93.252ZM103.377 334.168C104.497 334.168 105.345 334.413 105.921 334.904C106.508 335.384 106.801 336.141 106.801 337.176V343H105.377L104.977 341.8H104.913C104.668 342.109 104.412 342.371 104.145 342.584C103.889 342.787 103.59 342.931 103.249 343.016C102.918 343.112 102.513 343.16 102.033 343.16C101.521 343.16 101.057 343.064 100.641 342.872C100.236 342.68 99.9157 342.387 99.681 341.992C99.4463 341.587 99.329 341.08 99.329 340.472C99.329 339.576 99.6543 338.904 100.305 338.456C100.966 337.997 101.964 337.747 103.297 337.704L104.801 337.656V337.224C104.801 336.669 104.668 336.275 104.401 336.04C104.134 335.805 103.761 335.688 103.281 335.688C102.844 335.688 102.422 335.752 102.017 335.88C101.612 336.008 101.217 336.157 100.833 336.328L100.193 334.92C100.62 334.696 101.105 334.515 101.649 334.376C102.204 334.237 102.78 334.168 103.377 334.168ZM103.745 338.936C102.86 338.968 102.246 339.123 101.905 339.4C101.564 339.667 101.393 340.029 101.393 340.488C101.393 340.893 101.516 341.187 101.761 341.368C102.006 341.549 102.321 341.64 102.705 341.64C103.292 341.64 103.788 341.475 104.193 341.144C104.598 340.803 104.801 340.301 104.801 339.64V338.904L103.745 338.936ZM113.887 334.168C114.901 334.168 115.717 334.547 116.335 335.304C116.954 336.051 117.263 337.165 117.263 338.648C117.263 339.629 117.119 340.456 116.831 341.128C116.543 341.8 116.143 342.307 115.631 342.648C115.119 342.989 114.522 343.16 113.839 343.16C113.423 343.16 113.055 343.107 112.735 343C112.415 342.883 112.143 342.739 111.919 342.568C111.695 342.387 111.503 342.195 111.343 341.992H111.215C111.258 342.184 111.29 342.403 111.311 342.648C111.333 342.883 111.343 343.107 111.343 343.32V346.84H109.327V334.328H110.959L111.247 335.48H111.343C111.503 335.235 111.695 335.016 111.919 334.824C112.154 334.621 112.431 334.461 112.751 334.344C113.082 334.227 113.461 334.168 113.887 334.168ZM113.311 335.8C112.842 335.8 112.463 335.896 112.175 336.088C111.887 336.269 111.679 336.552 111.551 336.936C111.423 337.32 111.354 337.8 111.343 338.376V338.632C111.343 339.251 111.402 339.773 111.519 340.2C111.647 340.627 111.855 340.952 112.143 341.176C112.442 341.4 112.842 341.512 113.343 341.512C113.77 341.512 114.117 341.395 114.383 341.16C114.661 340.925 114.863 340.595 114.991 340.168C115.13 339.731 115.199 339.213 115.199 338.616C115.199 337.72 115.045 337.027 114.735 336.536C114.437 336.045 113.962 335.8 113.311 335.8ZM122.847 343.16C122.026 343.16 121.311 343.005 120.703 342.696C120.106 342.376 119.642 341.891 119.311 341.24C118.991 340.579 118.831 339.736 118.831 338.712C118.831 337.645 119.007 336.781 119.359 336.12C119.722 335.448 120.218 334.957 120.847 334.648C121.476 334.328 122.196 334.168 123.007 334.168C123.551 334.168 124.036 334.221 124.463 334.328C124.89 334.435 125.252 334.563 125.551 334.712L124.959 336.296C124.628 336.168 124.298 336.061 123.967 335.976C123.636 335.88 123.316 335.832 123.007 335.832C122.527 335.832 122.127 335.939 121.807 336.152C121.498 336.365 121.268 336.685 121.119 337.112C120.97 337.528 120.895 338.056 120.895 338.696C120.895 339.315 120.97 339.832 121.119 340.248C121.279 340.664 121.514 340.979 121.823 341.192C122.132 341.395 122.516 341.496 122.975 341.496C123.466 341.496 123.898 341.437 124.271 341.32C124.644 341.203 124.996 341.043 125.327 340.84V342.584C124.996 342.787 124.639 342.931 124.255 343.016C123.882 343.112 123.412 343.16 122.847 343.16ZM134.095 335.88H131.247V343H129.247V335.88H126.415V334.328H134.095V335.88ZM143.173 336.568C143.173 337.059 143.018 337.464 142.709 337.784C142.41 338.104 141.984 338.312 141.429 338.408V338.472C142.016 338.547 142.496 338.749 142.869 339.08C143.253 339.4 143.445 339.848 143.445 340.424C143.445 340.797 143.37 341.144 143.221 341.464C143.082 341.773 142.864 342.045 142.565 342.28C142.277 342.504 141.898 342.68 141.429 342.808C140.96 342.936 140.394 343 139.733 343H135.749V334.328H139.717C140.378 334.328 140.965 334.397 141.477 334.536C142 334.675 142.41 334.909 142.709 335.24C143.018 335.56 143.173 336.003 143.173 336.568ZM141.349 340.344C141.349 339.949 141.194 339.667 140.885 339.496C140.586 339.315 140.133 339.224 139.525 339.224H137.765V341.544H139.573C140.117 341.544 140.549 341.453 140.869 341.272C141.189 341.091 141.349 340.781 141.349 340.344ZM141.125 336.744C141.125 336.424 141.002 336.189 140.757 336.04C140.512 335.891 140.138 335.816 139.637 335.816H137.765V337.768H139.365C139.941 337.768 140.378 337.688 140.677 337.528C140.976 337.368 141.125 337.107 141.125 336.744ZM148.987 334.168C149.766 334.168 150.432 334.328 150.987 334.648C151.552 334.957 151.99 335.405 152.299 335.992C152.608 336.568 152.763 337.272 152.763 338.104V339.128H147.035C147.056 339.917 147.275 340.531 147.691 340.968C148.107 341.395 148.683 341.608 149.419 341.608C149.984 341.608 150.486 341.555 150.923 341.448C151.371 341.331 151.83 341.165 152.299 340.952V342.568C151.872 342.771 151.43 342.92 150.971 343.016C150.512 343.112 149.963 343.16 149.323 343.16C148.48 343.16 147.728 343 147.067 342.68C146.416 342.349 145.904 341.853 145.531 341.192C145.168 340.531 144.987 339.709 144.987 338.728C144.987 337.736 145.152 336.904 145.483 336.232C145.824 335.549 146.294 335.037 146.891 334.696C147.488 334.344 148.187 334.168 148.987 334.168ZM148.987 335.656C148.454 335.656 148.016 335.832 147.675 336.184C147.344 336.525 147.147 337.037 147.083 337.72H150.811C150.811 337.315 150.742 336.957 150.603 336.648C150.475 336.339 150.278 336.099 150.011 335.928C149.744 335.747 149.403 335.656 148.987 335.656ZM156.812 334.328V337.768H160.636V334.328H162.652V343H160.636V339.32H156.812V343H154.796V334.328H156.812ZM167.265 334.328V337.768H171.089V334.328H173.105V343H171.089V339.32H167.265V343H165.249V334.328H167.265ZM183.446 338.648C183.446 339.373 183.35 340.013 183.158 340.568C182.966 341.123 182.689 341.597 182.326 341.992C181.974 342.376 181.537 342.669 181.014 342.872C180.502 343.064 179.932 343.16 179.302 343.16C178.705 343.16 178.156 343.064 177.654 342.872C177.153 342.669 176.716 342.376 176.342 341.992C175.98 341.597 175.697 341.123 175.494 340.568C175.292 340.013 175.19 339.373 175.19 338.648C175.19 337.688 175.356 336.877 175.686 336.216C176.017 335.544 176.492 335.037 177.11 334.696C177.74 334.344 178.481 334.168 179.334 334.168C180.145 334.168 180.854 334.344 181.462 334.696C182.081 335.037 182.566 335.544 182.918 336.216C183.27 336.877 183.446 337.688 183.446 338.648ZM177.254 338.648C177.254 339.256 177.324 339.779 177.462 340.216C177.612 340.643 177.836 340.968 178.134 341.192C178.444 341.416 178.838 341.528 179.318 341.528C179.809 341.528 180.204 341.416 180.502 341.192C180.812 340.968 181.036 340.643 181.174 340.216C181.313 339.779 181.382 339.256 181.382 338.648C181.382 338.029 181.308 337.512 181.158 337.096C181.02 336.669 180.796 336.349 180.486 336.136C180.188 335.912 179.798 335.8 179.318 335.8C178.593 335.8 178.065 336.045 177.734 336.536C177.414 337.027 177.254 337.731 177.254 338.648ZM191.258 334.328V335.88H187.546V343H185.53V334.328H191.258ZM200.493 338.648C200.493 339.373 200.397 340.013 200.205 340.568C200.013 341.123 199.736 341.597 199.373 341.992C199.021 342.376 198.584 342.669 198.061 342.872C197.549 343.064 196.978 343.16 196.349 343.16C195.752 343.16 195.202 343.064 194.701 342.872C194.2 342.669 193.762 342.376 193.389 341.992C193.026 341.597 192.744 341.123 192.541 340.568C192.338 340.013 192.237 339.373 192.237 338.648C192.237 337.688 192.402 336.877 192.733 336.216C193.064 335.544 193.538 335.037 194.157 334.696C194.786 334.344 195.528 334.168 196.381 334.168C197.192 334.168 197.901 334.344 198.509 334.696C199.128 335.037 199.613 335.544 199.965 336.216C200.317 336.877 200.493 337.688 200.493 338.648ZM194.301 338.648C194.301 339.256 194.37 339.779 194.509 340.216C194.658 340.643 194.882 340.968 195.181 341.192C195.49 341.416 195.885 341.528 196.365 341.528C196.856 341.528 197.25 341.416 197.549 341.192C197.858 340.968 198.082 340.643 198.221 340.216C198.36 339.779 198.429 339.256 198.429 338.648C198.429 338.029 198.354 337.512 198.205 337.096C198.066 336.669 197.842 336.349 197.533 336.136C197.234 335.912 196.845 335.8 196.365 335.8C195.64 335.8 195.112 336.045 194.781 336.536C194.461 337.027 194.301 337.731 194.301 338.648ZM55 356.328H57.192L58.92 361.224C58.9947 361.437 59.0587 361.645 59.112 361.848C59.176 362.04 59.2293 362.237 59.272 362.44C59.3147 362.643 59.3467 362.845 59.368 363.048H59.432C59.4747 362.781 59.5387 362.488 59.624 362.168C59.72 361.848 59.816 361.533 59.912 361.224L61.576 356.328H63.752L60.056 366.152C59.8427 366.717 59.5707 367.203 59.24 367.608C58.92 368.013 58.536 368.317 58.088 368.52C57.6507 368.733 57.1547 368.84 56.6 368.84C56.344 368.84 56.1147 368.824 55.912 368.792C55.72 368.771 55.5493 368.744 55.4 368.712V367.112C55.5173 367.133 55.656 367.155 55.816 367.176C55.9867 367.197 56.1627 367.208 56.344 367.208C56.6747 367.208 56.9573 367.139 57.192 367C57.4373 366.872 57.64 366.691 57.8 366.456C57.9707 366.221 58.1093 365.96 58.216 365.672L58.472 364.968L55 356.328ZM72.71 356.328V365H70.694V357.896H67.062V365H65.046V356.328H72.71ZM79.856 356.168C80.8693 356.168 81.6853 356.547 82.304 357.304C82.9227 358.051 83.232 359.165 83.232 360.648C83.232 361.629 83.088 362.456 82.8 363.128C82.512 363.8 82.112 364.307 81.6 364.648C81.088 364.989 80.4907 365.16 79.808 365.16C79.392 365.16 79.024 365.107 78.704 365C78.384 364.883 78.112 364.739 77.888 364.568C77.664 364.387 77.472 364.195 77.312 363.992H77.184C77.2267 364.184 77.2587 364.403 77.28 364.648C77.3013 364.883 77.312 365.107 77.312 365.32V368.84H75.296V356.328H76.928L77.216 357.48H77.312C77.472 357.235 77.664 357.016 77.888 356.824C78.1227 356.621 78.4 356.461 78.72 356.344C79.0507 356.227 79.4293 356.168 79.856 356.168ZM79.28 357.8C78.8107 357.8 78.432 357.896 78.144 358.088C77.856 358.269 77.648 358.552 77.52 358.936C77.392 359.32 77.3227 359.8 77.312 360.376V360.632C77.312 361.251 77.3707 361.773 77.488 362.2C77.616 362.627 77.824 362.952 78.112 363.176C78.4107 363.4 78.8107 363.512 79.312 363.512C79.7387 363.512 80.0853 363.395 80.352 363.16C80.6293 362.925 80.832 362.595 80.96 362.168C81.0987 361.731 81.168 361.213 81.168 360.616C81.168 359.72 81.0133 359.027 80.704 358.536C80.4053 358.045 79.9307 357.8 79.28 357.8ZM88.7676 356.168C89.8876 356.168 90.7356 356.413 91.3116 356.904C91.8983 357.384 92.1916 358.141 92.1916 359.176V365H90.7676L90.3676 363.8H90.3036C90.0583 364.109 89.8023 364.371 89.5356 364.584C89.2796 364.787 88.981 364.931 88.6396 365.016C88.309 365.112 87.9036 365.16 87.4236 365.16C86.9116 365.16 86.4476 365.064 86.0316 364.872C85.6263 364.68 85.3063 364.387 85.0716 363.992C84.837 363.587 84.7196 363.08 84.7196 362.472C84.7196 361.576 85.045 360.904 85.6956 360.456C86.357 359.997 87.3543 359.747 88.6876 359.704L90.1916 359.656V359.224C90.1916 358.669 90.0583 358.275 89.7916 358.04C89.525 357.805 89.1516 357.688 88.6716 357.688C88.2343 357.688 87.813 357.752 87.4076 357.88C87.0023 358.008 86.6076 358.157 86.2236 358.328L85.5836 356.92C86.0103 356.696 86.4956 356.515 87.0396 356.376C87.5943 356.237 88.1703 356.168 88.7676 356.168ZM89.1356 360.936C88.2503 360.968 87.637 361.123 87.2956 361.4C86.9543 361.667 86.7836 362.029 86.7836 362.488C86.7836 362.893 86.9063 363.187 87.1516 363.368C87.397 363.549 87.7116 363.64 88.0956 363.64C88.6823 363.64 89.1783 363.475 89.5836 363.144C89.989 362.803 90.1916 362.301 90.1916 361.64V360.904L89.1356 360.936ZM102.142 358.568C102.142 359.059 101.987 359.464 101.678 359.784C101.379 360.104 100.953 360.312 100.398 360.408V360.472C100.985 360.547 101.465 360.749 101.838 361.08C102.222 361.4 102.414 361.848 102.414 362.424C102.414 362.797 102.339 363.144 102.19 363.464C102.051 363.773 101.833 364.045 101.534 364.28C101.246 364.504 100.867 364.68 100.398 364.808C99.9285 364.936 99.3632 365 98.7019 365H94.7179V356.328H98.6859C99.3472 356.328 99.9339 356.397 100.446 356.536C100.969 356.675 101.379 356.909 101.678 357.24C101.987 357.56 102.142 358.003 102.142 358.568ZM100.318 362.344C100.318 361.949 100.163 361.667 99.8539 361.496C99.5552 361.315 99.1019 361.224 98.4939 361.224H96.7339V363.544H98.5419C99.0859 363.544 99.5179 363.453 99.8379 363.272C100.158 363.091 100.318 362.781 100.318 362.344ZM100.094 358.744C100.094 358.424 99.9712 358.189 99.7259 358.04C99.4805 357.891 99.1072 357.816 98.6059 357.816H96.7339V359.768H98.3339C98.9099 359.768 99.3472 359.688 99.6459 359.528C99.9445 359.368 100.094 359.107 100.094 358.744ZM111.796 365H109.78V357.88H107.46C107.353 359.192 107.22 360.307 107.06 361.224C106.9 362.141 106.703 362.893 106.468 363.48C106.233 364.056 105.94 364.477 105.588 364.744C105.247 365.011 104.831 365.144 104.34 365.144C104.116 365.144 103.908 365.128 103.716 365.096C103.524 365.064 103.359 365.011 103.22 364.936V363.352C103.316 363.384 103.417 363.416 103.524 363.448C103.631 363.469 103.743 363.48 103.86 363.48C104.041 363.48 104.207 363.411 104.356 363.272C104.516 363.123 104.66 362.883 104.788 362.552C104.927 362.211 105.055 361.763 105.172 361.208C105.289 360.653 105.391 359.976 105.476 359.176C105.572 358.365 105.657 357.416 105.732 356.328H111.796V365ZM117.878 356.168C118.656 356.168 119.323 356.328 119.878 356.648C120.443 356.957 120.88 357.405 121.19 357.992C121.499 358.568 121.654 359.272 121.654 360.104V361.128H115.926C115.947 361.917 116.166 362.531 116.582 362.968C116.998 363.395 117.574 363.608 118.31 363.608C118.875 363.608 119.376 363.555 119.814 363.448C120.262 363.331 120.72 363.165 121.19 362.952V364.568C120.763 364.771 120.32 364.92 119.862 365.016C119.403 365.112 118.854 365.16 118.214 365.16C117.371 365.16 116.619 365 115.958 364.68C115.307 364.349 114.795 363.853 114.422 363.192C114.059 362.531 113.878 361.709 113.878 360.728C113.878 359.736 114.043 358.904 114.374 358.232C114.715 357.549 115.184 357.037 115.782 356.696C116.379 356.344 117.078 356.168 117.878 356.168ZM117.878 357.656C117.344 357.656 116.907 357.832 116.566 358.184C116.235 358.525 116.038 359.037 115.974 359.72H119.702C119.702 359.315 119.632 358.957 119.494 358.648C119.366 358.339 119.168 358.099 118.902 357.928C118.635 357.747 118.294 357.656 117.878 357.656ZM125.703 356.328V359.768H129.527V356.328H131.543V365H129.527V361.32H125.703V365H123.687V356.328H125.703ZM136.076 360.456C136.076 360.605 136.065 360.797 136.044 361.032C136.033 361.256 136.022 361.496 136.012 361.752C136.001 361.997 135.985 362.221 135.964 362.424C135.953 362.616 135.942 362.76 135.932 362.856L140.172 356.328H142.604V365H140.668V360.92C140.668 360.675 140.673 360.392 140.684 360.072C140.705 359.752 140.726 359.448 140.748 359.16C140.769 358.861 140.785 358.637 140.796 358.488L136.572 365H134.14V356.328H136.076V360.456ZM146.226 365H144.002L146.386 361.496C146.077 361.379 145.784 361.219 145.506 361.016C145.229 360.803 145.005 360.531 144.834 360.2C144.664 359.859 144.578 359.448 144.578 358.968C144.578 358.115 144.888 357.464 145.506 357.016C146.125 356.557 146.93 356.328 147.922 356.328H151.906V365H149.89V361.688H148.274L146.226 365ZM146.546 358.984C146.546 359.389 146.701 359.704 147.01 359.928C147.33 360.141 147.757 360.248 148.29 360.248H149.89V357.816H148.002C147.49 357.816 147.117 357.928 146.882 358.152C146.658 358.376 146.546 358.653 146.546 358.984ZM156.58 363.32C156.484 363.693 156.361 364.099 156.212 364.536C156.062 364.963 155.902 365.389 155.732 365.816C155.561 366.253 155.385 366.669 155.204 367.064H153.748C153.854 366.648 153.956 366.205 154.052 365.736C154.148 365.277 154.238 364.824 154.324 364.376C154.409 363.928 154.478 363.517 154.532 363.144H156.468L156.58 363.32ZM164.869 359.496C164.869 359.912 164.981 360.227 165.205 360.44C165.429 360.653 165.743 360.76 166.149 360.76C166.639 360.76 167.087 360.696 167.493 360.568C167.909 360.44 168.325 360.275 168.741 360.072V356.328H170.757V365H168.741V361.4C168.325 361.635 167.882 361.837 167.413 362.008C166.943 362.179 166.394 362.264 165.765 362.264C164.869 362.264 164.159 362.035 163.637 361.576C163.114 361.107 162.853 360.435 162.853 359.56V356.328H164.869V359.496ZM180.079 357.88H177.231V365H175.231V357.88H172.399V356.328H180.079V357.88ZM189.321 360.648C189.321 361.373 189.225 362.013 189.033 362.568C188.841 363.123 188.564 363.597 188.201 363.992C187.849 364.376 187.412 364.669 186.889 364.872C186.377 365.064 185.807 365.16 185.177 365.16C184.58 365.16 184.031 365.064 183.529 364.872C183.028 364.669 182.591 364.376 182.217 363.992C181.855 363.597 181.572 363.123 181.369 362.568C181.167 362.013 181.065 361.373 181.065 360.648C181.065 359.688 181.231 358.877 181.561 358.216C181.892 357.544 182.367 357.037 182.985 356.696C183.615 356.344 184.356 356.168 185.209 356.168C186.02 356.168 186.729 356.344 187.337 356.696C187.956 357.037 188.441 357.544 188.793 358.216C189.145 358.877 189.321 359.688 189.321 360.648ZM183.129 360.648C183.129 361.256 183.199 361.779 183.337 362.216C183.487 362.643 183.711 362.968 184.009 363.192C184.319 363.416 184.713 363.528 185.193 363.528C185.684 363.528 186.079 363.416 186.377 363.192C186.687 362.968 186.911 362.643 187.049 362.216C187.188 361.779 187.257 361.256 187.257 360.648C187.257 360.029 187.183 359.512 187.033 359.096C186.895 358.669 186.671 358.349 186.361 358.136C186.063 357.912 185.673 357.8 185.193 357.8C184.468 357.8 183.94 358.045 183.609 358.536C183.289 359.027 183.129 359.731 183.129 360.648ZM190.909 359.8C190.909 358.52 191.053 357.437 191.341 356.552C191.64 355.656 192.104 354.941 192.733 354.408C193.363 353.875 194.184 353.512 195.197 353.32C195.805 353.203 196.413 353.101 197.021 353.016C197.64 352.931 198.248 352.845 198.845 352.76L199.117 354.52C198.84 354.552 198.536 354.595 198.205 354.648C197.885 354.691 197.555 354.733 197.213 354.776C196.883 354.819 196.563 354.867 196.253 354.92C195.944 354.973 195.667 355.016 195.421 355.048C195.048 355.123 194.712 355.229 194.413 355.368C194.125 355.496 193.88 355.683 193.677 355.928C193.475 356.163 193.315 356.472 193.197 356.856C193.091 357.229 193.021 357.699 192.989 358.264H193.101C193.24 358.061 193.427 357.859 193.661 357.656C193.907 357.453 194.205 357.283 194.557 357.144C194.909 356.995 195.309 356.92 195.757 356.92C196.472 356.92 197.08 357.069 197.581 357.368C198.093 357.667 198.483 358.104 198.749 358.68C199.016 359.245 199.149 359.939 199.149 360.76C199.149 361.731 198.973 362.547 198.621 363.208C198.269 363.859 197.784 364.349 197.165 364.68C196.547 365 195.827 365.16 195.005 365.16C194.387 365.16 193.821 365.043 193.309 364.808C192.808 364.573 192.376 364.232 192.013 363.784C191.651 363.325 191.373 362.765 191.181 362.104C191 361.432 190.909 360.664 190.909 359.8ZM195.133 363.512C195.528 363.512 195.869 363.432 196.157 363.272C196.445 363.101 196.669 362.829 196.829 362.456C196.989 362.072 197.069 361.565 197.069 360.936C197.069 360.179 196.936 359.576 196.669 359.128C196.403 358.68 195.955 358.456 195.325 358.456C194.931 358.456 194.568 358.547 194.237 358.728C193.917 358.909 193.645 359.117 193.421 359.352C193.197 359.576 193.043 359.768 192.957 359.928C192.957 360.387 192.989 360.829 193.053 361.256C193.128 361.683 193.245 362.067 193.405 362.408C193.576 362.749 193.8 363.021 194.077 363.224C194.365 363.416 194.717 363.512 195.133 363.512ZM201.218 365V356.328H203.234V359.752H204.786C205.629 359.752 206.317 359.848 206.85 360.04C207.394 360.221 207.794 360.499 208.05 360.872C208.317 361.245 208.45 361.715 208.45 362.28C208.45 362.835 208.327 363.315 208.082 363.72C207.837 364.125 207.447 364.44 206.914 364.664C206.381 364.888 205.682 365 204.818 365H201.218ZM204.69 363.544C205.202 363.544 205.623 363.453 205.954 363.272C206.285 363.08 206.45 362.765 206.45 362.328C206.45 361.912 206.295 361.624 205.986 361.464C205.687 361.304 205.25 361.224 204.674 361.224H203.234V363.544H204.69ZM209.778 365V356.328H211.794V365H209.778ZM223.106 356.168C224.119 356.168 224.935 356.547 225.554 357.304C226.173 358.051 226.482 359.165 226.482 360.648C226.482 361.629 226.338 362.456 226.05 363.128C225.762 363.8 225.362 364.307 224.85 364.648C224.338 364.989 223.741 365.16 223.058 365.16C222.642 365.16 222.274 365.107 221.954 365C221.634 364.883 221.362 364.739 221.138 364.568C220.914 364.387 220.722 364.195 220.562 363.992H220.434C220.477 364.184 220.509 364.403 220.53 364.648C220.551 364.883 220.562 365.107 220.562 365.32V368.84H218.546V356.328H220.178L220.466 357.48H220.562C220.722 357.235 220.914 357.016 221.138 356.824C221.373 356.621 221.65 356.461 221.97 356.344C222.301 356.227 222.679 356.168 223.106 356.168ZM222.53 357.8C222.061 357.8 221.682 357.896 221.394 358.088C221.106 358.269 220.898 358.552 220.77 358.936C220.642 359.32 220.573 359.8 220.562 360.376V360.632C220.562 361.251 220.621 361.773 220.738 362.2C220.866 362.627 221.074 362.952 221.362 363.176C221.661 363.4 222.061 363.512 222.562 363.512C222.989 363.512 223.335 363.395 223.602 363.16C223.879 362.925 224.082 362.595 224.21 362.168C224.349 361.731 224.418 361.213 224.418 360.616C224.418 359.72 224.263 359.027 223.954 358.536C223.655 358.045 223.181 357.8 222.53 357.8ZM232.05 356.168C232.828 356.168 233.495 356.328 234.05 356.648C234.615 356.957 235.052 357.405 235.362 357.992C235.671 358.568 235.826 359.272 235.826 360.104V361.128H230.098C230.119 361.917 230.338 362.531 230.754 362.968C231.17 363.395 231.746 363.608 232.482 363.608C233.047 363.608 233.548 363.555 233.986 363.448C234.434 363.331 234.892 363.165 235.362 362.952V364.568C234.935 364.771 234.492 364.92 234.034 365.016C233.575 365.112 233.026 365.16 232.386 365.16C231.543 365.16 230.791 365 230.13 364.68C229.479 364.349 228.967 363.853 228.594 363.192C228.231 362.531 228.05 361.709 228.05 360.728C228.05 359.736 228.215 358.904 228.546 358.232C228.887 357.549 229.356 357.037 229.954 356.696C230.551 356.344 231.25 356.168 232.05 356.168ZM232.05 357.656C231.516 357.656 231.079 357.832 230.738 358.184C230.407 358.525 230.21 359.037 230.146 359.72H233.874C233.874 359.315 233.804 358.957 233.666 358.648C233.538 358.339 233.34 358.099 233.074 357.928C232.807 357.747 232.466 357.656 232.05 357.656ZM250.339 356.328V365H237.859V356.328H239.875V363.432H243.091V356.328H245.107V363.432H248.323V356.328H250.339ZM254.873 360.456C254.873 360.605 254.862 360.797 254.841 361.032C254.83 361.256 254.819 361.496 254.809 361.752C254.798 361.997 254.782 362.221 254.761 362.424C254.75 362.616 254.739 362.76 254.729 362.856L258.969 356.328H261.401V365H259.465V360.92C259.465 360.675 259.47 360.392 259.481 360.072C259.502 359.752 259.523 359.448 259.545 359.16C259.566 358.861 259.582 358.637 259.593 358.488L255.369 365H252.937V356.328H254.873V360.456ZM270.735 357.88H267.887V365H265.887V357.88H263.055V356.328H270.735V357.88ZM276.406 359.752C277.248 359.752 277.942 359.848 278.486 360.04C279.04 360.221 279.451 360.499 279.718 360.872C279.995 361.245 280.134 361.715 280.134 362.28C280.134 362.835 280.006 363.315 279.75 363.72C279.494 364.125 279.094 364.44 278.55 364.664C278.016 364.888 277.312 365 276.438 365H272.39V356.328H274.406V359.752H276.406ZM278.118 362.328C278.118 361.912 277.963 361.624 277.654 361.464C277.344 361.304 276.896 361.224 276.31 361.224H274.406V363.544H276.342C276.864 363.544 277.291 363.453 277.622 363.272C277.952 363.08 278.118 362.765 278.118 362.328ZM64.04 382.648C64.04 383.373 63.944 384.013 63.752 384.568C63.56 385.123 63.2827 385.597 62.92 385.992C62.568 386.376 62.1307 386.669 61.608 386.872C61.096 387.064 60.5253 387.16 59.896 387.16C59.2987 387.16 58.7493 387.064 58.248 386.872C57.7467 386.669 57.3093 386.376 56.936 385.992C56.5733 385.597 56.2907 385.123 56.088 384.568C55.8853 384.013 55.784 383.373 55.784 382.648C55.784 381.688 55.9493 380.877 56.28 380.216C56.6107 379.544 57.0853 379.037 57.704 378.696C58.3333 378.344 59.0747 378.168 59.928 378.168C60.7387 378.168 61.448 378.344 62.056 378.696C62.6747 379.037 63.16 379.544 63.512 380.216C63.864 380.877 64.04 381.688 64.04 382.648ZM57.848 382.648C57.848 383.256 57.9173 383.779 58.056 384.216C58.2053 384.643 58.4293 384.968 58.728 385.192C59.0373 385.416 59.432 385.528 59.912 385.528C60.4027 385.528 60.7973 385.416 61.096 385.192C61.4053 384.968 61.6293 384.643 61.768 384.216C61.9067 383.779 61.976 383.256 61.976 382.648C61.976 382.029 61.9013 381.512 61.752 381.096C61.6133 380.669 61.3893 380.349 61.08 380.136C60.7813 379.912 60.392 379.8 59.912 379.8C59.1867 379.8 58.6587 380.045 58.328 380.536C58.008 381.027 57.848 381.731 57.848 382.648ZM73.7881 378.328V387H71.7721V379.896H68.1401V387H66.1241V378.328H73.7881ZM79.8621 378.168C80.6408 378.168 81.3075 378.328 81.8621 378.648C82.4275 378.957 82.8648 379.405 83.1741 379.992C83.4835 380.568 83.6381 381.272 83.6381 382.104V383.128H77.9101C77.9315 383.917 78.1501 384.531 78.5661 384.968C78.9821 385.395 79.5581 385.608 80.2941 385.608C80.8595 385.608 81.3608 385.555 81.7981 385.448C82.2461 385.331 82.7048 385.165 83.1741 384.952V386.568C82.7475 386.771 82.3048 386.92 81.8461 387.016C81.3875 387.112 80.8381 387.16 80.1981 387.16C79.3555 387.16 78.6035 387 77.9421 386.68C77.2915 386.349 76.7795 385.853 76.4061 385.192C76.0435 384.531 75.8621 383.709 75.8621 382.728C75.8621 381.736 76.0275 380.904 76.3581 380.232C76.6995 379.549 77.1688 379.037 77.7661 378.696C78.3635 378.344 79.0621 378.168 79.8621 378.168ZM79.8621 379.656C79.3288 379.656 78.8915 379.832 78.5501 380.184C78.2195 380.525 78.0221 381.037 77.9581 381.72H81.6861C81.6861 381.315 81.6168 380.957 81.4781 380.648C81.3501 380.339 81.1528 380.099 80.8861 379.928C80.6195 379.747 80.2781 379.656 79.8621 379.656ZM90.231 378.168C91.2443 378.168 92.0603 378.547 92.679 379.304C93.2977 380.051 93.607 381.165 93.607 382.648C93.607 383.629 93.463 384.456 93.175 385.128C92.887 385.8 92.487 386.307 91.975 386.648C91.463 386.989 90.8657 387.16 90.183 387.16C89.767 387.16 89.399 387.107 89.079 387C88.759 386.883 88.487 386.739 88.263 386.568C88.039 386.387 87.847 386.195 87.687 385.992H87.559C87.6017 386.184 87.6337 386.403 87.655 386.648C87.6763 386.883 87.687 387.107 87.687 387.32V390.84H85.671V378.328H87.303L87.591 379.48H87.687C87.847 379.235 88.039 379.016 88.263 378.824C88.4977 378.621 88.775 378.461 89.095 378.344C89.4257 378.227 89.8043 378.168 90.231 378.168ZM89.655 379.8C89.1857 379.8 88.807 379.896 88.519 380.088C88.231 380.269 88.023 380.552 87.895 380.936C87.767 381.32 87.6977 381.8 87.687 382.376V382.632C87.687 383.251 87.7457 383.773 87.863 384.2C87.991 384.627 88.199 384.952 88.487 385.176C88.7857 385.4 89.1857 385.512 89.687 385.512C90.1137 385.512 90.4603 385.395 90.727 385.16C91.0043 384.925 91.207 384.595 91.335 384.168C91.4737 383.731 91.543 383.213 91.543 382.616C91.543 381.72 91.3883 381.027 91.079 380.536C90.7803 380.045 90.3057 379.8 89.655 379.8ZM99.1426 378.168C100.263 378.168 101.111 378.413 101.687 378.904C102.273 379.384 102.567 380.141 102.567 381.176V387H101.143L100.743 385.8H100.679C100.433 386.109 100.177 386.371 99.9106 386.584C99.6546 386.787 99.356 386.931 99.0146 387.016C98.684 387.112 98.2786 387.16 97.7986 387.16C97.2866 387.16 96.8226 387.064 96.4066 386.872C96.0013 386.68 95.6813 386.387 95.4466 385.992C95.212 385.587 95.0946 385.08 95.0946 384.472C95.0946 383.576 95.42 382.904 96.0706 382.456C96.732 381.997 97.7293 381.747 99.0626 381.704L100.567 381.656V381.224C100.567 380.669 100.433 380.275 100.167 380.04C99.9 379.805 99.5266 379.688 99.0466 379.688C98.6093 379.688 98.188 379.752 97.7826 379.88C97.3773 380.008 96.9826 380.157 96.5986 380.328L95.9586 378.92C96.3853 378.696 96.8706 378.515 97.4146 378.376C97.9693 378.237 98.5453 378.168 99.1426 378.168ZM99.5106 382.936C98.6253 382.968 98.012 383.123 97.6706 383.4C97.3293 383.667 97.1586 384.029 97.1586 384.488C97.1586 384.893 97.2813 385.187 97.5266 385.368C97.772 385.549 98.0866 385.64 98.4706 385.64C99.0573 385.64 99.5533 385.475 99.9586 385.144C100.364 384.803 100.567 384.301 100.567 383.64V382.904L99.5106 382.936ZM111.829 379.88H108.981V387H106.981V379.88H104.149V378.328H111.829V379.88ZM115.42 382.456C115.42 382.605 115.409 382.797 115.388 383.032C115.377 383.256 115.366 383.496 115.356 383.752C115.345 383.997 115.329 384.221 115.308 384.424C115.297 384.616 115.286 384.76 115.276 384.856L119.516 378.328H121.948V387H120.012V382.92C120.012 382.675 120.017 382.392 120.028 382.072C120.049 381.752 120.07 381.448 120.092 381.16C120.113 380.861 120.129 380.637 120.14 380.488L115.916 387H113.484V378.328H115.42V382.456ZM131.97 380.568C131.97 381.059 131.815 381.464 131.506 381.784C131.207 382.104 130.781 382.312 130.226 382.408V382.472C130.813 382.547 131.293 382.749 131.666 383.08C132.05 383.4 132.242 383.848 132.242 384.424C132.242 384.797 132.167 385.144 132.018 385.464C131.879 385.773 131.661 386.045 131.362 386.28C131.074 386.504 130.695 386.68 130.226 386.808C129.757 386.936 129.191 387 128.53 387H124.546V378.328H128.514C129.175 378.328 129.762 378.397 130.274 378.536C130.797 378.675 131.207 378.909 131.506 379.24C131.815 379.56 131.97 380.003 131.97 380.568ZM130.146 384.344C130.146 383.949 129.991 383.667 129.682 383.496C129.383 383.315 128.93 383.224 128.322 383.224H126.562V385.544H128.37C128.914 385.544 129.346 385.453 129.666 385.272C129.986 385.091 130.146 384.781 130.146 384.344ZM129.922 380.744C129.922 380.424 129.799 380.189 129.554 380.04C129.309 379.891 128.935 379.816 128.434 379.816H126.562V381.768H128.162C128.738 381.768 129.175 381.688 129.474 381.528C129.773 381.368 129.922 381.107 129.922 380.744ZM136.312 378.328V381.768H140.136V378.328H142.152V387H140.136V383.32H136.312V387H134.296V378.328H136.312ZM144.749 387V378.328H146.765V381.752H148.317C149.16 381.752 149.848 381.848 150.381 382.04C150.925 382.221 151.325 382.499 151.581 382.872C151.848 383.245 151.981 383.715 151.981 384.28C151.981 384.835 151.858 385.315 151.613 385.72C151.368 386.125 150.978 386.44 150.445 386.664C149.912 386.888 149.213 387 148.349 387H144.749ZM148.221 385.544C148.733 385.544 149.154 385.453 149.485 385.272C149.816 385.08 149.981 384.765 149.981 384.328C149.981 383.912 149.826 383.624 149.517 383.464C149.218 383.304 148.781 383.224 148.205 383.224H146.765V385.544H148.221ZM153.309 387V378.328H155.325V387H153.309ZM161.409 378.168C162.188 378.168 162.854 378.328 163.409 378.648C163.974 378.957 164.412 379.405 164.721 379.992C165.03 380.568 165.185 381.272 165.185 382.104V383.128H159.457C159.478 383.917 159.697 384.531 160.113 384.968C160.529 385.395 161.105 385.608 161.841 385.608C162.406 385.608 162.908 385.555 163.345 385.448C163.793 385.331 164.252 385.165 164.721 384.952V386.568C164.294 386.771 163.852 386.92 163.393 387.016C162.934 387.112 162.385 387.16 161.745 387.16C160.902 387.16 160.15 387 159.489 386.68C158.838 386.349 158.326 385.853 157.953 385.192C157.59 384.531 157.409 383.709 157.409 382.728C157.409 381.736 157.574 380.904 157.905 380.232C158.246 379.549 158.716 379.037 159.313 378.696C159.91 378.344 160.609 378.168 161.409 378.168ZM161.409 379.656C160.876 379.656 160.438 379.832 160.097 380.184C159.766 380.525 159.569 381.037 159.505 381.72H163.233C163.233 381.315 163.164 380.957 163.025 380.648C162.897 380.339 162.7 380.099 162.433 379.928C162.166 379.747 161.825 379.656 161.409 379.656ZM178.798 380.568C178.798 381.059 178.643 381.464 178.334 381.784C178.035 382.104 177.609 382.312 177.054 382.408V382.472C177.641 382.547 178.121 382.749 178.494 383.08C178.878 383.4 179.07 383.848 179.07 384.424C179.07 384.797 178.995 385.144 178.846 385.464C178.707 385.773 178.489 386.045 178.19 386.28C177.902 386.504 177.523 386.68 177.054 386.808C176.585 386.936 176.019 387 175.358 387H171.374V378.328H175.342C176.003 378.328 176.59 378.397 177.102 378.536C177.625 378.675 178.035 378.909 178.334 379.24C178.643 379.56 178.798 380.003 178.798 380.568ZM176.974 384.344C176.974 383.949 176.819 383.667 176.51 383.496C176.211 383.315 175.758 383.224 175.15 383.224H173.39V385.544H175.198C175.742 385.544 176.174 385.453 176.494 385.272C176.814 385.091 176.974 384.781 176.974 384.344ZM176.75 380.744C176.75 380.424 176.627 380.189 176.382 380.04C176.137 379.891 175.763 379.816 175.262 379.816H173.39V381.768H174.99C175.566 381.768 176.003 381.688 176.302 381.528C176.601 381.368 176.75 381.107 176.75 380.744ZM188.868 382.648C188.868 383.373 188.772 384.013 188.58 384.568C188.388 385.123 188.111 385.597 187.748 385.992C187.396 386.376 186.959 386.669 186.436 386.872C185.924 387.064 185.353 387.16 184.724 387.16C184.127 387.16 183.577 387.064 183.076 386.872C182.575 386.669 182.137 386.376 181.764 385.992C181.401 385.597 181.119 385.123 180.916 384.568C180.713 384.013 180.612 383.373 180.612 382.648C180.612 381.688 180.777 380.877 181.108 380.216C181.439 379.544 181.913 379.037 182.532 378.696C183.161 378.344 183.903 378.168 184.756 378.168C185.567 378.168 186.276 378.344 186.884 378.696C187.503 379.037 187.988 379.544 188.34 380.216C188.692 380.877 188.868 381.688 188.868 382.648ZM182.676 382.648C182.676 383.256 182.745 383.779 182.884 384.216C183.033 384.643 183.257 384.968 183.556 385.192C183.865 385.416 184.26 385.528 184.74 385.528C185.231 385.528 185.625 385.416 185.924 385.192C186.233 384.968 186.457 384.643 186.596 384.216C186.735 383.779 186.804 383.256 186.804 382.648C186.804 382.029 186.729 381.512 186.58 381.096C186.441 380.669 186.217 380.349 185.908 380.136C185.609 379.912 185.22 379.8 184.74 379.8C184.015 379.8 183.487 380.045 183.156 380.536C182.836 381.027 182.676 381.731 182.676 382.648ZM198.616 378.328V387H196.6V379.896H192.968V387H190.952V378.328H198.616ZM205.762 378.168C206.776 378.168 207.592 378.547 208.21 379.304C208.829 380.051 209.138 381.165 209.138 382.648C209.138 383.629 208.994 384.456 208.706 385.128C208.418 385.8 208.018 386.307 207.506 386.648C206.994 386.989 206.397 387.16 205.714 387.16C205.298 387.16 204.93 387.107 204.61 387C204.29 386.883 204.018 386.739 203.794 386.568C203.57 386.387 203.378 386.195 203.218 385.992H203.09C203.133 386.184 203.165 386.403 203.186 386.648C203.208 386.883 203.218 387.107 203.218 387.32V390.84H201.202V378.328H202.834L203.122 379.48H203.218C203.378 379.235 203.57 379.016 203.794 378.824C204.029 378.621 204.306 378.461 204.626 378.344C204.957 378.227 205.336 378.168 205.762 378.168ZM205.186 379.8C204.717 379.8 204.338 379.896 204.05 380.088C203.762 380.269 203.554 380.552 203.426 380.936C203.298 381.32 203.229 381.8 203.218 382.376V382.632C203.218 383.251 203.277 383.773 203.394 384.2C203.522 384.627 203.73 384.952 204.018 385.176C204.317 385.4 204.717 385.512 205.218 385.512C205.645 385.512 205.992 385.395 206.258 385.16C206.536 384.925 206.738 384.595 206.866 384.168C207.005 383.731 207.074 383.213 207.074 382.616C207.074 381.72 206.92 381.027 206.61 380.536C206.312 380.045 205.837 379.8 205.186 379.8ZM218.962 382.648C218.962 383.373 218.866 384.013 218.674 384.568C218.482 385.123 218.205 385.597 217.842 385.992C217.49 386.376 217.053 386.669 216.53 386.872C216.018 387.064 215.447 387.16 214.818 387.16C214.221 387.16 213.671 387.064 213.17 386.872C212.669 386.669 212.231 386.376 211.858 385.992C211.495 385.597 211.213 385.123 211.01 384.568C210.807 384.013 210.706 383.373 210.706 382.648C210.706 381.688 210.871 380.877 211.202 380.216C211.533 379.544 212.007 379.037 212.626 378.696C213.255 378.344 213.997 378.168 214.85 378.168C215.661 378.168 216.37 378.344 216.978 378.696C217.597 379.037 218.082 379.544 218.434 380.216C218.786 380.877 218.962 381.688 218.962 382.648ZM212.77 382.648C212.77 383.256 212.839 383.779 212.978 384.216C213.127 384.643 213.351 384.968 213.65 385.192C213.959 385.416 214.354 385.528 214.834 385.528C215.325 385.528 215.719 385.416 216.018 385.192C216.327 384.968 216.551 384.643 216.69 384.216C216.829 383.779 216.898 383.256 216.898 382.648C216.898 382.029 216.823 381.512 216.674 381.096C216.535 380.669 216.311 380.349 216.002 380.136C215.703 379.912 215.314 379.8 214.834 379.8C214.109 379.8 213.581 380.045 213.25 380.536C212.93 381.027 212.77 381.731 212.77 382.648ZM224.55 387.16C223.729 387.16 223.014 387.005 222.406 386.696C221.809 386.376 221.345 385.891 221.014 385.24C220.694 384.579 220.534 383.736 220.534 382.712C220.534 381.645 220.71 380.781 221.062 380.12C221.425 379.448 221.921 378.957 222.55 378.648C223.179 378.328 223.899 378.168 224.71 378.168C225.254 378.168 225.739 378.221 226.166 378.328C226.593 378.435 226.955 378.563 227.254 378.712L226.662 380.296C226.331 380.168 226.001 380.061 225.67 379.976C225.339 379.88 225.019 379.832 224.71 379.832C224.23 379.832 223.83 379.939 223.51 380.152C223.201 380.365 222.971 380.685 222.822 381.112C222.673 381.528 222.598 382.056 222.598 382.696C222.598 383.315 222.673 383.832 222.822 384.248C222.982 384.664 223.217 384.979 223.526 385.192C223.835 385.395 224.219 385.496 224.678 385.496C225.169 385.496 225.601 385.437 225.974 385.32C226.347 385.203 226.699 385.043 227.03 384.84V386.584C226.699 386.787 226.342 386.931 225.958 387.016C225.585 387.112 225.115 387.16 224.55 387.16ZM229.062 387V378.328H231.078V381.752H232.63C233.472 381.752 234.16 381.848 234.694 382.04C235.238 382.221 235.638 382.499 235.894 382.872C236.16 383.245 236.294 383.715 236.294 384.28C236.294 384.835 236.171 385.315 235.926 385.72C235.68 386.125 235.291 386.44 234.758 386.664C234.224 386.888 233.526 387 232.662 387H229.062ZM232.534 385.544C233.046 385.544 233.467 385.453 233.798 385.272C234.128 385.08 234.294 384.765 234.294 384.328C234.294 383.912 234.139 383.624 233.83 383.464C233.531 383.304 233.094 383.224 232.518 383.224H231.078V385.544H232.534ZM237.622 387V378.328H239.638V387H237.622ZM241.946 385.976C241.946 385.528 242.063 385.213 242.298 385.032C242.532 384.84 242.82 384.744 243.162 384.744C243.503 384.744 243.791 384.835 244.026 385.016C244.271 385.197 244.394 385.517 244.394 385.976C244.394 386.413 244.271 386.728 244.026 386.92C243.791 387.112 243.503 387.208 243.162 387.208C242.82 387.208 242.532 387.112 242.298 386.92C242.063 386.728 241.946 386.413 241.946 385.976Z" fill="white"/>
<path d="M90.4394 557.864C92.5034 557.864 94.0234 558.344 94.9994 559.304C95.9914 560.248 96.4874 561.552 96.4874 563.216C96.4874 563.968 96.3834 564.688 96.1754 565.376C95.9674 566.048 95.6234 566.656 95.1434 567.2C94.6634 567.728 94.0234 568.144 93.2234 568.448C92.4394 568.752 91.4714 568.904 90.3194 568.904H88.9754V575H85.0874V557.864H90.4394ZM90.3194 560.84H88.9754V565.928H89.9594C90.4714 565.928 90.9274 565.84 91.3274 565.664C91.7274 565.488 92.0394 565.208 92.2634 564.824C92.4874 564.44 92.5994 563.944 92.5994 563.336C92.5994 562.488 92.4074 561.864 92.0234 561.464C91.6554 561.048 91.0874 560.84 90.3194 560.84ZM104.618 561.632C106.234 561.632 107.482 562.016 108.362 562.784C109.258 563.536 109.706 564.696 109.706 566.264V575H107.042L106.298 573.224H106.202C105.85 573.688 105.49 574.072 105.122 574.376C104.754 574.68 104.33 574.896 103.85 575.024C103.37 575.168 102.786 575.24 102.098 575.24C101.378 575.24 100.73 575.096 100.154 574.808C99.594 574.504 99.146 574.048 98.81 573.44C98.474 572.816 98.306 572.032 98.306 571.088C98.306 569.696 98.762 568.672 99.674 568.016C100.602 567.344 101.962 566.976 103.754 566.912L105.866 566.84V566.264C105.866 565.576 105.714 565.072 105.41 564.752C105.106 564.432 104.69 564.272 104.162 564.272C103.618 564.272 103.05 564.368 102.458 564.56C101.866 564.736 101.274 564.96 100.682 565.232L99.506 562.808C100.21 562.44 100.986 562.152 101.834 561.944C102.698 561.736 103.626 561.632 104.618 561.632ZM104.762 568.976C103.818 569.008 103.154 569.216 102.77 569.6C102.402 569.984 102.218 570.488 102.218 571.112C102.218 571.656 102.346 572.048 102.602 572.288C102.874 572.512 103.226 572.624 103.658 572.624C104.266 572.624 104.786 572.4 105.218 571.952C105.666 571.488 105.89 570.84 105.89 570.008V568.928L104.762 568.976ZM118.254 575.24C117.006 575.24 115.934 575.008 115.038 574.544C114.142 574.064 113.454 573.328 112.974 572.336C112.494 571.344 112.254 570.072 112.254 568.52C112.254 566.92 112.518 565.616 113.046 564.608C113.59 563.6 114.334 562.856 115.278 562.376C116.238 561.896 117.334 561.656 118.566 561.656C119.366 561.656 120.11 561.744 120.798 561.92C121.486 562.096 122.062 562.304 122.526 562.544L121.398 565.232C120.918 565.024 120.478 564.856 120.078 564.728C119.694 564.6 119.27 564.536 118.806 564.536C118.246 564.536 117.766 564.688 117.366 564.992C116.982 565.28 116.686 565.72 116.478 566.312C116.27 566.888 116.166 567.616 116.166 568.496C116.166 569.36 116.27 570.08 116.478 570.656C116.702 571.216 117.006 571.64 117.39 571.928C117.79 572.2 118.262 572.336 118.806 572.336C119.414 572.336 119.99 572.24 120.534 572.048C121.094 571.84 121.622 571.56 122.118 571.208V574.256C121.59 574.608 121.022 574.856 120.414 575C119.822 575.16 119.102 575.24 118.254 575.24ZM136.304 561.896V575H132.464V564.584H128.624V575H124.784V561.896H136.304ZM151.117 568.424C151.117 569.512 150.973 570.48 150.685 571.328C150.413 572.176 150.013 572.896 149.485 573.488C148.957 574.064 148.309 574.504 147.541 574.808C146.789 575.096 145.941 575.24 144.997 575.24C144.117 575.24 143.301 575.096 142.549 574.808C141.797 574.504 141.149 574.064 140.605 573.488C140.077 572.896 139.661 572.176 139.357 571.328C139.069 570.48 138.925 569.512 138.925 568.424C138.925 566.968 139.173 565.744 139.669 564.752C140.165 563.744 140.869 562.976 141.781 562.448C142.693 561.92 143.789 561.656 145.069 561.656C146.253 561.656 147.293 561.92 148.189 562.448C149.101 562.976 149.813 563.744 150.325 564.752C150.853 565.744 151.117 566.968 151.117 568.424ZM142.837 568.424C142.837 569.288 142.909 570.016 143.053 570.608C143.213 571.184 143.453 571.624 143.773 571.928C144.109 572.216 144.533 572.36 145.045 572.36C145.573 572.36 145.989 572.216 146.293 571.928C146.613 571.624 146.845 571.184 146.989 570.608C147.133 570.016 147.205 569.288 147.205 568.424C147.205 567.56 147.133 566.84 146.989 566.264C146.845 565.688 146.605 565.256 146.269 564.968C145.949 564.68 145.533 564.536 145.021 564.536C144.237 564.536 143.677 564.864 143.341 565.52C143.005 566.16 142.837 567.128 142.837 568.424ZM160.978 561.656C162.354 561.656 163.45 562.232 164.266 563.384C165.098 564.52 165.514 566.2 165.514 568.424C165.514 569.912 165.314 571.168 164.914 572.192C164.514 573.2 163.962 573.96 163.258 574.472C162.554 574.984 161.746 575.24 160.834 575.24C160.258 575.24 159.762 575.16 159.346 575C158.93 574.84 158.578 574.632 158.29 574.376C158.018 574.12 157.778 573.848 157.57 573.56H157.402C157.45 573.864 157.49 574.184 157.522 574.52C157.554 574.84 157.57 575.16 157.57 575.48V580.76H153.73V561.896H156.85L157.402 563.6H157.57C157.778 563.248 158.034 562.928 158.338 562.64C158.642 562.336 159.01 562.096 159.442 561.92C159.874 561.744 160.386 561.656 160.978 561.656ZM159.61 564.512C159.114 564.512 158.714 564.64 158.41 564.896C158.106 565.152 157.89 565.544 157.762 566.072C157.634 566.584 157.57 567.232 157.57 568.016V568.4C157.57 569.248 157.634 569.968 157.762 570.56C157.89 571.136 158.106 571.576 158.41 571.88C158.714 572.184 159.13 572.336 159.658 572.336C160.09 572.336 160.45 572.184 160.738 571.88C161.026 571.576 161.242 571.128 161.386 570.536C161.53 569.944 161.602 569.224 161.602 568.376C161.602 567.096 161.434 566.136 161.098 565.496C160.778 564.84 160.282 564.512 159.61 564.512ZM170.448 575H166.344L169.608 569.816C169.208 569.624 168.832 569.368 168.48 569.048C168.144 568.712 167.872 568.288 167.664 567.776C167.456 567.264 167.352 566.656 167.352 565.952C167.352 564.64 167.824 563.64 168.768 562.952C169.728 562.248 170.992 561.896 172.56 561.896H178.416V575H174.576V570.128H173.016L170.448 575ZM171.144 565.976C171.144 566.52 171.304 566.952 171.624 567.272C171.944 567.576 172.416 567.728 173.04 567.728H174.576V564.416H172.8C172.224 564.416 171.8 564.576 171.528 564.896C171.272 565.2 171.144 565.56 171.144 565.976ZM200.459 561.896L196.091 568.184L200.891 575H196.739L192.275 568.352V575H188.627V568.352L184.139 575H180.011L184.811 568.184L180.443 561.896H184.475L188.627 568.256V561.896H192.275V568.256L196.403 561.896H200.459ZM207.386 561.656C208.554 561.656 209.562 561.888 210.41 562.352C211.258 562.816 211.914 563.488 212.378 564.368C212.842 565.248 213.074 566.328 213.074 567.608V569.336H205.274C205.306 570.344 205.562 571.136 206.042 571.712C206.538 572.288 207.242 572.576 208.154 572.576C208.954 572.576 209.674 572.496 210.314 572.336C210.97 572.16 211.642 571.896 212.33 571.544V574.304C211.738 574.624 211.09 574.856 210.386 575C209.698 575.16 208.842 575.24 207.818 575.24C206.57 575.24 205.458 575 204.482 574.52C203.522 574.024 202.762 573.28 202.202 572.288C201.658 571.296 201.386 570.048 201.386 568.544C201.386 567.008 201.634 565.736 202.13 564.728C202.642 563.704 203.346 562.936 204.242 562.424C205.154 561.912 206.202 561.656 207.386 561.656ZM207.458 564.2C206.882 564.2 206.402 564.424 206.018 564.872C205.634 565.32 205.41 566.016 205.346 566.96H209.546C209.546 566.432 209.466 565.96 209.306 565.544C209.146 565.128 208.914 564.8 208.61 564.56C208.306 564.32 207.922 564.2 207.458 564.2ZM219.515 561.896V566.936H223.571V561.896H227.387V575H223.571V569.6H219.515V575H215.675V561.896H219.515ZM234.228 567.08C234.228 567.352 234.22 567.688 234.204 568.088C234.188 568.488 234.172 568.896 234.156 569.312C234.14 569.728 234.116 570.096 234.084 570.416C234.068 570.736 234.052 570.96 234.036 571.088L239.244 561.896H243.612V575H240.012V569.768C240.012 569.336 240.02 568.864 240.036 568.352C240.068 567.824 240.1 567.336 240.132 566.888C240.164 566.424 240.188 566.072 240.204 565.832L234.996 575H230.652V561.896H234.228V567.08ZM249.198 575H245.094L248.358 569.816C247.958 569.624 247.582 569.368 247.23 569.048C246.894 568.712 246.622 568.288 246.414 567.776C246.206 567.264 246.102 566.656 246.102 565.952C246.102 564.64 246.574 563.64 247.518 562.952C248.478 562.248 249.742 561.896 251.31 561.896H257.166V575H253.326V570.128H251.766L249.198 575ZM249.894 565.976C249.894 566.52 250.054 566.952 250.374 567.272C250.694 567.576 251.166 567.728 251.79 567.728H253.326V564.416H251.55C250.974 564.416 250.55 564.576 250.278 564.896C250.022 565.2 249.894 565.56 249.894 565.976Z" fill="#8080FF"/>
<path d="M202.052 143.523L202.052 152.839C202.052 154.246 200.912 155.385 199.506 155.385H179.972H160.857C159.451 155.385 158.311 154.246 158.311 152.839V142.764V131.368C158.311 129.962 159.451 128.822 160.857 128.822H199.506C200.912 128.822 202.052 129.962 202.052 131.368V143.523Z" fill="#E06529"/>
<g filter="url(#filter0_bd_181_2933)">
<path d="M139.594 180.517V137.846C139.594 136.44 140.734 135.3 142.14 135.3H194.8C196.207 135.3 197.346 136.44 197.346 137.846V155.882V180.517C197.346 181.924 196.207 183.063 194.8 183.063H142.14C140.734 183.063 139.594 181.924 139.594 180.517Z" fill="url(#paint0_radial_181_2933)" fill-opacity="0.4" shape-rendering="crispEdges"/>
<path d="M140.23 180.517V137.846C140.23 136.791 141.085 135.936 142.14 135.936H194.8C195.855 135.936 196.71 136.791 196.71 137.846V155.882V180.517C196.71 181.572 195.855 182.427 194.8 182.427H142.14C141.085 182.427 140.23 181.572 140.23 180.517Z" stroke="url(#paint1_linear_181_2933)" stroke-width="1.273" stroke-miterlimit="10" stroke-linecap="round" stroke-linejoin="round" shape-rendering="crispEdges"/>
</g>
<path d="M151.939 153.079H175.623" stroke="white" stroke-width="3.81899" stroke-miterlimit="10" stroke-linecap="round" stroke-linejoin="round"/>
<path d="M151.939 165.284H185.001" stroke="white" stroke-width="3.81899" stroke-miterlimit="10" stroke-linecap="round" stroke-linejoin="round"/>
<circle cx="171" cy="156" r="60.5" stroke="#E06529"/>
<defs>
<filter id="filter0_bd_181_2933" x="0.593994" y="0.299805" width="335.752" height="325.764" filterUnits="userSpaceOnUse" color-interpolation-filters="sRGB">
<feFlood flood-opacity="0" result="BackgroundImageFix"/>
<feGaussianBlur in="BackgroundImage" stdDeviation="7.63798"/>
<feComposite in2="SourceAlpha" operator="in" result="effect1_backgroundBlur_181_2933"/>
<feColorMatrix in="SourceAlpha" type="matrix" values="0 0 0 0 0 0 0 0 0 0 0 0 0 0 0 0 0 0 127 0" result="hardAlpha"/>
<feOffset dy="4"/>
<feGaussianBlur stdDeviation="69.5"/>
<feComposite in2="hardAlpha" operator="out"/>
<feColorMatrix type="matrix" values="0 0 0 0 0.501961 0 0 0 0 0.501961 0 0 0 0 1 0 0 0 1 0"/>
<feBlend mode="normal" in2="effect1_backgroundBlur_181_2933" result="effect2_dropShadow_181_2933"/>
<feBlend mode="normal" in="SourceGraphic" in2="effect2_dropShadow_181_2933" result="shape"/>
</filter>
<radialGradient id="paint0_radial_181_2933" cx="0" cy="0" r="1" gradientUnits="userSpaceOnUse" gradientTransform="translate(154.025 156.009) rotate(-14.953) scale(66.8864 110.453)">
<stop stop-color="#3347FF"/>
<stop offset="0.749777" stop-color="#DFE2FF" stop-opacity="0.54725"/>
<stop offset="1" stop-color="#6B7AFF"/>
</radialGradient>
<linearGradient id="paint1_linear_181_2933" x1="144.315" y1="152.678" x2="160.392" y2="186.862" gradientUnits="userSpaceOnUse">
<stop stop-color="white" stop-opacity="0.64"/>
<stop offset="1" stop-color="white" stop-opacity="0.24"/>
</linearGradient>
</defs>
</svg>
