<svg width="574" height="120" viewBox="0 0 574 120" fill="none" xmlns="http://www.w3.org/2000/svg">
<path d="M82.304 16.456H83.304V15.456H82.304V16.456ZM82.304 72.904H81.304V73.904H82.304V72.904ZM91.424 72.904H92.424V71.904H91.424V72.904ZM91.424 104.968V105.968H92.424V104.968H91.424ZM77.408 104.968H76.408V105.968H77.408V104.968ZM77.408 85H78.408V84H77.408V85ZM34.496 85V84H33.496V85H34.496ZM34.496 104.968V105.968H35.496V104.968H34.496ZM20.48 104.968H19.48V105.968H20.48V104.968ZM20.48 72.904V71.904H19.48V72.904H20.48ZM25.76 72.904V73.904H26.378L26.6544 73.3512L25.76 72.904ZM30.944 61.576L31.8662 61.9627L31.8662 61.9627L30.944 61.576ZM35.552 48.808L34.6006 48.4998L34.5968 48.512L35.552 48.808ZM39.488 34.024L40.4653 34.2359L40.4658 34.2335L39.488 34.024ZM42.368 16.456V15.456H41.4819L41.3753 16.3357L42.368 16.456ZM53.888 28.552V27.552H53.0136L52.8969 28.4186L53.888 28.552ZM51.968 39.208L52.9438 39.4267L52.9446 39.4232L51.968 39.208ZM48.992 50.632L48.0329 50.349L48.0307 50.3562L48.0287 50.3635L48.992 50.632ZM45.344 62.152L44.4019 61.8167L44.4019 61.8167L45.344 62.152ZM41.024 72.904L40.113 72.4915L39.4734 73.904H41.024V72.904ZM67.808 72.904V73.904H68.808V72.904H67.808ZM67.808 28.552H68.808V27.552H67.808V28.552ZM81.304 16.456V72.904H83.304V16.456H81.304ZM82.304 73.904H91.424V71.904H82.304V73.904ZM90.424 72.904V104.968H92.424V72.904H90.424ZM91.424 103.968H77.408V105.968H91.424V103.968ZM78.408 104.968V85H76.408V104.968H78.408ZM77.408 84H34.496V86H77.408V84ZM33.496 85V104.968H35.496V85H33.496ZM34.496 103.968H20.48V105.968H34.496V103.968ZM21.48 104.968V72.904H19.48V104.968H21.48ZM20.48 73.904H25.76V71.904H20.48V73.904ZM26.6544 73.3512C28.457 69.746 30.1942 65.9497 31.8662 61.9627L30.0218 61.1893C28.3658 65.1383 26.647 68.894 24.8656 72.4568L26.6544 73.3512ZM31.8662 61.9627C33.5439 57.9621 35.0906 53.6756 36.5072 49.104L34.5968 48.512C33.1974 53.0284 31.6721 57.2539 30.0218 61.1893L31.8662 61.9627ZM36.5033 49.1162C37.9869 44.5366 39.3072 39.5761 40.4653 34.2359L38.5107 33.8121C37.3648 39.0959 36.0611 43.9914 34.6007 48.4998L36.5033 49.1162ZM40.4658 34.2335C41.625 28.8238 42.5897 22.9376 43.3607 16.5763L41.3753 16.3357C40.6103 22.6464 39.655 28.4722 38.5102 33.8145L40.4658 34.2335ZM42.368 17.456H82.304V15.456H42.368V17.456ZM52.8969 28.4186C52.4531 31.7154 51.8183 35.2399 50.9914 38.9928L52.9446 39.4232C53.7817 35.6241 54.4269 32.0446 54.8791 28.6854L52.8969 28.4186ZM50.9922 38.9893C50.1654 42.6782 49.179 46.4648 48.0329 50.349L49.9511 50.915C51.109 46.9912 52.1066 43.1618 52.9438 39.4267L50.9922 38.9893ZM48.0287 50.3635C46.9469 54.2453 45.738 58.063 44.4019 61.8167L46.2861 62.4873C47.638 58.689 48.8611 54.8267 49.9553 50.9005L48.0287 50.3635ZM44.4019 61.8167C43.0665 65.5685 41.6368 69.1266 40.113 72.4915L41.935 73.3165C43.4832 69.8974 44.9335 66.2875 46.2861 62.4873L44.4019 61.8167ZM41.024 73.904H67.808V71.904H41.024V73.904ZM68.808 72.904V28.552H66.808V72.904H68.808ZM67.808 27.552H53.888V29.552H67.808V27.552ZM142.944 70.312L142.003 69.9745L142 69.9825L141.998 69.9904L142.944 70.312ZM137.857 78.952L137.13 78.2648L137.129 78.2654L137.857 78.952ZM129.889 84.232L130.233 85.1707L130.242 85.1676L130.25 85.1644L129.889 84.232ZM109.056 84.232L108.688 85.1618L108.7 85.1664L108.712 85.1707L109.056 84.232ZM101.088 78.952L100.362 79.6393L100.372 79.6491L101.088 78.952ZM95.8085 70.312L94.8672 70.6495L94.87 70.6573L94.8729 70.6651L95.8085 70.312ZM97.0565 44.008L97.9451 44.4667L97.9481 44.4609L97.0565 44.008ZM105.888 34.792L106.37 35.6682L106.37 35.6682L105.888 34.792ZM132.576 34.792L132.088 35.6648L132.088 35.6648L132.576 34.792ZM141.504 44.008L140.624 44.4829L140.628 44.4888L141.504 44.008ZM109.632 67.432L108.674 67.717L108.679 67.7327L108.684 67.7482L109.632 67.432ZM113.184 72.712L112.579 73.5082L112.59 73.516L112.6 73.5235L113.184 72.712ZM125.568 72.712L126.169 73.512L126.174 73.5082L125.568 72.712ZM129.024 67.432L128.073 67.1235L128.071 67.1316L128.068 67.1398L129.024 67.432ZM129.024 50.056L128.068 50.3482L128.072 50.3603L128.076 50.3722L129.024 50.056ZM111.072 47.08L110.237 46.53L110.234 46.535L111.072 47.08ZM143.768 58.696C143.768 62.9562 143.173 66.7107 142.003 69.9745L143.886 70.6495C145.148 67.1293 145.768 63.1398 145.768 58.696H143.768ZM141.998 69.9904C140.887 73.2597 139.262 76.0114 137.13 78.2648L138.583 79.6392C140.931 77.1566 142.698 74.1483 143.891 70.6336L141.998 69.9904ZM137.129 78.2654C135.062 80.4547 132.533 82.134 129.527 83.2996L130.25 85.1644C133.516 83.898 136.299 82.0573 138.584 79.6386L137.129 78.2654ZM129.544 83.2933C126.537 84.3979 123.104 84.96 119.233 84.96V86.96C123.297 86.96 126.968 86.3701 130.233 85.1707L129.544 83.2933ZM119.233 84.96C115.691 84.96 112.417 84.4012 109.401 83.2933L108.712 85.1707C111.968 86.3668 115.478 86.96 119.233 86.96V84.96ZM109.425 83.3022C106.48 82.1367 103.944 80.4547 101.805 78.2549L100.372 79.6491C102.713 82.0573 105.489 83.8953 108.688 85.1618L109.425 83.3022ZM101.815 78.2648C99.6759 76.0035 97.9825 73.2407 96.7441 69.9589L94.8729 70.6651C96.1945 74.1673 98.0211 77.1645 100.362 79.6392L101.815 78.2648ZM96.7498 69.9745C95.5798 66.7107 94.9845 62.9562 94.9845 58.696H92.9845C92.9845 63.1398 93.6052 67.1293 94.8672 70.6495L96.7498 69.9745ZM94.9845 58.696C94.9845 52.9847 95.9891 48.2563 97.9451 44.4666L96.1679 43.5494C94.0279 47.6957 92.9845 52.7593 92.9845 58.696H94.9845ZM97.9481 44.4609C99.9082 40.6018 102.712 37.6802 106.37 35.6682L105.407 33.9158C101.385 36.1278 98.3008 39.3502 96.1649 43.5551L97.9481 44.4609ZM106.37 35.6682C110.036 33.652 114.408 32.624 119.52 32.624V30.624C114.137 30.624 109.421 31.708 105.407 33.9158L106.37 35.6682ZM119.52 32.624C124.302 32.624 128.481 33.6472 132.088 35.6648L133.065 33.9192C129.12 31.7128 124.595 30.624 119.52 30.624V32.624ZM132.088 35.6648C135.689 37.6785 138.533 40.6077 140.624 44.4829L142.385 43.5331C140.124 39.3443 137.016 36.1295 133.065 33.9192L132.088 35.6648ZM140.628 44.4888C142.703 48.2731 143.768 52.9931 143.768 58.696H145.768C145.768 52.7509 144.658 47.6789 142.381 43.5272L140.628 44.4888ZM107.576 58.696C107.576 62.2132 107.934 65.2278 108.674 67.717L110.591 67.147C109.923 64.9002 109.576 62.0908 109.576 58.696H107.576ZM108.684 67.7482C109.502 70.2027 110.788 72.1469 112.579 73.5082L113.79 71.9158C112.381 70.8451 111.299 69.2693 110.581 67.1158L108.684 67.7482ZM112.6 73.5235C114.415 74.8301 116.717 75.44 119.424 75.44V73.44C117.012 73.44 115.154 72.8979 113.769 71.9005L112.6 73.5235ZM119.424 75.44C122.129 75.44 124.41 74.8311 126.168 73.512L124.968 71.912C123.655 72.8969 121.84 73.44 119.424 73.44V75.44ZM126.174 73.5082C127.972 72.1416 129.228 70.188 129.981 67.7242L128.068 67.1398C127.413 69.284 126.365 70.8504 124.963 71.9158L126.174 73.5082ZM129.976 67.7405C130.786 65.2425 131.176 62.2192 131.176 58.696H129.176C129.176 62.0847 128.799 64.8855 128.073 67.1235L129.976 67.7405ZM131.176 58.696C131.176 55.1741 130.786 52.1789 129.973 49.7398L128.076 50.3722C128.799 52.5411 129.176 55.3059 129.176 58.696H131.176ZM129.981 49.7638C129.227 47.2982 127.967 45.3665 126.153 44.0605L124.984 45.6835C126.37 46.6815 127.414 48.2058 128.068 50.3482L129.981 49.7638ZM126.153 44.0605C124.338 42.7539 122.036 42.144 119.328 42.144V44.144C121.741 44.144 123.599 44.6861 124.984 45.6835L126.153 44.0605ZM119.328 42.144C115.294 42.144 112.19 43.5656 110.237 46.53L111.908 47.63C113.411 45.3464 115.811 44.144 119.328 44.144V42.144ZM110.234 46.535C108.414 49.3349 107.576 53.4386 107.576 58.696H109.576C109.576 53.5854 110.403 49.9451 111.911 47.625L110.234 46.535ZM187.31 32.584V31.584H186.825L186.525 31.9647L187.31 32.584ZM203.054 32.584L203.826 33.2201L205.174 31.584H203.054V32.584ZM182.318 57.736L181.546 57.0999L181.021 57.7372L181.548 58.3735L182.318 57.736ZM204.878 85V86H207.003L205.648 84.3625L204.878 85ZM188.654 85L187.875 85.6271L188.175 86H188.654V85ZM167.246 58.408L168.025 57.7809L166.246 55.5712V58.408H167.246ZM167.246 85V86H168.246V85H167.246ZM152.942 85H151.942V86H152.942V85ZM152.942 32.584V31.584H151.942V32.584H152.942ZM167.246 32.584H168.246V31.584H167.246V32.584ZM167.246 58.024H166.246V60.9068L168.031 58.6433L167.246 58.024ZM187.31 33.584H203.054V31.584H187.31V33.584ZM202.282 31.9479L181.546 57.0999L183.09 58.3721L203.826 33.2201L202.282 31.9479ZM181.548 58.3735L204.108 85.6375L205.648 84.3625L183.088 57.0985L181.548 58.3735ZM204.878 84H188.654V86H204.878V84ZM189.433 84.3729L168.025 57.7809L166.467 59.0351L187.875 85.6271L189.433 84.3729ZM166.246 58.408V85H168.246V58.408H166.246ZM167.246 84H152.942V86H167.246V84ZM153.942 85V32.584H151.942V85H153.942ZM152.942 33.584H167.246V31.584H152.942V33.584ZM166.246 32.584V58.024H168.246V32.584H166.246ZM168.031 58.6433L188.095 33.2033L186.525 31.9647L166.461 57.4047L168.031 58.6433ZM201.243 32.584V31.584H199.766L200.315 32.9557L201.243 32.584ZM216.891 32.584L217.84 32.2659L217.611 31.584H216.891V32.584ZM226.78 62.056L227.728 61.7398L227.728 61.7379L226.78 62.056ZM227.548 64.936L226.567 65.1321L226.573 65.1631L226.581 65.1937L227.548 64.936ZM228.123 67.912L227.131 68.036L227.135 68.0663L227.141 68.0963L228.123 67.912ZM228.508 71.176L227.509 71.2315L227.562 72.176H228.508V71.176ZM228.795 71.176V72.176H229.687L229.789 71.2906L228.795 71.176ZM229.564 66.472L228.593 66.2295L228.59 66.2445L228.586 66.2596L229.564 66.472ZM230.812 62.056L229.862 61.7435L229.859 61.7528L230.812 62.056ZM240.508 32.584V31.584H239.784L239.558 32.2715L240.508 32.584ZM255.868 32.584L256.804 32.9351L257.311 31.584H255.868V32.584ZM233.692 91.72L234.628 92.0711L234.628 92.0711L233.692 91.72ZM228.412 100.744L227.666 100.077L227.661 100.083L227.656 100.088L228.412 100.744ZM221.02 106.216L221.416 107.134L221.416 107.134L221.02 106.216ZM207.579 107.752L207.735 106.764L207.713 106.761L207.69 106.758L207.579 107.752ZM204.507 107.272H203.507V108.08L204.298 108.25L204.507 107.272ZM204.507 95.944L204.686 94.9601L203.507 94.7458V95.944H204.507ZM207.003 96.328L206.871 97.3193L206.879 97.3203L207.003 96.328ZM215.26 95.272L214.767 94.4014L214.759 94.4062L214.751 94.4111L215.26 95.272ZM218.908 91.816L218.081 91.2527L218.075 91.2611L218.07 91.2697L218.908 91.816ZM221.212 87.208L222.157 87.5351L222.16 87.5242L221.212 87.208ZM222.076 84.616L223.024 84.9322L223.14 84.5845L223.004 84.2443L222.076 84.616ZM201.243 33.584H216.891V31.584H201.243V33.584ZM215.943 32.9021L225.831 62.3741L227.728 61.7379L217.84 32.2659L215.943 32.9021ZM225.831 62.3722C226.138 63.2942 226.383 64.2141 226.567 65.1321L228.528 64.7399C228.328 63.7379 228.061 62.7378 227.728 61.7398L225.831 62.3722ZM226.581 65.1937C226.825 66.1081 227.009 67.0554 227.131 68.036L229.116 67.788C228.982 66.7206 228.782 65.6839 228.514 64.6783L226.581 65.1937ZM227.141 68.0963C227.324 69.0735 227.447 70.1182 227.509 71.2315L229.506 71.1205C229.44 69.9298 229.307 68.7985 229.106 67.7277L227.141 68.0963ZM228.508 72.176H228.795V70.176H228.508V72.176ZM229.789 71.2906C229.978 69.6559 230.228 68.1208 230.541 66.6844L228.586 66.2596C228.259 67.7672 227.997 69.3681 227.802 71.0614L229.789 71.2906ZM230.534 66.7145C230.913 65.1975 231.323 63.7458 231.764 62.3592L229.859 61.7528C229.404 63.1822 228.982 64.6745 228.593 66.2295L230.534 66.7145ZM231.761 62.3685L241.457 32.8965L239.558 32.2715L229.862 61.7435L231.761 62.3685ZM240.508 33.584H255.868V31.584H240.508V33.584ZM254.931 32.2329L232.755 91.3689L234.628 92.0711L256.804 32.9351L254.931 32.2329ZM232.755 91.3689C231.447 94.8564 229.747 97.7522 227.666 100.077L229.157 101.411C231.428 98.8718 233.248 95.7516 234.628 92.0711L232.755 91.3689ZM227.656 100.088C225.638 102.413 223.294 104.144 220.623 105.298L221.416 107.134C224.377 105.856 226.961 103.939 229.167 101.4L227.656 100.088ZM220.623 105.298C217.943 106.455 215.007 107.04 211.804 107.04V109.04C215.256 109.04 218.464 108.409 221.416 107.134L220.623 105.298ZM211.804 107.04C210.241 107.04 208.887 106.946 207.735 106.764L207.424 108.74C208.704 108.942 210.166 109.04 211.804 109.04V107.04ZM207.69 106.758C206.563 106.633 205.573 106.478 204.717 106.294L204.298 108.25C205.234 108.45 206.292 108.615 207.469 108.746L207.69 106.758ZM205.507 107.272V95.944H203.507V107.272H205.507ZM204.329 96.9279C205.052 97.0595 205.901 97.1898 206.871 97.3192L207.136 95.3368C206.186 95.2102 205.371 95.0845 204.686 94.9601L204.329 96.9279ZM206.879 97.3203C207.947 97.4537 209.044 97.52 210.171 97.52V95.52C209.123 95.52 208.108 95.4583 207.128 95.3357L206.879 97.3203ZM210.171 97.52C212.296 97.52 214.176 97.0736 215.768 96.1329L214.751 94.4111C213.527 95.1344 212.015 95.52 210.171 95.52V97.52ZM215.752 96.1426C217.369 95.2286 218.701 93.963 219.745 92.3623L218.07 91.2697C217.194 92.613 216.094 93.6514 214.767 94.4014L215.752 96.1426ZM219.734 92.3793C220.745 90.8958 221.552 89.28 222.156 87.5351L220.267 86.8809C219.719 88.464 218.99 89.9202 218.081 91.2527L219.734 92.3793ZM222.16 87.5242L223.024 84.9322L221.127 84.2998L220.263 86.8918L222.16 87.5242ZM223.004 84.2443L202.172 32.2123L200.315 32.9557L221.147 84.9877L223.004 84.2443ZM325.788 32.584H326.788V31.584H325.788V32.584ZM325.788 85V86H326.788V85H325.788ZM312.444 85H311.444V86H312.444V85ZM312.54 51.784L311.541 51.7314L311.54 51.7446L311.54 51.7577L312.54 51.784ZM313.02 45.064L314.015 45.1573L314.118 44.064H313.02V45.064ZM312.732 45.064V44.064H312.031L311.792 44.7228L312.732 45.064ZM298.236 85V86H298.937L299.176 85.3412L298.236 85ZM287.484 85L286.545 85.3445L286.785 86H287.484V85ZM272.796 44.968L273.735 44.6235L273.494 43.968H272.796V44.968ZM272.412 44.968V43.968H271.283L271.419 45.0883L272.412 44.968ZM272.892 51.784L271.892 51.8103L271.892 51.8241L271.893 51.838L272.892 51.784ZM273.084 85V86H274.084V85H273.084ZM259.74 85H258.74V86H259.74V85ZM259.74 32.584V31.584H258.74V32.584H259.74ZM279.996 32.584L280.934 32.239L280.694 31.584H279.996V32.584ZM293.052 68.104L292.113 68.449L293.045 70.9839L293.989 68.4535L293.052 68.104ZM306.3 32.584V31.584H305.605L305.363 32.2345L306.3 32.584ZM324.788 32.584V85H326.788V32.584H324.788ZM325.788 84H312.444V86H325.788V84ZM313.444 85V59.272H311.444V85H313.444ZM313.444 59.272C313.444 56.7203 313.476 54.2331 313.539 51.8103L311.54 51.7577C311.476 54.1989 311.444 56.7037 311.444 59.272H313.444ZM313.538 51.8366C313.666 49.4158 313.825 47.1896 314.015 45.1573L312.024 44.9707C311.831 47.0344 311.67 49.2882 311.541 51.7314L313.538 51.8366ZM313.02 44.064H312.732V46.064H313.02V44.064ZM311.792 44.7228L297.296 84.6588L299.176 85.3412L313.672 45.4052L311.792 44.7228ZM298.236 84H287.484V86H298.236V84ZM288.423 84.6555L273.735 44.6235L271.857 45.3125L286.545 85.3445L288.423 84.6555ZM272.796 43.968H272.412V45.968H272.796V43.968ZM271.419 45.0883C271.671 47.1651 271.829 49.4054 271.892 51.8103L273.891 51.7577C273.827 49.2986 273.665 46.9949 273.404 44.8477L271.419 45.0883ZM271.893 51.838C272.02 54.1847 272.084 56.7903 272.084 59.656H274.084C274.084 56.7617 274.019 54.1193 273.89 51.73L271.893 51.838ZM272.084 59.656V85H274.084V59.656H272.084ZM273.084 84H259.74V86H273.084V84ZM260.74 85V32.584H258.74V85H260.74ZM259.74 33.584H279.996V31.584H259.74V33.584ZM279.057 32.929L292.113 68.449L293.99 67.759L280.934 32.239L279.057 32.929ZM293.989 68.4535L307.237 32.9335L305.363 32.2345L292.115 67.7545L293.989 68.4535ZM306.3 33.584H325.788V31.584H306.3V33.584ZM371.172 34.408L370.699 35.289L370.705 35.2926L371.172 34.408ZM379.332 42.472L378.454 42.9508L378.454 42.9509L379.332 42.472ZM382.212 62.344V63.344H383.212V62.344H382.212ZM348.42 62.344V61.344H347.388L347.42 62.3757L348.42 62.344ZM351.972 71.848L351.255 72.5451L351.265 72.5551L351.972 71.848ZM370.692 74.344L370.918 75.318L370.929 75.3155L370.94 75.3128L370.692 74.344ZM379.236 71.176H380.236V69.5893L378.804 70.2739L379.236 71.176ZM379.236 82.216L379.683 83.1104L380.236 82.834V82.216H379.236ZM371.076 85L370.88 84.0194L370.867 84.022L370.854 84.0249L371.076 85ZM346.884 83.08L346.442 83.9773L346.454 83.9829L346.884 83.08ZM337.38 74.152L336.515 74.6541L336.515 74.6541L337.38 74.152ZM336.996 43.912L336.107 43.4537L336.104 43.4591L336.996 43.912ZM345.732 34.696L345.249 33.8204L345.249 33.8204L345.732 34.696ZM351.876 44.488L351.181 43.7686L351.175 43.7747L351.169 43.7809L351.876 44.488ZM348.708 52.84L347.711 52.7556L347.619 53.84H348.708V52.84ZM368.772 52.84V53.84H369.772V52.84H368.772ZM367.62 47.176L366.699 47.5656L366.705 47.5805L366.712 47.5951L367.62 47.176ZM364.356 43.24L364.902 42.4024L364.902 42.4024L364.356 43.24ZM358.692 32.624C363.43 32.624 367.419 33.5277 370.699 35.289L371.645 33.527C368.013 31.5763 363.682 30.624 358.692 30.624V32.624ZM370.705 35.2926C374.05 37.056 376.627 39.6022 378.454 42.9508L380.21 41.9931C378.196 38.3018 375.334 35.472 371.638 33.5234L370.705 35.2926ZM378.454 42.9509C380.275 46.2888 381.212 50.4341 381.212 55.432H383.212C383.212 50.1899 382.229 45.6952 380.21 41.9931L378.454 42.9509ZM381.212 55.432V62.344H383.212V55.432H381.212ZM382.212 61.344H348.42V63.344H382.212V61.344ZM347.42 62.3757C347.554 66.5908 348.8 70.0199 351.255 72.5451L352.689 71.1509C350.664 69.0681 349.541 66.1612 349.419 62.3123L347.42 62.3757ZM351.265 72.5551C353.799 75.0891 357.245 76.304 361.476 76.304V74.304C357.642 74.304 354.753 73.2149 352.679 71.1409L351.265 72.5551ZM361.476 76.304C364.929 76.304 368.079 75.9783 370.918 75.318L370.465 73.37C367.801 73.9897 364.806 74.304 361.476 74.304V76.304ZM370.94 75.3128C373.763 74.5904 376.673 73.5102 379.667 72.0781L378.804 70.2739C375.911 71.6578 373.124 72.6896 370.444 73.3752L370.94 75.3128ZM378.236 71.176V82.216H380.236V71.176H378.236ZM378.789 81.3216C376.31 82.5608 373.675 83.4604 370.88 84.0194L371.272 85.9806C374.237 85.3876 377.041 84.4312 379.683 83.1104L378.789 81.3216ZM370.854 84.0249C368.133 84.6433 364.788 84.96 360.804 84.96V86.96C364.883 86.96 368.386 86.6367 371.297 85.9751L370.854 84.0249ZM360.804 84.96C355.679 84.96 351.19 84.0229 347.314 82.1771L346.454 83.9829C350.642 85.9771 355.433 86.96 360.804 86.96V84.96ZM347.325 82.1827C343.474 80.2878 340.452 77.4511 338.245 73.6499L336.515 74.6541C338.916 78.7889 342.229 81.9042 346.442 83.9773L347.325 82.1827ZM338.245 73.6499C336.053 69.8747 334.924 65.069 334.924 59.176H332.924C332.924 65.315 334.099 70.4933 336.515 74.6541L338.245 73.6499ZM334.924 59.176C334.924 53.1357 335.931 48.2155 337.887 44.3649L336.104 43.4591C333.964 47.6725 332.924 52.9283 332.924 59.176H334.924ZM337.885 44.3703C339.914 40.4345 342.692 37.5154 346.215 35.5716L345.249 33.8204C341.348 35.9726 338.302 39.1975 336.107 43.4537L337.885 44.3703ZM346.215 35.5716C349.756 33.6176 353.905 32.624 358.692 32.624V30.624C353.622 30.624 349.131 31.6784 345.249 33.8204L346.215 35.5716ZM358.788 40.8C355.796 40.8 353.237 41.7838 351.181 43.7686L352.57 45.2074C354.227 43.6082 356.276 42.8 358.788 42.8V40.8ZM351.169 43.7809C349.144 45.8052 348.042 48.8569 347.711 52.7556L349.704 52.9244C350.014 49.2711 351.023 46.7548 352.583 45.1951L351.169 43.7809ZM348.708 53.84H368.772V51.84H348.708V53.84ZM369.772 52.84C369.772 50.6053 369.365 48.5709 368.528 46.7569L366.712 47.5951C367.411 49.1091 367.772 50.8507 367.772 52.84H369.772ZM368.541 46.7864C367.762 44.9445 366.546 43.4743 364.902 42.4024L363.809 44.0776C365.11 44.9257 366.07 46.0794 366.699 47.5656L368.541 46.7864ZM364.902 42.4024C363.228 41.3108 361.169 40.8 358.788 40.8V42.8C360.887 42.8 362.539 43.2492 363.809 44.0776L364.902 42.4024ZM404.467 32.584H405.467V31.584H404.467V32.584ZM404.467 52.744H403.467V53.744H404.467V52.744ZM424.435 52.744V53.744H425.435V52.744H424.435ZM424.435 32.584V31.584H423.435V32.584H424.435ZM438.739 32.584H439.739V31.584H438.739V32.584ZM438.739 85V86H439.739V85H438.739ZM424.435 85H423.435V86H424.435V85ZM424.435 63.4H425.435V62.4H424.435V63.4ZM404.467 63.4V62.4H403.467V63.4H404.467ZM404.467 85V86H405.467V85H404.467ZM390.162 85H389.162V86H390.162V85ZM390.162 32.584V31.584H389.162V32.584H390.162ZM403.467 32.584V52.744H405.467V32.584H403.467ZM404.467 53.744H424.435V51.744H404.467V53.744ZM425.435 52.744V32.584H423.435V52.744H425.435ZM424.435 33.584H438.739V31.584H424.435V33.584ZM437.739 32.584V85H439.739V32.584H437.739ZM438.739 84H424.435V86H438.739V84ZM425.435 85V63.4H423.435V85H425.435ZM424.435 62.4H404.467V64.4H424.435V62.4ZM403.467 63.4V85H405.467V63.4H403.467ZM404.467 84H390.162V86H404.467V84ZM391.162 85V32.584H389.162V85H391.162ZM390.162 33.584H404.467V31.584H390.162V33.584ZM493.469 43.336V44.336H494.469V43.336H493.469ZM476.285 43.336V42.336H475.285V43.336H476.285ZM476.285 85V86H477.285V85H476.285ZM461.981 85H460.981V86H461.981V85ZM461.981 43.336H462.981V42.336H461.981V43.336ZM444.797 43.336H443.797V44.336H444.797V43.336ZM444.797 32.584V31.584H443.797V32.584H444.797ZM493.469 32.584H494.469V31.584H493.469V32.584ZM493.469 42.336H476.285V44.336H493.469V42.336ZM475.285 43.336V85H477.285V43.336H475.285ZM476.285 84H461.981V86H476.285V84ZM462.981 85V43.336H460.981V85H462.981ZM461.981 42.336H444.797V44.336H461.981V42.336ZM445.797 43.336V32.584H443.797V43.336H445.797ZM444.797 33.584H493.469V31.584H444.797V33.584ZM492.469 32.584V43.336H494.469V32.584H492.469ZM499.492 85H498.492V86H499.492V85ZM499.492 32.584V31.584H498.492V32.584H499.492ZM513.796 32.584H514.796V31.584H513.796V32.584ZM513.796 52.84H512.796V53.84H513.796V52.84ZM533.956 54.568L533.639 55.5167L533.647 55.5193L533.655 55.5218L533.956 54.568ZM541.636 59.656L540.825 60.2415L540.83 60.2488L540.836 60.256L541.636 59.656ZM541.828 77.128L540.986 76.5883L540.981 76.5961L540.976 76.6039L541.828 77.128ZM534.436 82.984L534.81 83.9113L534.819 83.9076L534.436 82.984ZM527.236 73.576L526.739 72.7078L526.733 72.7117L526.726 72.7157L527.236 73.576ZM527.428 64.072L526.939 64.9445L526.946 64.9485L526.953 64.9525L527.428 64.072ZM513.796 62.728V61.728H512.796V62.728H513.796ZM513.796 75.112H512.796V76.112H513.796V75.112ZM551.812 85H550.812V86H551.812V85ZM551.812 32.584V31.584H550.812V32.584H551.812ZM566.116 32.584H567.116V31.584H566.116V32.584ZM566.116 85V86H567.116V85H566.116ZM500.492 85V32.584H498.492V85H500.492ZM499.492 33.584H513.796V31.584H499.492V33.584ZM512.796 32.584V52.84H514.796V32.584H512.796ZM513.796 53.84H520.708V51.84H513.796V53.84ZM520.708 53.84C526.022 53.84 530.321 54.4107 533.639 55.5167L534.272 53.6193C530.678 52.4213 526.145 51.84 520.708 51.84V53.84ZM533.655 55.5218C536.963 56.5631 539.318 58.1548 540.825 60.2415L542.446 59.0705C540.625 56.5492 537.86 54.7489 534.256 53.6142L533.655 55.5218ZM540.836 60.256C542.409 62.3544 543.228 65.0119 543.228 68.296H545.228C545.228 64.6681 544.318 61.5656 542.436 59.056L540.836 60.256ZM543.228 68.296C543.228 71.525 542.468 74.2756 540.986 76.5883L542.669 77.6677C544.387 74.9884 545.228 71.851 545.228 68.296H543.228ZM540.976 76.6039C539.575 78.8799 537.3 80.7124 534.052 82.0604L534.819 83.9076C538.355 82.4396 541.008 80.3681 542.679 77.6521L540.976 76.6039ZM534.061 82.0568C530.898 83.3341 526.625 84 521.188 84V86C526.758 86 531.317 85.3219 534.81 83.9112L534.061 82.0568ZM521.188 84H499.492V86H521.188V84ZM520.42 76.112C523.346 76.112 525.813 75.5813 527.745 74.4363L526.726 72.7157C525.202 73.6187 523.125 74.112 520.42 74.112V76.112ZM527.732 74.4442C529.887 73.2128 530.924 71.1514 530.924 68.488H528.924C528.924 70.5606 528.168 71.8912 526.739 72.7078L527.732 74.4442ZM530.924 68.488C530.924 67.3278 530.687 66.2708 530.17 65.3559C529.651 64.4368 528.88 63.7181 527.902 63.1915L526.953 64.9525C527.639 65.3219 528.116 65.7872 528.429 66.3401C528.744 66.8972 528.924 67.6001 528.924 68.488H530.924ZM527.916 63.1995C526.093 62.1788 523.488 61.728 520.228 61.728V63.728C523.367 63.728 525.562 64.1732 526.939 64.9445L527.916 63.1995ZM520.228 61.728H513.796V63.728H520.228V61.728ZM512.796 62.728V75.112H514.796V62.728H512.796ZM513.796 76.112H520.42V74.112H513.796V76.112ZM552.812 85V32.584H550.812V85H552.812ZM551.812 33.584H566.116V31.584H551.812V33.584ZM565.116 32.584V85H567.116V32.584H565.116ZM566.116 84H551.812V86H566.116V84Z" fill="#E06529"/>
<path d="M62.304 27.456V83.904H71.424V115.968H57.408V96H14.496V115.968H0.48V83.904H5.76C7.552 80.32 9.28 76.544 10.944 72.576C12.608 68.608 14.144 64.352 15.552 59.808C17.024 55.264 18.336 50.336 19.488 45.024C20.64 39.648 21.6 33.792 22.368 27.456H62.304ZM33.888 39.552C33.44 42.88 32.8 46.432 31.968 50.208C31.136 53.92 30.144 57.728 28.992 61.632C27.904 65.536 26.688 69.376 25.344 73.152C24 76.928 22.56 80.512 21.024 83.904H47.808V39.552H33.888ZM124.768 69.696C124.768 74.048 124.16 77.92 122.944 81.312C121.792 84.704 120.096 87.584 117.857 89.952C115.681 92.256 113.024 94.016 109.889 95.232C106.752 96.384 103.2 96.96 99.2325 96.96C95.5845 96.96 92.1925 96.384 89.0565 95.232C85.9845 94.016 83.3285 92.256 81.0885 89.952C78.8485 87.584 77.0885 84.704 75.8085 81.312C74.5925 77.92 73.9845 74.048 73.9845 69.696C73.9845 63.872 75.0085 58.976 77.0565 55.008C79.1045 50.976 82.0485 47.904 85.8885 45.792C89.7285 43.68 94.2725 42.624 99.5205 42.624C104.448 42.624 108.8 43.68 112.576 45.792C116.353 47.904 119.329 50.976 121.504 55.008C123.68 58.976 124.768 63.872 124.768 69.696ZM88.5765 69.696C88.5765 73.152 88.9285 76.064 89.6325 78.432C90.4005 80.736 91.5845 82.496 93.1845 83.712C94.7845 84.864 96.8645 85.44 99.4245 85.44C101.984 85.44 104.032 84.864 105.568 83.712C107.168 82.496 108.32 80.736 109.024 78.432C109.792 76.064 110.176 73.152 110.176 69.696C110.176 66.24 109.792 63.36 109.024 61.056C108.32 58.752 107.168 57.024 105.568 55.872C103.968 54.72 101.888 54.144 99.3285 54.144C95.5525 54.144 92.8005 55.456 91.0725 58.08C89.4085 60.64 88.5765 64.512 88.5765 69.696ZM167.31 43.584H183.054L162.318 68.736L184.878 96H168.654L147.246 69.408V96H132.942V43.584H147.246V69.024L167.31 43.584ZM181.243 43.584H196.891L206.78 73.056C207.1 74.016 207.356 74.976 207.548 75.936C207.804 76.896 207.996 77.888 208.123 78.912C208.316 79.936 208.444 81.024 208.508 82.176H208.795C208.988 80.512 209.244 78.944 209.564 77.472C209.948 75.936 210.364 74.464 210.812 73.056L220.508 43.584H235.868L213.692 102.72C212.348 106.304 210.588 109.312 208.412 111.744C206.3 114.176 203.836 116 201.02 117.216C198.204 118.432 195.132 119.04 191.804 119.04C190.204 119.04 188.795 118.944 187.579 118.752C186.427 118.624 185.403 118.464 184.507 118.272V106.944C185.211 107.072 186.043 107.2 187.003 107.328C188.028 107.456 189.084 107.52 190.171 107.52C192.156 107.52 193.852 107.104 195.26 106.272C196.732 105.44 197.948 104.288 198.908 102.816C199.868 101.408 200.636 99.872 201.212 98.208L202.076 95.616L181.243 43.584ZM305.788 43.584V96H292.444V70.272C292.444 67.712 292.476 65.216 292.54 62.784C292.668 60.352 292.828 58.112 293.02 56.064H292.732L278.236 96H267.484L252.796 55.968H252.412C252.668 58.08 252.828 60.352 252.892 62.784C253.02 65.152 253.084 67.776 253.084 70.656V96H239.74V43.584H259.996L273.052 79.104L286.3 43.584H305.788ZM338.692 42.624C343.556 42.624 347.716 43.552 351.172 45.408C354.692 47.264 357.412 49.952 359.332 53.472C361.252 56.992 362.212 61.312 362.212 66.432V73.344H328.42C328.548 77.376 329.732 80.544 331.972 82.848C334.276 85.152 337.444 86.304 341.476 86.304C344.868 86.304 347.94 85.984 350.692 85.344C353.444 84.64 356.292 83.584 359.236 82.176V93.216C356.676 94.496 353.956 95.424 351.076 96C348.26 96.64 344.836 96.96 340.804 96.96C335.556 96.96 330.916 96 326.884 94.08C322.852 92.096 319.684 89.12 317.38 85.152C315.076 81.184 313.924 76.192 313.924 70.176C313.924 64.032 314.948 58.944 316.996 54.912C319.108 50.816 322.02 47.744 325.732 45.696C329.444 43.648 333.764 42.624 338.692 42.624ZM338.788 52.8C336.036 52.8 333.732 53.696 331.876 55.488C330.084 57.28 329.028 60.064 328.708 63.84H348.772C348.772 61.728 348.388 59.84 347.62 58.176C346.916 56.512 345.828 55.2 344.356 54.24C342.884 53.28 341.028 52.8 338.788 52.8ZM384.467 43.584V63.744H404.435V43.584H418.739V96H404.435V74.4H384.467V96H370.162V43.584H384.467ZM473.469 54.336H456.285V96H441.981V54.336H424.797V43.584H473.469V54.336ZM479.492 96V43.584H493.796V63.84H500.708C506.084 63.84 510.5 64.416 513.956 65.568C517.412 66.656 519.972 68.352 521.636 70.656C523.364 72.96 524.228 75.84 524.228 79.296C524.228 82.688 523.428 85.632 521.828 88.128C520.292 90.624 517.828 92.576 514.436 93.984C511.108 95.328 506.692 96 501.188 96H479.492ZM500.42 86.112C503.236 86.112 505.508 85.6 507.236 84.576C509.028 83.552 509.924 81.856 509.924 79.488C509.924 77.44 509.092 75.968 507.428 75.072C505.828 74.176 503.428 73.728 500.228 73.728H493.796V86.112H500.42ZM531.812 96V43.584H546.116V96H531.812Z" fill="white"/>
</svg>
