<svg width="410" height="107" viewBox="0 0 410 107" fill="none" xmlns="http://www.w3.org/2000/svg">
<path d="M71.8 85V86H72.8V85H71.8ZM57.304 85H56.304V86H57.304V85ZM57.304 55.432H58.304V54.432H57.304V55.432ZM30.136 55.432V54.432H29.136V55.432H30.136ZM30.136 85V86H31.136V85H30.136ZM15.64 85H14.64V86H15.64V85ZM15.64 16.456V15.456H14.64V16.456H15.64ZM30.136 16.456H31.136V15.456H30.136V16.456ZM30.136 43.336H29.136V44.336H30.136V43.336ZM57.304 43.336V44.336H58.304V43.336H57.304ZM57.304 16.456V15.456H56.304V16.456H57.304ZM71.8 16.456H72.8V15.456H71.8V16.456ZM71.8 84H57.304V86H71.8V84ZM58.304 85V55.432H56.304V85H58.304ZM57.304 54.432H30.136V56.432H57.304V54.432ZM29.136 55.432V85H31.136V55.432H29.136ZM30.136 84H15.64V86H30.136V84ZM16.64 85V16.456H14.64V85H16.64ZM15.64 17.456H30.136V15.456H15.64V17.456ZM29.136 16.456V43.336H31.136V16.456H29.136ZM30.136 44.336H57.304V42.336H30.136V44.336ZM58.304 43.336V16.456H56.304V43.336H58.304ZM57.304 17.456H71.8V15.456H57.304V17.456ZM70.8 16.456V85H72.8V16.456H70.8ZM130.038 70.312L129.097 69.9745L129.094 69.9825L129.091 69.9904L130.038 70.312ZM124.95 78.952L124.224 78.2648L124.223 78.2654L124.95 78.952ZM116.982 84.232L117.327 85.1707L117.335 85.1676L117.344 85.1644L116.982 84.232ZM96.1502 84.232L95.7822 85.1618L95.7938 85.1664L95.8054 85.1707L96.1502 84.232ZM88.1822 78.952L87.4557 79.6393L87.4653 79.6491L88.1822 78.952ZM82.9022 70.312L81.9609 70.6495L81.9637 70.6573L81.9666 70.6651L82.9022 70.312ZM84.1502 44.008L85.0389 44.4667L85.0418 44.4609L84.1502 44.008ZM92.9822 34.792L93.4642 35.6682L93.4642 35.6682L92.9822 34.792ZM119.67 34.792L119.182 35.6648L119.182 35.6648L119.67 34.792ZM128.598 44.008L127.718 44.4829L127.721 44.4888L128.598 44.008ZM96.7262 67.432L95.7677 67.717L95.7724 67.7327L95.7776 67.7482L96.7262 67.432ZM100.278 72.712L99.6732 73.5082L99.6835 73.516L99.6939 73.5235L100.278 72.712ZM112.662 72.712L113.262 73.512L113.267 73.5082L112.662 72.712ZM116.118 67.432L115.167 67.1235L115.164 67.1316L115.162 67.1398L116.118 67.432ZM116.118 50.056L115.162 50.3482L115.166 50.3603L115.17 50.3722L116.118 50.056ZM98.1662 47.08L97.3311 46.53L97.3278 46.535L98.1662 47.08ZM130.862 58.696C130.862 62.9562 130.267 66.7107 129.097 69.9745L130.98 70.6495C132.242 67.1293 132.862 63.1398 132.862 58.696H130.862ZM129.091 69.9904C127.981 73.2597 126.355 76.0114 124.224 78.2648L125.677 79.6392C128.025 77.1566 129.791 74.1483 130.985 70.6336L129.091 69.9904ZM124.223 78.2654C122.155 80.4547 119.627 82.134 116.621 83.2996L117.344 85.1644C120.61 83.898 123.393 82.0573 125.677 79.6386L124.223 78.2654ZM116.637 83.2933C113.63 84.3979 110.198 84.96 106.326 84.96V86.96C110.39 86.96 114.062 86.3701 117.327 85.1707L116.637 83.2933ZM106.326 84.96C102.785 84.96 99.5109 84.4012 96.4951 83.2933L95.8054 85.1707C99.0616 86.3668 102.571 86.96 106.326 86.96V84.96ZM96.5183 83.3022C93.574 82.1367 91.0379 80.4547 88.8992 78.2549L87.4653 79.6491C89.8066 82.0573 92.5825 83.8953 95.7822 85.1618L96.5183 83.3022ZM88.9087 78.2648C86.7696 76.0035 85.0763 73.2407 83.8378 69.9589L81.9666 70.6651C83.2882 74.1673 85.1149 77.1645 87.4558 79.6392L88.9087 78.2648ZM83.8436 69.9745C82.6735 66.7107 82.0782 62.9562 82.0782 58.696H80.0782C80.0782 63.1398 80.699 67.1293 81.9609 70.6495L83.8436 69.9745ZM82.0782 58.696C82.0782 52.9847 83.0829 48.2563 85.0389 44.4666L83.2616 43.5494C81.1216 47.6957 80.0782 52.7593 80.0782 58.696H82.0782ZM85.0418 44.4609C87.002 40.6018 89.806 37.6802 93.4642 35.6682L92.5003 33.9158C88.4785 36.1278 85.3945 39.3502 83.2587 43.5551L85.0418 44.4609ZM93.4642 35.6682C97.1299 33.652 101.502 32.624 106.614 32.624V30.624C101.231 30.624 96.5146 31.708 92.5003 33.9158L93.4642 35.6682ZM106.614 32.624C111.395 32.624 115.575 33.6472 119.182 35.6648L120.158 33.9192C116.214 31.7128 111.689 30.624 106.614 30.624V32.624ZM119.182 35.6648C122.782 37.6785 125.627 40.6077 127.718 44.4829L129.478 43.5331C127.218 39.3443 124.11 36.1295 120.158 33.9192L119.182 35.6648ZM127.721 44.4888C129.797 48.2731 130.862 52.9931 130.862 58.696H132.862C132.862 52.7509 131.752 47.6789 129.475 43.5272L127.721 44.4888ZM94.6702 58.696C94.6702 62.2132 95.0277 65.2278 95.7677 67.717L97.6848 67.147C97.0168 64.9002 96.6702 62.0908 96.6702 58.696H94.6702ZM95.7776 67.7482C96.5957 70.2027 97.8821 72.1469 99.6732 73.5082L100.883 71.9158C99.4744 70.8451 98.3928 69.2693 97.6749 67.1158L95.7776 67.7482ZM99.6939 73.5235C101.509 74.8301 103.811 75.44 106.518 75.44V73.44C104.106 73.44 102.248 72.8979 100.863 71.9005L99.6939 73.5235ZM106.518 75.44C109.223 75.44 111.503 74.8311 113.262 73.512L112.062 71.912C110.749 72.8969 108.934 73.44 106.518 73.44V75.44ZM113.267 73.5082C115.065 72.1416 116.322 70.188 117.075 67.7242L115.162 67.1398C114.507 69.284 113.459 70.8504 112.057 71.9158L113.267 73.5082ZM117.069 67.7405C117.88 65.2425 118.27 62.2192 118.27 58.696H116.27C116.27 62.0847 115.893 64.8855 115.167 67.1235L117.069 67.7405ZM118.27 58.696C118.27 55.1741 117.88 52.1789 117.067 49.7398L115.17 50.3722C115.893 52.5411 116.27 55.3059 116.27 58.696H118.27ZM117.075 49.7638C116.321 47.2982 115.061 45.3665 113.247 44.0605L112.078 45.6835C113.464 46.6815 114.507 48.2058 115.162 50.3482L117.075 49.7638ZM113.247 44.0605C111.432 42.7539 109.13 42.144 106.422 42.144V44.144C108.835 44.144 110.693 44.6861 112.078 45.6835L113.247 44.0605ZM106.422 42.144C102.388 42.144 99.2833 43.5656 97.3311 46.53L99.0014 47.63C100.505 45.3464 102.904 44.144 106.422 44.144V42.144ZM97.3278 46.535C95.5079 49.3349 94.6702 53.4386 94.6702 58.696H96.6702C96.6702 53.5854 97.4966 49.9451 99.0047 47.625L97.3278 46.535ZM183.812 53.512L183.07 52.8417L183.064 52.8484L183.058 52.8552L183.812 53.512ZM176.036 57.352L175.871 56.3656L175.036 56.5049V57.352H176.036ZM176.036 57.736H175.036V58.6207L175.914 58.7285L176.036 57.736ZM184.772 61.48L184.086 62.2082L184.092 62.2132L184.097 62.218L184.772 61.48ZM186.788 75.592L185.882 75.1691L185.876 75.1817L185.87 75.1944L186.788 75.592ZM182.756 80.584L182.151 79.7873L182.151 79.7873L182.756 80.584ZM175.556 83.848L175.303 82.8804L175.298 82.8818L175.556 83.848ZM140.036 85H139.036V86H140.036V85ZM140.036 32.584V31.584H139.036V32.584H140.036ZM175.94 33.928L175.67 34.891L175.681 34.8941L175.693 34.897L175.94 33.928ZM183.62 38.152L182.889 38.8352L182.895 38.8413L182.901 38.8474L183.62 38.152ZM170.948 64.168L170.433 65.0255L170.446 65.0332L170.459 65.0405L170.948 64.168ZM154.34 62.728V61.728H153.34V62.728H154.34ZM154.34 75.112H153.34V76.112H154.34V75.112ZM170.66 73.672L171.145 74.5462L171.156 74.5402L170.66 73.672ZM170.084 43.816L170.598 42.9585L170.598 42.9585L170.084 43.816ZM154.34 42.664V41.664H153.34V42.664H154.34ZM154.34 53.032H153.34V54.032H154.34V53.032ZM169.604 51.784L170.08 52.6634L170.092 52.6565L169.604 51.784ZM185.5 46.312C185.5 48.8948 184.686 51.0519 183.07 52.8417L184.554 54.1823C186.521 52.004 187.5 49.3612 187.5 46.312H185.5ZM183.058 52.8552C181.526 54.6137 179.175 55.815 175.871 56.3656L176.2 58.3384C179.809 57.737 182.641 56.3783 184.566 54.1688L183.058 52.8552ZM175.036 57.352V57.736H177.036V57.352H175.036ZM175.914 58.7285C179.4 59.1567 182.098 60.3368 184.086 62.2082L185.457 60.7518C183.093 58.5272 179.967 57.2113 176.158 56.7435L175.914 58.7285ZM184.097 62.218C186.117 64.0653 187.132 66.4156 187.132 69.352H189.132C189.132 65.8884 187.906 62.9907 185.447 60.742L184.097 62.218ZM187.132 69.352C187.132 71.4544 186.712 73.3891 185.882 75.1691L187.694 76.0149C188.655 73.9549 189.132 71.7296 189.132 69.352H187.132ZM185.87 75.1944C185.114 76.9394 183.886 78.4712 182.151 79.7873L183.36 81.3807C185.337 79.8808 186.797 78.0846 187.705 75.9896L185.87 75.1944ZM182.151 79.7873C180.427 81.0954 178.157 82.1359 175.303 82.8804L175.808 84.8156C178.842 84.0241 181.372 82.8886 183.36 81.3807L182.151 79.7873ZM175.298 82.8818C172.528 83.6205 169.1 84 164.996 84V86C169.211 86 172.824 85.6115 175.813 84.8142L175.298 82.8818ZM164.996 84H140.036V86H164.996V84ZM141.036 85V32.584H139.036V85H141.036ZM140.036 33.584H164.996V31.584H140.036V33.584ZM164.996 33.584C169.021 33.584 172.575 34.0245 175.67 34.891L176.209 32.965C172.904 32.0395 169.163 31.584 164.996 31.584V33.584ZM175.693 34.897C178.816 35.6931 181.192 37.0207 182.889 38.8352L184.35 37.4688C182.335 35.3153 179.591 33.8268 176.187 32.959L175.693 34.897ZM182.901 38.8474C184.598 40.6008 185.5 43.0469 185.5 46.312H187.5C187.5 42.6651 186.482 39.6712 184.338 37.4566L182.901 38.8474ZM174.348 68.584C174.348 66.2254 173.395 64.3921 171.436 63.2955L170.459 65.0405C171.701 65.7359 172.348 66.8466 172.348 68.584H174.348ZM171.462 63.3105C169.632 62.2123 167.015 61.728 163.748 61.728V63.728C166.88 63.728 169.064 64.2037 170.433 65.0255L171.462 63.3105ZM163.748 61.728H154.34V63.728H163.748V61.728ZM153.34 62.728V75.112H155.34V62.728H153.34ZM154.34 76.112H164.036V74.112H154.34V76.112ZM164.036 76.112C166.835 76.112 169.225 75.6131 171.145 74.5462L170.174 72.7978C168.639 73.6509 166.612 74.112 164.036 74.112V76.112ZM171.156 74.5402C173.311 73.3088 174.348 71.2474 174.348 68.584H172.348C172.348 70.6566 171.593 71.9872 170.164 72.8038L171.156 74.5402ZM173.004 47.464C173.004 45.4971 172.219 43.9308 170.598 42.9585L169.569 44.6735C170.509 45.2372 171.004 46.1029 171.004 47.464H173.004ZM170.598 42.9585C169.091 42.054 166.989 41.664 164.42 41.664V43.664C166.843 43.664 168.517 44.042 169.569 44.6735L170.598 42.9585ZM164.42 41.664H154.34V43.664H164.42V41.664ZM153.34 42.664V53.032H155.34V42.664H153.34ZM154.34 54.032H162.788V52.032H154.34V54.032ZM162.788 54.032C165.858 54.032 168.327 53.6126 170.08 52.6633L169.127 50.9047C167.808 51.6194 165.734 52.032 162.788 52.032V54.032ZM170.092 52.6565C172.039 51.5666 173.004 49.7736 173.004 47.464H171.004C171.004 49.1224 170.369 50.2094 169.115 50.9115L170.092 52.6565ZM242.555 70.312L241.613 69.9745L241.611 69.9825L241.608 69.9904L242.555 70.312ZM237.467 78.952L236.74 78.2648L236.74 78.2654L237.467 78.952ZM229.499 84.232L229.844 85.1707L229.852 85.1676L229.86 85.1644L229.499 84.232ZM208.667 84.232L208.299 85.1618L208.31 85.1664L208.322 85.1707L208.667 84.232ZM200.699 78.952L199.972 79.6393L199.982 79.6491L200.699 78.952ZM195.419 70.312L194.477 70.6495L194.48 70.6573L194.483 70.6651L195.419 70.312ZM196.667 44.008L197.555 44.4667L197.558 44.4609L196.667 44.008ZM205.499 34.792L205.981 35.6682L205.981 35.6682L205.499 34.792ZM232.187 34.792L231.699 35.6648L231.699 35.6648L232.187 34.792ZM241.115 44.008L240.235 44.4829L240.238 44.4888L241.115 44.008ZM209.243 67.432L208.284 67.717L208.289 67.7327L208.294 67.7482L209.243 67.432ZM212.795 72.712L212.19 73.5082L212.2 73.516L212.21 73.5235L212.795 72.712ZM225.179 72.712L225.779 73.512L225.784 73.5082L225.179 72.712ZM228.635 67.432L227.684 67.1235L227.681 67.1316L227.678 67.1398L228.635 67.432ZM228.635 50.056L227.678 50.3482L227.682 50.3603L227.686 50.3722L228.635 50.056ZM210.683 47.08L209.848 46.53L209.844 46.535L210.683 47.08ZM243.379 58.696C243.379 62.9562 242.783 66.7107 241.613 69.9745L243.496 70.6495C244.758 67.1293 245.379 63.1398 245.379 58.696H243.379ZM241.608 69.9904C240.498 73.2597 238.872 76.0114 236.74 78.2648L238.193 79.6392C240.542 77.1566 242.308 74.1483 243.502 70.6336L241.608 69.9904ZM236.74 78.2654C234.672 80.4547 232.143 82.134 229.137 83.2996L229.86 85.1644C233.126 83.898 235.91 82.0573 238.194 79.6386L236.74 78.2654ZM229.154 83.2933C226.147 84.3979 222.715 84.96 218.843 84.96V86.96C222.907 86.96 226.579 86.3701 229.844 85.1707L229.154 83.2933ZM218.843 84.96C215.302 84.96 212.027 84.4012 209.012 83.2933L208.322 85.1707C211.578 86.3668 215.088 86.96 218.843 86.96V84.96ZM209.035 83.3022C206.09 82.1367 203.554 80.4547 201.416 78.2549L199.982 79.6491C202.323 82.0573 205.099 83.8953 208.299 85.1618L209.035 83.3022ZM201.425 78.2648C199.286 76.0035 197.593 73.2407 196.354 69.9589L194.483 70.6651C195.805 74.1673 197.631 77.1645 199.972 79.6392L201.425 78.2648ZM196.36 69.9745C195.19 66.7107 194.595 62.9562 194.595 58.696H192.595C192.595 63.1398 193.215 67.1293 194.477 70.6495L196.36 69.9745ZM194.595 58.696C194.595 52.9847 195.599 48.2563 197.555 44.4666L195.778 43.5494C193.638 47.6957 192.595 52.7593 192.595 58.696H194.595ZM197.558 44.4609C199.518 40.6018 202.323 37.6802 205.981 35.6682L205.017 33.9158C200.995 36.1278 197.911 39.3502 195.775 43.5551L197.558 44.4609ZM205.981 35.6682C209.646 33.652 214.018 32.624 219.131 32.624V30.624C213.747 30.624 209.031 31.708 205.017 33.9158L205.981 35.6682ZM219.131 32.624C223.912 32.624 228.091 33.6472 231.699 35.6648L232.675 33.9192C228.73 31.7128 224.206 30.624 219.131 30.624V32.624ZM231.699 35.6648C235.299 37.6785 238.143 40.6077 240.235 44.4829L241.995 43.5331C239.734 39.3443 236.627 36.1295 232.675 33.9192L231.699 35.6648ZM240.238 44.4888C242.313 48.2731 243.379 52.9931 243.379 58.696H245.379C245.379 52.7509 244.268 47.6789 241.992 43.5272L240.238 44.4888ZM207.187 58.696C207.187 62.2132 207.544 65.2278 208.284 67.717L210.201 67.147C209.533 64.9002 209.187 62.0908 209.187 58.696H207.187ZM208.294 67.7482C209.112 70.2027 210.399 72.1469 212.19 73.5082L213.4 71.9158C211.991 70.8451 210.909 69.2693 210.191 67.1158L208.294 67.7482ZM212.21 73.5235C214.025 74.8301 216.327 75.44 219.035 75.44V73.44C216.622 73.44 214.764 72.8979 213.379 71.9005L212.21 73.5235ZM219.035 75.44C221.739 75.44 224.02 74.8311 225.779 73.512L224.579 71.912C223.266 72.8969 221.45 73.44 219.035 73.44V75.44ZM225.784 73.5082C227.582 72.1416 228.838 70.188 229.591 67.7242L227.678 67.1398C227.023 69.284 225.976 70.8504 224.574 71.9158L225.784 73.5082ZM229.586 67.7405C230.396 65.2425 230.787 62.2192 230.787 58.696H228.787C228.787 62.0847 228.409 64.8855 227.684 67.1235L229.586 67.7405ZM230.787 58.696C230.787 55.1741 230.396 52.1789 229.583 49.7398L227.686 50.3722C228.409 52.5411 228.787 55.3059 228.787 58.696H230.787ZM229.591 49.7638C228.838 47.2982 227.577 45.3665 225.763 44.0605L224.594 45.6835C225.98 46.6815 227.024 48.2058 227.678 50.3482L229.591 49.7638ZM225.763 44.0605C223.948 42.7539 221.646 42.144 218.939 42.144V44.144C221.351 44.144 223.209 44.6861 224.594 45.6835L225.763 44.0605ZM218.939 42.144C214.905 42.144 211.8 43.5656 209.848 46.53L211.518 47.63C213.022 45.3464 215.421 44.144 218.939 44.144V42.144ZM209.844 46.535C208.024 49.3349 207.187 53.4386 207.187 58.696H209.187C209.187 53.5854 210.013 49.9451 211.521 47.625L209.844 46.535ZM260.616 83.176L260.15 84.061L260.163 84.0673L260.616 83.176ZM252.264 74.344L253.164 73.9084L253.164 73.9084L252.264 74.344ZM252.648 43.432L251.768 42.9571L251.768 42.9571L252.648 43.432ZM261.672 34.504L261.231 33.6066L261.225 33.6096L261.672 34.504ZM284.424 32.68L284.165 33.6459L284.171 33.6474L284.424 32.68ZM291.432 35.176L292.366 35.5333L292.694 34.6758L291.868 34.2758L291.432 35.176ZM287.208 46.216L286.837 47.1445L287.779 47.5215L288.142 46.5733L287.208 46.216ZM280.872 44.008L280.585 44.9659L280.593 44.9683L280.872 44.008ZM268.872 44.968L269.441 45.7902L269.452 45.7829L269.462 45.7754L268.872 44.968ZM265.128 50.248L264.185 49.9165L264.182 49.9241L264.18 49.9318L265.128 50.248ZM265.224 67.624L264.284 67.9636L264.289 67.9796L264.296 67.9954L265.224 67.624ZM269.064 72.712L268.495 73.5342L268.506 73.5417L268.517 73.549L269.064 72.712ZM283.08 73.192L283.396 74.1407L283.408 74.1368L283.42 74.1326L283.08 73.192ZM289.8 69.832H290.8V67.9939L289.257 68.9924L289.8 69.832ZM289.8 82.024L290.344 82.8636L290.8 82.568V82.024H289.8ZM282.888 85L282.658 84.0269L282.643 84.0305L282.627 84.0346L282.888 85ZM273.864 84.96C268.797 84.96 264.545 84.0528 261.07 82.2847L260.163 84.0673C263.984 86.0112 268.564 86.96 273.864 86.96V84.96ZM261.082 82.2911C257.637 80.4777 254.998 77.6982 253.164 73.9084L251.364 74.7796C253.37 78.9258 256.3 82.0343 260.151 84.0609L261.082 82.2911ZM253.164 73.9084C251.331 70.12 250.384 65.1948 250.384 59.08H248.384C248.384 65.3812 249.357 70.632 251.364 74.7796L253.164 73.9084ZM250.384 59.08C250.384 52.7836 251.456 47.7466 253.528 43.9069L251.768 42.9571C249.488 47.1814 248.384 52.5764 248.384 59.08H250.384ZM253.528 43.9069C255.614 40.0431 258.476 37.2201 262.119 35.3984L261.225 33.6096C257.188 35.6279 254.035 38.7569 251.768 42.9571L253.528 43.9069ZM262.114 35.4013C265.86 33.559 270.185 32.624 275.112 32.624V30.624C269.928 30.624 265.293 31.609 261.231 33.6066L262.114 35.4013ZM275.112 32.624C278.635 32.624 281.648 32.9704 284.165 33.6458L284.683 31.7142C281.953 30.9816 278.758 30.624 275.112 30.624V32.624ZM284.171 33.6474C286.812 34.339 289.084 35.1506 290.997 36.0762L291.868 34.2758C289.813 33.2814 287.413 32.429 284.678 31.7126L284.171 33.6474ZM290.498 34.8186L286.274 45.8587L288.142 46.5733L292.366 35.5333L290.498 34.8186ZM287.58 45.2875C285.314 44.3813 283.171 43.6341 281.151 43.0477L280.593 44.9683C282.541 45.5339 284.622 46.2587 286.837 47.1445L287.58 45.2875ZM281.16 43.0502C279.151 42.4474 277.134 42.144 275.112 42.144V44.144C276.931 44.144 278.754 44.4166 280.585 44.9658L281.16 43.0502ZM275.112 42.144C272.45 42.144 270.151 42.7949 268.282 44.1606L269.462 45.7754C270.921 44.7091 272.783 44.144 275.112 44.144V42.144ZM268.303 44.1458C266.428 45.4441 265.07 47.398 264.185 49.9165L266.072 50.5795C266.851 48.362 267.989 46.7959 269.441 45.7902L268.303 44.1458ZM264.18 49.9318C263.366 52.3724 262.976 55.4004 262.976 58.984H264.976C264.976 55.5276 265.354 52.7316 266.077 50.5642L264.18 49.9318ZM262.976 58.984C262.976 62.512 263.4 65.516 264.284 67.9636L266.165 67.2844C265.385 65.124 264.976 62.368 264.976 58.984H262.976ZM264.296 67.9954C265.25 70.3821 266.641 72.2505 268.495 73.5342L269.633 71.8898C268.16 70.8695 266.99 69.3459 266.153 67.2526L264.296 67.9954ZM268.517 73.549C270.373 74.7623 272.588 75.344 275.112 75.344V73.344C272.901 73.344 271.084 72.8377 269.612 71.875L268.517 73.549ZM275.112 75.344C278.203 75.344 280.97 74.9497 283.396 74.1407L282.764 72.2433C280.583 72.9703 278.037 73.344 275.112 73.344V75.344ZM283.42 74.1326C285.799 73.2733 288.107 72.1185 290.344 70.6716L289.257 68.9924C287.141 70.3615 284.969 71.4467 282.741 72.2514L283.42 74.1326ZM288.8 69.832V82.024H290.8V69.832H288.8ZM289.257 81.1844C287.173 82.5327 284.975 83.4782 282.658 84.0269L283.119 85.9731C285.666 85.3698 288.075 84.3313 290.344 82.8636L289.257 81.1844ZM282.627 84.0346C280.375 84.6434 277.463 84.96 273.864 84.96V86.96C277.562 86.96 280.666 86.6366 283.149 85.9654L282.627 84.0346ZM341.609 43.336V44.336H342.609V43.336H341.609ZM324.425 43.336V42.336H323.425V43.336H324.425ZM324.425 85V86H325.425V85H324.425ZM310.121 85H309.121V86H310.121V85ZM310.121 43.336H311.121V42.336H310.121V43.336ZM292.937 43.336H291.937V44.336H292.937V43.336ZM292.937 32.584V31.584H291.937V32.584H292.937ZM341.609 32.584H342.609V31.584H341.609V32.584ZM341.609 42.336H324.425V44.336H341.609V42.336ZM323.425 43.336V85H325.425V43.336H323.425ZM324.425 84H310.121V86H324.425V84ZM311.121 85V43.336H309.121V85H311.121ZM310.121 42.336H292.937V44.336H310.121V42.336ZM293.937 43.336V32.584H291.937V43.336H293.937ZM292.937 33.584H341.609V31.584H292.937V33.584ZM340.609 32.584V43.336H342.609V32.584H340.609ZM361.263 57.352L360.266 57.2723L360.265 57.2921L360.264 57.312L361.263 57.352ZM360.975 62.248L359.978 62.1713L359.977 62.1904L359.976 62.2096L360.975 62.248ZM360.687 66.664L361.682 66.7635L361.682 66.7635L360.687 66.664ZM360.399 69.352L359.407 69.228L361.235 69.9017L360.399 69.352ZM384.591 32.584V31.584H384.052L383.756 32.0343L384.591 32.584ZM401.775 32.584H402.775V31.584H401.775V32.584ZM401.775 85V86H402.775V85H401.775ZM387.951 85H386.951V86H387.951V85ZM388.143 58.408L389.141 58.4704L389.141 58.4685L388.143 58.408ZM388.527 52.552L387.533 52.4491L387.531 52.4649L387.53 52.4808L388.527 52.552ZM388.911 48.328L389.909 48.3945L390.162 44.6038L388.076 47.7789L388.911 48.328ZM364.815 85V86H365.355L365.651 85.5491L364.815 85ZM347.631 85H346.631V86H347.631V85ZM347.631 32.584V31.584H346.631V32.584H347.631ZM361.455 32.584H362.455V31.584H361.455V32.584ZM360.455 53.32C360.455 54.3721 360.393 55.6876 360.266 57.2723L362.26 57.4317C362.389 55.8164 362.455 54.4439 362.455 53.32H360.455ZM360.264 57.312C360.201 58.8993 360.105 60.519 359.978 62.1713L361.972 62.3247C362.101 60.649 362.198 59.0047 362.262 57.392L360.264 57.312ZM359.976 62.2096C359.913 63.8587 359.818 65.3097 359.692 66.5645L361.682 66.7635C361.813 65.4583 361.91 63.9653 361.975 62.2864L359.976 62.2096ZM359.692 66.5645C359.564 67.8448 359.469 68.7296 359.407 69.228L361.392 69.476C361.457 68.9504 361.554 68.0432 361.682 66.7635L359.692 66.5645ZM361.235 69.9017L385.427 33.1337L383.756 32.0343L359.564 68.8023L361.235 69.9017ZM384.591 33.584H401.775V31.584H384.591V33.584ZM400.775 32.584V85H402.775V32.584H400.775ZM401.775 84H387.951V86H401.775V84ZM388.951 85V64.072H386.951V85H388.951ZM388.951 64.072C388.951 62.3682 389.014 60.5013 389.141 58.4704L387.145 58.3456C387.016 60.4107 386.951 62.3198 386.951 64.072H388.951ZM389.141 58.4685C389.269 56.3595 389.397 54.4111 389.525 52.6232L387.53 52.4808C387.401 54.2769 387.273 56.2325 387.145 58.3475L389.141 58.4685ZM389.522 52.6549C389.714 50.7958 389.844 49.3732 389.909 48.3945L387.913 48.2615C387.851 49.2028 387.724 50.5962 387.533 52.4491L389.522 52.6549ZM388.076 47.7789L363.98 84.4509L365.651 85.5491L389.747 48.8771L388.076 47.7789ZM364.815 84H347.631V86H364.815V84ZM348.631 85V32.584H346.631V85H348.631ZM347.631 33.584H361.455V31.584H347.631V33.584ZM360.455 32.584V53.32H362.455V32.584H360.455Z" fill="#E06529"/>
<path d="M64.8 96H50.304V66.432H23.136V96H8.64V27.456H23.136V54.336H50.304V27.456H64.8V96ZM124.862 69.696C124.862 74.048 124.254 77.92 123.038 81.312C121.886 84.704 120.19 87.584 117.95 89.952C115.774 92.256 113.118 94.016 109.982 95.232C106.846 96.384 103.294 96.96 99.3263 96.96C95.6782 96.96 92.2862 96.384 89.1502 95.232C86.0782 94.016 83.4222 92.256 81.1822 89.952C78.9422 87.584 77.1822 84.704 75.9022 81.312C74.6862 77.92 74.0782 74.048 74.0782 69.696C74.0782 63.872 75.1022 58.976 77.1502 55.008C79.1982 50.976 82.1422 47.904 85.9822 45.792C89.8222 43.68 94.3662 42.624 99.6142 42.624C104.542 42.624 108.894 43.68 112.67 45.792C116.446 47.904 119.422 50.976 121.598 55.008C123.774 58.976 124.862 63.872 124.862 69.696ZM88.6702 69.696C88.6702 73.152 89.0222 76.064 89.7262 78.432C90.4942 80.736 91.6782 82.496 93.2782 83.712C94.8782 84.864 96.9582 85.44 99.5182 85.44C102.078 85.44 104.126 84.864 105.662 83.712C107.262 82.496 108.414 80.736 109.118 78.432C109.886 76.064 110.27 73.152 110.27 69.696C110.27 66.24 109.886 63.36 109.118 61.056C108.414 58.752 107.262 57.024 105.662 55.872C104.062 54.72 101.982 54.144 99.4222 54.144C95.6462 54.144 92.8942 55.456 91.1662 58.08C89.5022 60.64 88.6702 64.512 88.6702 69.696ZM179.5 57.312C179.5 60.128 178.604 62.528 176.812 64.512C175.084 66.496 172.492 67.776 169.036 68.352V68.736C172.684 69.184 175.596 70.432 177.772 72.48C180.012 74.528 181.132 77.152 181.132 80.352C181.132 82.592 180.684 84.672 179.788 86.592C178.956 88.512 177.612 90.176 175.756 91.584C173.9 92.992 171.5 94.08 168.556 94.848C165.676 95.616 162.156 96 157.996 96H133.036V43.584H157.996C162.092 43.584 165.74 44.032 168.94 44.928C172.204 45.76 174.764 47.168 176.62 49.152C178.54 51.136 179.5 53.856 179.5 57.312ZM166.348 79.584C166.348 77.536 165.548 76.064 163.948 75.168C162.348 74.208 159.948 73.728 156.748 73.728H147.34V86.112H157.036C159.724 86.112 161.932 85.632 163.66 84.672C165.452 83.648 166.348 81.952 166.348 79.584ZM165.004 58.464C165.004 56.8 164.364 55.584 163.084 54.816C161.804 54.048 159.916 53.664 157.42 53.664H147.34V64.032H155.788C158.796 64.032 161.068 63.616 162.604 62.784C164.204 61.888 165.004 60.448 165.004 58.464ZM237.379 69.696C237.379 74.048 236.771 77.92 235.555 81.312C234.403 84.704 232.707 87.584 230.467 89.952C228.291 92.256 225.635 94.016 222.499 95.232C219.363 96.384 215.811 96.96 211.843 96.96C208.195 96.96 204.803 96.384 201.667 95.232C198.595 94.016 195.939 92.256 193.699 89.952C191.459 87.584 189.699 84.704 188.419 81.312C187.203 77.92 186.595 74.048 186.595 69.696C186.595 63.872 187.619 58.976 189.667 55.008C191.715 50.976 194.659 47.904 198.499 45.792C202.339 43.68 206.883 42.624 212.131 42.624C217.059 42.624 221.411 43.68 225.187 45.792C228.963 47.904 231.939 50.976 234.115 55.008C236.291 58.976 237.379 63.872 237.379 69.696ZM201.187 69.696C201.187 73.152 201.539 76.064 202.243 78.432C203.011 80.736 204.195 82.496 205.795 83.712C207.395 84.864 209.475 85.44 212.035 85.44C214.595 85.44 216.643 84.864 218.179 83.712C219.779 82.496 220.931 80.736 221.635 78.432C222.403 76.064 222.787 73.152 222.787 69.696C222.787 66.24 222.403 63.36 221.635 61.056C220.931 58.752 219.779 57.024 218.179 55.872C216.579 54.72 214.499 54.144 211.939 54.144C208.163 54.144 205.411 55.456 203.683 58.08C202.019 60.64 201.187 64.512 201.187 69.696ZM266.864 96.96C261.68 96.96 257.264 96.032 253.616 94.176C249.968 92.256 247.184 89.312 245.264 85.344C243.344 81.376 242.384 76.288 242.384 70.08C242.384 63.68 243.472 58.464 245.648 54.432C247.824 50.4 250.832 47.424 254.672 45.504C258.576 43.584 263.056 42.624 268.112 42.624C271.696 42.624 274.8 42.976 277.424 43.68C280.112 44.384 282.448 45.216 284.432 46.176L280.208 57.216C277.968 56.32 275.856 55.584 273.872 55.008C271.952 54.432 270.032 54.144 268.112 54.144C265.616 54.144 263.536 54.752 261.872 55.968C260.208 57.12 258.96 58.88 258.128 61.248C257.36 63.552 256.976 66.464 256.976 69.984C256.976 73.44 257.392 76.32 258.224 78.624C259.12 80.864 260.4 82.56 262.064 83.712C263.728 84.8 265.744 85.344 268.112 85.344C271.12 85.344 273.776 84.96 276.08 84.192C278.384 83.36 280.624 82.24 282.8 80.832V93.024C280.624 94.432 278.32 95.424 275.888 96C273.52 96.64 270.512 96.96 266.864 96.96ZM334.609 54.336H317.425V96H303.121V54.336H285.937V43.584H334.609V54.336ZM354.455 64.32C354.455 65.408 354.391 66.752 354.263 68.352C354.199 69.952 354.103 71.584 353.975 73.248C353.911 74.912 353.815 76.384 353.687 77.664C353.559 78.944 353.463 79.84 353.399 80.352L377.591 43.584H394.775V96H380.951V75.072C380.951 73.344 381.015 71.456 381.143 69.408C381.271 67.296 381.399 65.344 381.527 63.552C381.719 61.696 381.847 60.288 381.911 59.328L357.815 96H340.631V43.584H354.455V64.32Z" fill="white"/>
</svg>
