<svg width="195" height="107" viewBox="0 0 195 107" fill="none" xmlns="http://www.w3.org/2000/svg">
<path d="M57.792 85V86H58.792V85H57.792ZM43.488 85H42.488V86H43.488V85ZM43.488 12.04V11.04H42.488V12.04H43.488ZM57.792 12.04H58.792V11.04H57.792V12.04ZM57.792 84H43.488V86H57.792V84ZM44.488 85V12.04H42.488V85H44.488ZM43.488 13.04H57.792V11.04H43.488V13.04ZM56.792 12.04V85H58.792V12.04H56.792ZM83.394 32.584H84.394V31.584H83.394V32.584ZM83.394 85V86H84.394V85H83.394ZM69.09 85H68.09V86H69.09V85ZM69.09 32.584V31.584H68.09V32.584H69.09ZM81.762 13.576L81.2073 14.408L81.2195 14.4162L81.232 14.424L81.762 13.576ZM81.762 24.52L81.2073 23.6879H81.2073L81.762 24.52ZM70.722 24.52L70.1509 25.3409L70.1591 25.3466L70.1673 25.352L70.722 24.52ZM70.722 13.576L71.2683 14.4137L71.2767 14.408L70.722 13.576ZM82.394 32.584V85H84.394V32.584H82.394ZM83.394 84H69.09V86H83.394V84ZM70.09 85V32.584H68.09V85H70.09ZM69.09 33.584H83.394V31.584H69.09V33.584ZM76.29 13.04C78.2339 13.04 79.8584 13.5087 81.2073 14.408L82.3167 12.7439C80.5936 11.5952 78.5701 11.04 76.29 11.04V13.04ZM81.232 14.424C82.3503 15.1229 83.066 16.5252 83.066 19.048H85.066C85.066 16.1948 84.2457 13.9491 82.292 12.728L81.232 14.424ZM83.066 19.048C83.066 21.4901 82.3585 22.9205 81.2073 23.6879L82.3167 25.352C84.2375 24.0715 85.066 21.8539 85.066 19.048H83.066ZM81.2073 23.6879C79.8584 24.5872 78.2339 25.056 76.29 25.056V27.056C78.5701 27.056 80.5936 26.5007 82.3167 25.352L81.2073 23.6879ZM76.29 25.056C74.2754 25.056 72.6208 24.584 71.2767 23.6879L70.1673 25.352C71.8952 26.504 73.9526 27.056 76.29 27.056V25.056ZM71.2931 23.6991C70.1992 22.9382 69.514 21.5056 69.514 19.048H67.514C67.514 21.8384 68.3008 24.0538 70.1509 25.3409L71.2931 23.6991ZM69.514 19.048C69.514 16.5092 70.2075 15.1054 71.2683 14.4136L70.1757 12.7384C68.2925 13.9666 67.514 16.2108 67.514 19.048H69.514ZM71.2767 14.408C72.6208 13.512 74.2754 13.04 76.29 13.04V11.04C73.9526 11.04 71.8952 11.592 70.1673 12.7439L71.2767 14.408ZM107.172 85L106.238 85.356L106.483 86H107.172V85ZM87.204 32.584V31.584H85.7529L86.2695 32.94L87.204 32.584ZM102.18 32.584L103.127 32.2641L102.898 31.584H102.18V32.584ZM112.26 62.44L113.209 62.1238L113.207 62.1201L112.26 62.44ZM113.22 66.088L112.239 66.2841L112.244 66.3074L112.25 66.3305L113.22 66.088ZM113.892 69.832L112.897 69.9367L112.9 69.9624L112.904 69.988L113.892 69.832ZM114.276 73.192L113.278 73.2544L113.337 74.192H114.276V73.192ZM114.66 73.192V74.192H115.603L115.658 73.2507L114.66 73.192ZM115.044 69.736L116.032 69.892L115.044 69.736ZM115.716 66.088L114.746 65.8455L114.741 65.8636L114.737 65.882L115.716 66.088ZM116.772 62.44L115.825 62.1201L115.823 62.1238L116.772 62.44ZM126.852 32.584V31.584H126.134L125.905 32.2641L126.852 32.584ZM141.828 32.584L142.762 32.94L143.279 31.584H141.828V32.584ZM121.86 85V86H122.549L122.794 85.356L121.86 85ZM108.106 84.644L88.1385 32.228L86.2695 32.94L106.238 85.356L108.106 84.644ZM87.204 33.584H102.18V31.584H87.204V33.584ZM101.233 32.9039L111.313 62.7599L113.207 62.1201L103.127 32.2641L101.233 32.9039ZM111.311 62.7562C111.681 63.8661 111.991 65.0418 112.239 66.2841L114.201 65.8919C113.937 64.5742 113.607 63.3179 113.209 62.1238L111.311 62.7562ZM112.25 66.3305C112.559 67.5687 112.775 68.7706 112.897 69.9367L114.887 69.7273C114.753 68.4614 114.521 67.1673 114.19 65.8455L112.25 66.3305ZM112.904 69.988C113.092 71.1788 113.216 72.2672 113.278 73.2544L115.274 73.1296C115.208 72.0688 115.076 70.9172 114.88 69.676L112.904 69.988ZM114.276 74.192H114.66V72.192H114.276V74.192ZM115.658 73.2507C115.72 72.1991 115.844 71.0798 116.032 69.892L114.056 69.58C113.86 70.8242 113.728 72.0089 113.662 73.1333L115.658 73.2507ZM116.032 69.892C116.221 68.6929 116.442 67.4936 116.695 66.294L114.737 65.882C114.478 67.1144 114.251 68.3471 114.056 69.58L116.032 69.892ZM116.686 66.3305C117 65.0733 117.345 63.882 117.721 62.7562L115.823 62.1238C115.431 63.302 115.072 64.5427 114.746 65.8455L116.686 66.3305ZM117.719 62.7599L127.799 32.9039L125.905 32.2641L115.825 62.1201L117.719 62.7599ZM126.852 33.584H141.828V31.584H126.852V33.584ZM140.894 32.228L120.926 84.644L122.794 85.356L142.762 32.94L140.894 32.228ZM121.86 84H107.172V86H121.86V84ZM179.78 34.408L179.307 35.289L179.314 35.2926L179.78 34.408ZM187.94 42.472L187.062 42.9509L187.94 42.472ZM190.82 62.344V63.344H191.82V62.344H190.82ZM157.028 62.344V61.344H155.996L156.029 62.3757L157.028 62.344ZM160.58 71.848L159.863 72.5451L159.873 72.5551L160.58 71.848ZM179.3 74.344L179.527 75.318L179.537 75.3155L179.548 75.3128L179.3 74.344ZM187.844 71.176H188.844V69.5893L187.413 70.2739L187.844 71.176ZM187.844 82.216L188.291 83.1104L188.844 82.834V82.216H187.844ZM179.684 85L179.488 84.0194L179.475 84.022L179.463 84.0249L179.684 85ZM155.492 83.08L155.051 83.9773L155.062 83.9829L155.492 83.08ZM145.988 74.152L145.123 74.6541L145.988 74.152ZM145.604 43.912L144.715 43.4537L144.713 43.4591L145.604 43.912ZM154.34 34.696L153.857 33.8204L154.34 34.696ZM160.484 44.488L159.79 43.7686L159.783 43.7747L159.777 43.7809L160.484 44.488ZM157.316 52.84L156.32 52.7556L156.228 53.84H157.316V52.84ZM177.38 52.84V53.84H178.38V52.84H177.38ZM176.228 47.176L175.307 47.5656L175.314 47.5805L175.32 47.5951L176.228 47.176ZM172.964 43.24L173.511 42.4024L172.964 43.24ZM167.3 32.624C172.038 32.624 176.027 33.5277 179.307 35.289L180.253 33.527C176.621 31.5763 172.29 30.624 167.3 30.624V32.624ZM179.314 35.2926C182.658 37.056 185.236 39.6022 187.062 42.9509L188.818 41.9931C186.805 38.3018 183.942 35.472 180.247 33.5234L179.314 35.2926ZM187.062 42.9509C188.883 46.2888 189.82 50.4341 189.82 55.432H191.82C191.82 50.1899 190.837 45.6952 188.818 41.9931L187.062 42.9509ZM189.82 55.432V62.344H191.82V55.432H189.82ZM190.82 61.344H157.028V63.344H190.82V61.344ZM156.029 62.3757C156.163 66.5908 157.408 70.0199 159.863 72.5451L161.297 71.1509C159.272 69.0681 158.15 66.1612 158.028 62.3123L156.029 62.3757ZM159.873 72.5551C162.407 75.0891 165.854 76.304 170.084 76.304V74.304C166.251 74.304 163.361 73.2149 161.287 71.1409L159.873 72.5551ZM170.084 76.304C173.538 76.304 176.687 75.9783 179.527 75.318L179.074 73.37C176.409 73.9897 173.415 74.304 170.084 74.304V76.304ZM179.548 75.3128C182.372 74.5904 185.281 73.5102 188.276 72.0781L187.413 70.2739C184.519 71.6578 181.733 72.6896 179.052 73.3752L179.548 75.3128ZM186.844 71.176V82.216H188.844V71.176H186.844ZM187.397 81.3216C184.919 82.5608 182.283 83.4604 179.488 84.0194L179.88 85.9806C182.845 85.3876 185.65 84.4312 188.291 83.1104L187.397 81.3216ZM179.463 84.0249C176.742 84.6433 173.397 84.96 169.412 84.96V86.96C173.492 86.96 176.995 86.6367 179.906 85.9751L179.463 84.0249ZM169.412 84.96C164.287 84.96 159.798 84.0229 155.922 82.1771L155.062 83.9829C159.25 85.9771 164.041 86.96 169.412 86.96V84.96ZM155.934 82.1827C152.083 80.2878 149.06 77.4511 146.853 73.6499L145.123 74.6541C147.524 78.7889 150.838 81.9042 155.051 83.9773L155.934 82.1827ZM146.853 73.6499C144.661 69.8747 143.532 65.069 143.532 59.176H141.532C141.532 65.315 142.707 70.4933 145.123 74.6541L146.853 73.6499ZM143.532 59.176C143.532 53.1357 144.54 48.2155 146.496 44.3649L144.713 43.4591C142.573 47.6725 141.532 52.9283 141.532 59.176H143.532ZM146.493 44.3703C148.522 40.4345 151.3 37.5154 154.823 35.5716L153.857 33.8204C149.956 35.9726 146.91 39.1975 144.715 43.4537L146.493 44.3703ZM154.823 35.5716C158.365 33.6176 162.514 32.624 167.3 32.624V30.624C162.231 30.624 157.74 31.6784 153.857 33.8204L154.823 35.5716ZM167.396 40.8C164.404 40.8 161.845 41.7838 159.79 43.7686L161.179 45.2074C162.835 43.6082 164.884 42.8 167.396 42.8V40.8ZM159.777 43.7809C157.753 45.8052 156.65 48.8569 156.32 52.7556L158.313 52.9244C158.622 49.2711 159.632 46.7548 161.191 45.1951L159.777 43.7809ZM157.316 53.84H177.38V51.84H157.316V53.84ZM178.38 52.84C178.38 50.6053 177.973 48.5709 177.136 46.7569L175.32 47.5951C176.019 49.1091 176.38 50.8507 176.38 52.84H178.38ZM177.149 46.7864C176.37 44.9445 175.154 43.4743 173.511 42.4024L172.418 44.0776C173.718 44.9257 174.679 46.0794 175.307 47.5656L177.149 46.7864ZM173.511 42.4024C171.837 41.3108 169.777 40.8 167.396 40.8V42.8C169.495 42.8 171.148 43.2492 172.418 44.0776L173.511 42.4024Z" fill="#E06529"/>
<path d="M8.64 96V27.456H23.136V84H50.976V96H8.64ZM72.4253 43.584V96H58.1213V43.584H72.4253ZM65.3213 23.04C67.4333 23.04 69.2573 23.552 70.7933 24.576C72.3293 25.536 73.0973 27.36 73.0973 30.048C73.0973 32.672 72.3293 34.496 70.7933 35.52C69.2573 36.544 67.4333 37.056 65.3213 37.056C63.1453 37.056 61.2893 36.544 59.7533 35.52C58.2813 34.496 57.5453 32.672 57.5453 30.048C57.5453 27.36 58.2813 25.536 59.7533 24.576C61.2893 23.552 63.1453 23.04 65.3213 23.04ZM96.2033 96L76.2353 43.584H91.2113L101.291 73.44C101.675 74.592 101.995 75.808 102.251 77.088C102.571 78.368 102.795 79.616 102.923 80.832C103.115 82.048 103.243 83.168 103.307 84.192H103.691C103.755 83.104 103.883 81.952 104.075 80.736C104.267 79.52 104.491 78.304 104.747 77.088C105.067 75.808 105.419 74.592 105.803 73.44L115.883 43.584H130.859L110.891 96H96.2033ZM156.332 42.624C161.196 42.624 165.356 43.552 168.812 45.408C172.332 47.264 175.052 49.952 176.972 53.472C178.892 56.992 179.852 61.312 179.852 66.432V73.344H146.06C146.188 77.376 147.372 80.544 149.612 82.848C151.916 85.152 155.084 86.304 159.116 86.304C162.508 86.304 165.58 85.984 168.332 85.344C171.084 84.64 173.932 83.584 176.876 82.176V93.216C174.316 94.496 171.596 95.424 168.716 96C165.9 96.64 162.476 96.96 158.444 96.96C153.196 96.96 148.556 96 144.524 94.08C140.492 92.096 137.324 89.12 135.019 85.152C132.715 81.184 131.563 76.192 131.563 70.176C131.563 64.032 132.588 58.944 134.636 54.912C136.748 50.816 139.66 47.744 143.372 45.696C147.084 43.648 151.404 42.624 156.332 42.624ZM156.428 52.8C153.676 52.8 151.372 53.696 149.516 55.488C147.724 57.28 146.668 60.064 146.348 63.84H166.412C166.412 61.728 166.028 59.84 165.26 58.176C164.556 56.512 163.468 55.2 161.996 54.24C160.524 53.28 158.668 52.8 156.428 52.8Z" fill="white"/>
</svg>
